{
.appVersion = "3129";
DisplayStrings = (
"ABCDEFGHIJKLMNOPQRSTUVWXYZ/space \012abcdefghijklmnopqrstuvwxyz\012012345/space"
);
customParameters = (
{
name = fsType;
value = (
);
},
{
name = "Disable Last Change";
value = 1;
},
{
name = "Use Typo Metrics";
value = 1;
},
{
name = "Use Line Breaks";
value = 1;
},
{
name = "Axis Mappings";
value = {
wght = {
400 = 72;
500 = 82;
600 = 92;
700 = 102;
800 = 112;
900 = 128;
};
};
},
{
name = "Enforce Compatibility Check";
value = 0;
},
{
name = Axes;
value = (
{
Name = Weight;
Tag = wght;
}
);
}
);
date = "2021-04-17 17:06:30 +0000";
familyName = "Hasubi Mono";
featurePrefixes = (
{
automatic = 1;
code = "languagesystem DFLT dflt;

languagesystem arab dflt;
";
name = Languagesystems;
}
);
features = (
{
automatic = 1;
code = "feature init;
feature medi;
feature fina;
";
name = aalt;
},
{
automatic = 1;
code = "lookup ccmp_arab_1 {
	sub hamzaabove-ar damma-ar by hamzaaboveDamma-ar;
	sub damma-ar hamzaabove-ar by hamzaaboveDamma-ar;
	sub hamzaabove-ar dammatan-ar by hamzaaboveDammatan-ar;
	sub dammatan-ar hamzaabove-ar by hamzaaboveDammatan-ar;
	sub hamzaabove-ar fatha-ar by hamzaaboveFatha-ar;
	sub fatha-ar hamzaabove-ar by hamzaaboveFatha-ar;
	sub hamzaabove-ar fathatan-ar by hamzaaboveFathatan-ar;
	sub fathatan-ar hamzaabove-ar by hamzaaboveFathatan-ar;
	sub hamzaabove-ar sukun-ar by hamzaaboveSukun-ar;
	sub sukun-ar hamzaabove-ar by hamzaaboveSukun-ar;
	sub hamzabelow-ar kasra-ar by hamzabelowKasra-ar;
	sub kasra-ar hamzabelow-ar by hamzabelowKasra-ar;
	sub hamzabelow-ar kasratan-ar by hamzabelowKasratan-ar;
	sub kasratan-ar hamzabelow-ar by hamzabelowKasratan-ar;
	sub shadda-ar alefabove-ar by shaddaAlefabove-ar;
	sub alefabove-ar shadda-ar by shaddaAlefabove-ar;
	sub shadda-ar damma-ar by shaddaDamma-ar;
	sub damma-ar shadda-ar by shaddaDamma-ar;
	sub shadda-ar dammatan-ar by shaddaDammatan-ar;
	sub dammatan-ar shadda-ar by shaddaDammatan-ar;
	sub shadda-ar fatha-ar by shaddaFatha-ar;

glyphs = (
{
color = 5;
glyphname = A;
layers = (
{
layerId = m01;
paths = (
{
closed = 1;
nodes = (
"163 262 LINE",
"240 616 LINE",
"248 624 LINE",
"264 624 LINE",
"272 616 LINE",
"349 262 LINE",
"341 254 LINE",
"171 254 LINE"
);
},
{
closed = 1;
nodes = (
"96 0 LINE",
"104 8 LINE",
"143 174 LINE",
"151 182 LINE",
"361 182 LINE",
"369 174 LINE",
"408 8 LINE",
"416 0 LINE",
"472 0 LINE",
"480 8 LINE",
"320 696 LINE",
"312 704 LINE",
"200 704 LINE",
"192 696 LINE",
"32 8 LINE",
"40 0 LINE"
);
}
);
width = 512;
},
{
layerId = "4FBB1917-F682-4041-B654-F2E0D2EF1242";
paths = (
{
closed = 1;
nodes = (
"200 294 LINE",
"248 552 LINE",
"253 560 LINE",
"259 560 LINE",
"264 552 LINE",
"312 294 LINE",
"304 286 LINE",
"208 286 LINE"
);
},
{
closed = 1;
nodes = (
"144 0 LINE",
"152 8 LINE",
"176 134 LINE",
"184 142 LINE",
"328 142 LINE",
"336 134 LINE",
"360 8 LINE",
"368 0 LINE",
"472 0 LINE",
"480 8 LINE",
"344 696 LINE",
"336 704 LINE",
"176 704 LINE",
"168 696 LINE",
"32 8 LINE",
"40 0 LINE"
);
}
);
width = 512;
}
);
unicode = 0041;
},
{
color = 5;
glyphname = B;
layers = (
{
layerId = m01;
paths = (
{
closed = 1;
nodes = (
"152 415 LINE",
"152 616 LINE",
"160 624 LINE",
"232 624 LINE SMOOTH",
"312 624 OFFCURVE",
"344 592 OFFCURVE",
"344 543 CURVE SMOOTH",
"344 497 LINE SMOOTH",
"344 440 OFFCURVE",
"328 407 OFFCURVE",
"248 407 CURVE SMOOTH",
"160 407 LINE"
);
},
{
closed = 1;
nodes = (
"256 0 LINE SMOOTH",
"400 0 OFFCURVE",
"440 40 OFFCURVE",
"440 129 CURVE SMOOTH",
"440 258 LINE SMOOTH",
"440 310 OFFCURVE",
"414 358 OFFCURVE",
"353 364 CURVE",
"353 380 LINE",
"392 388 OFFCURVE",
"416 419 OFFCURVE",
"416 481 CURVE SMOOTH",
"416 559 LINE SMOOTH",
"416 640 OFFCURVE",
"366 704 OFFCURVE",
"238 704 CURVE SMOOTH",
"88 704 LINE",
"80 696 LINE",
"80 8 LINE",
"88 0 LINE"
);
},
{
closed = 1;
nodes = (
"152 88 LINE",
"152 327 LINE",
"160 335 LINE",
"256 335 LINE SMOOTH",
"336 335 OFFCURVE",
"368 289 OFFCURVE",
"368 239 CURVE SMOOTH",
"368 145 LINE SMOOTH",
"368 102 OFFCURVE",
"336 80 OFFCURVE",
"256 80 CURVE SMOOTH",
"160 80 LINE"
);
}
);
width = 512;
},
{
layerId = "4FBB1917-F682-4041-B654-F2E0D2EF1242";
paths = (
{
closed = 1;
nodes = (
"152 415 LINE",
"152 616 LINE",
"160 624 LINE",
"232 624 LINE SMOOTH",
"312 624 OFFCURVE",
"344 592 OFFCURVE",
"344 543 CURVE SMOOTH",
"344 497 LINE SMOOTH",
"344 440 OFFCURVE",
"328 407 OFFCURVE",
"248 407 CURVE SMOOTH",
"160 407 LINE"
);
},
{
closed = 1;
nodes = (
"256 0 LINE SMOOTH",
"400 0 OFFCURVE",
"440 48 OFFCURVE",
"440 129 CURVE SMOOTH",
"440 255 LINE SMOOTH",
"440 312 OFFCURVE",
"411 361 OFFCURVE",
"353 369 CURVE",
"353 382 LINE",
"392 390 OFFCURVE",
"416 419 OFFCURVE",
"416 481 CURVE SMOOTH",
"416 559 LINE SMOOTH",
"416 640 OFFCURVE",
"366 704 OFFCURVE",
"238 704 CURVE SMOOTH",
"88 704 LINE",
"80 696 LINE",
"80 8 LINE",
"88 0 LINE"
);
},
{
closed = 1;
nodes = (
"152 88 LINE",
"152 327 LINE",
"160 335 LINE",
"256 335 LINE SMOOTH",
"336 335 OFFCURVE",
"368 289 OFFCURVE",
"368 239 CURVE SMOOTH",
"368 145 LINE SMOOTH",
"368 102 OFFCURVE",
"336 80 OFFCURVE",
"256 80 CURVE SMOOTH",
"160 80 LINE"
);
}
);
width = 512;
}
);
unicode = 0042;
},
{
color = 5;
glyphname = C;
layers = (
{
layerId = m01;
paths = (
{
closed = 1;
nodes = (
"392 -16 OFFCURVE",
"440 72 OFFCURVE",
"440 177 CURVE SMOOTH",
"440 217 LINE",
"432 225 LINE",
"376 225 LINE",
"368 217 LINE",
"368 185 LINE SMOOTH",
"368 104 OFFCURVE",
"328 64 OFFCURVE",
"256 64 CURVE SMOOTH",
"184 64 OFFCURVE",
"144 104 OFFCURVE",
"144 185 CURVE SMOOTH",
"144 519 LINE SMOOTH",
"144 600 OFFCURVE",
"184 640 OFFCURVE",
"256 640 CURVE SMOOTH",
"328 640 OFFCURVE",
"368 600 OFFCURVE",
"368 519 CURVE SMOOTH",
"368 487 LINE",
"376 479 LINE",
"432 479 LINE",
"440 487 LINE",
"440 527 LINE SMOOTH",
"440 632 OFFCURVE",
"392 720 OFFCURVE",
"256 720 CURVE SMOOTH",
"136 720 OFFCURVE",
"72 648 OFFCURVE",
"72 527 CURVE SMOOTH",
"72 177 LINE SMOOTH",
"72 56 OFFCURVE",
"136 -16 OFFCURVE",
"256 -16 CURVE SMOOTH"
);
}
);
width = 512;
},
{
layerId = "4FBB1917-F682-4041-B654-F2E0D2EF1242";
paths = (
{
closed = 1;
nodes = (
"392 -16 OFFCURVE",
"440 72 OFFCURVE",
"440 177 CURVE SMOOTH",
"440 249 LINE",
"432 257 LINE",
"320 257 LINE",
"312 249 LINE",
"312 217 LINE SMOOTH",
"312 160 OFFCURVE",
"302 128 OFFCURVE",
"256 128 CURVE SMOOTH",
"212 128 OFFCURVE",
"200 176 OFFCURVE",
"200 249 CURVE SMOOTH",
"200 455 LINE SMOOTH",
"200 528 OFFCURVE",
"212 576 OFFCURVE",
"256 576 CURVE SMOOTH",
"302 576 OFFCURVE",
"312 544 OFFCURVE",
"312 495 CURVE SMOOTH",
"312 463 LINE",
"320 455 LINE",
"432 455 LINE",
"440 463 LINE",
"440 527 LINE SMOOTH",
"440 632 OFFCURVE",
"392 720 OFFCURVE",
"256 720 CURVE SMOOTH",
"136 720 OFFCURVE",
"72 648 OFFCURVE",
"72 535 CURVE SMOOTH",
"72 169 LINE SMOOTH",
"72 56 OFFCURVE",
"136 -16 OFFCURVE",
"256 -16 CURVE SMOOTH"
);
}
);
width = 512;
}
);
unicode = 0043;
},
{
color = 5;
glyphname = D;
layers = (
{
layerId = m01;
paths = (
{
closed = 1;
nodes = (
"260 0 LINE SMOOTH",
"388 0 OFFCURVE",
"440 64 OFFCURVE",
"440 193 CURVE SMOOTH",
"440 511 LINE SMOOTH",
"440 632 OFFCURVE",
"384 704 OFFCURVE",
"256 704 CURVE SMOOTH",
"88 704 LINE",
"80 696 LINE",
"80 8 LINE",
"88 0 LINE"
);
},
{
closed = 1;
nodes = (
"152 88 LINE",
"152 616 LINE",
"160 624 LINE",
"256 624 LINE SMOOTH",
"336 624 OFFCURVE",
"368 568 OFFCURVE",
"368 495 CURVE SMOOTH",
"368 209 LINE SMOOTH",
"368 120 OFFCURVE",
"336 80 OFFCURVE",
"256 80 CURVE SMOOTH",
"160 80 LINE"
);
}
);
width = 512;
},
{
layerId = "4FBB1917-F682-4041-B654-F2E0D2EF1242";
paths = (
{
closed = 1;
nodes = (
"256 0 LINE SMOOTH",
"384 0 OFFCURVE",
"440 80 OFFCURVE",
"440 193 CURVE SMOOTH",
"440 511 LINE SMOOTH",
"440 624 OFFCURVE",
"384 704 OFFCURVE",
"256 704 CURVE SMOOTH",
"80 704 LINE",
"72 696 LINE",
"72 8 LINE",
"80 0 LINE"
);
},
{
closed = 1;
nodes = (
"200 152 LINE",
"200 552 LINE",
"208 560 LINE",
"256 560 LINE SMOOTH",
"296 560 OFFCURVE",
"312 538 OFFCURVE",
"312 431 CURVE SMOOTH",
"312 273 LINE SMOOTH",
"312 168 OFFCURVE",
"296 144 OFFCURVE",
"256 144 CURVE SMOOTH",
"208 144 LINE"
);
}
);
width = 512;
}
);
unicode = 0044;
},
{
color = 5;
glyphname = E;
layers = (
{
layerId = m01;
paths = (
{
closed = 1;
nodes = (
"432 0 LINE",
"440 8 LINE",
"440 72 LINE",
"432 80 LINE",
"160 80 LINE",
"152 88 LINE",
"152 344 LINE",
"368 344 LINE",
"376 352 LINE",
"376 408 LINE",
"368 416 LINE",
"160 416 LINE",
"152 424 LINE",
"152 616 LINE",
"160 624 LINE",
"432 624 LINE",
"440 632 LINE",
"440 696 LINE",
"432 704 LINE",
"88 704 LINE",
"80 696 LINE",
"80 8 LINE",
"88 0 LINE"
);
}
);
width = 512;
},
{
layerId = "4FBB1917-F682-4041-B654-F2E0D2EF1242";
paths = (
{
closed = 1;
nodes = (
"432 0 LINE",
"440 8 LINE",
"440 72 LINE",
"432 80 LINE",
"152 80 LINE",
"144 88 LINE",
"144 312 LINE",
"368 312 LINE",
"376 320 LINE",
"376 384 LINE",
"368 392 LINE",
"152 392 LINE",
"144 400 LINE",
"144 616 LINE",
"152 624 LINE",
"432 624 LINE",
"440 632 LINE",
"440 696 LINE",
"432 704 LINE",
"80 704 LINE",
"72 696 LINE",
"72 8 LINE",
"80 0 LINE"
);
}
);
width = 512;
}
);
unicode = 0045;
},
{
color = 5;
glyphname = F;
layers = (
{
layerId = m01;
paths = (
{
closed = 1;
nodes = (
"144 0 LINE",
"152 8 LINE",
"152 336 LINE",
"160 344 LINE",
"400 344 LINE",
"408 352 LINE",
"408 408 LINE",
"400 416 LINE",
"160 416 LINE",
"152 424 LINE",
"152 616 LINE",
"160 624 LINE",
"464 624 LINE",
"472 632 LINE",
"472 696 LINE",
"464 704 LINE",
"88 704 LINE",
"80 696 LINE",
"80 8 LINE",
"88 0 LINE"
);
}
);
width = 512;
},
{
layerId = "4FBB1917-F682-4041-B654-F2E0D2EF1242";
paths = (
{
closed = 1;
nodes = (
"192 0 LINE",
"200 8 LINE",
"200 304 LINE",
"208 312 LINE",
"376 312 LINE",
"384 320 LINE",
"384 448 LINE",
"376 456 LINE",
"208 456 LINE",
"200 464 LINE",
"200 552 LINE",
"208 560 LINE",
"440 560 LINE",
"448 568 LINE",
"448 696 LINE",
"440 704 LINE",
"80 704 LINE",
"72 696 LINE",
"72 8 LINE",
"80 0 LINE"
);
}
);
width = 512;
}
);
unicode = 0046;
},
{
color = 5;
glyphname = G;
layers = (
{
layerId = m01;
paths = (
{
closed = 1;
nodes = (
"294 -16 OFFCURVE",
"345 15 OFFCURVE",
"368 50 CURVE",
"376 50 LINE",
"392 8 LINE",
"400 0 LINE",
"432 0 LINE",
"440 8 LINE",
"440 344 LINE",
"432 352 LINE",
"264 352 LINE",
"256 344 LINE",
"256 288 LINE",
"264 280 LINE",
"368 280 LINE",
"368 185 LINE SMOOTH",
"368 112 OFFCURVE",
"336 64 OFFCURVE",
"256 64 CURVE SMOOTH",
"184 64 OFFCURVE",
"144 104 OFFCURVE",
"144 185 CURVE SMOOTH",
"144 519 LINE SMOOTH",
"144 600 OFFCURVE",
"184 640 OFFCURVE",
"256 640 CURVE SMOOTH",
"328 640 OFFCURVE",
"368 592 OFFCURVE",
"368 519 CURVE SMOOTH",
"368 487 LINE",
"376 479 LINE",
"432 479 LINE",
"440 487 LINE",
"440 527 LINE SMOOTH",
"440 632 OFFCURVE",
"392 720 OFFCURVE",
"256 720 CURVE SMOOTH",
"136 720 OFFCURVE",
"72 656 OFFCURVE",
"72 535 CURVE SMOOTH",
"72 169 LINE SMOOTH",
"72 48 OFFCURVE",
"138 -16 OFFCURVE",
"240 -16 CURVE SMOOTH"
);
}
);
width = 512;
},
{
layerId = "4FBB1917-F682-4041-B654-F2E0D2EF1242";
paths = (
{
closed = 1;
nodes = (
"286 -16 OFFCURVE",
"337 15 OFFCURVE",
"360 50 CURVE",
"368 50 LINE",
"368 8 LINE",
"376 0 LINE",
"432 0 LINE",
"440 8 LINE",
"440 344 LINE",
"432 352 LINE",
"264 352 LINE",
"256 344 LINE",
"256 280 LINE",
"264 272 LINE",
"368 272 LINE",
"368 185 LINE SMOOTH",
"368 112 OFFCURVE",
"336 64 OFFCURVE",
"256 64 CURVE SMOOTH",
"184 64 OFFCURVE",
"144 112 OFFCURVE",
"144 185 CURVE SMOOTH",
"144 519 LINE SMOOTH",
"144 592 OFFCURVE",
"184 640 OFFCURVE",
"256 640 CURVE SMOOTH",
"328 640 OFFCURVE",
"368 592 OFFCURVE",
"368 519 CURVE SMOOTH",
"368 487 LINE",
"376 479 LINE",
"432 479 LINE",
"440 487 LINE",
"440 527 LINE SMOOTH",
"440 632 OFFCURVE",
"392 720 OFFCURVE",
"256 720 CURVE SMOOTH",
"136 720 OFFCURVE",
"72 648 OFFCURVE",
"72 535 CURVE SMOOTH",
"72 169 LINE SMOOTH",
"72 56 OFFCURVE",
"138 -16 OFFCURVE",
"240 -16 CURVE SMOOTH"
);
}
);
width = 512;
}
);
unicode = 0047;
},
{
color = 5;
glyphname = H;
layers = (
{
layerId = m01;
paths = (
{
closed = 1;
nodes = (
"144 0 LINE",
"152 8 LINE",
"152 351 LINE",
"160 359 LINE",
"352 359 LINE",
"360 351 LINE",
"360 8 LINE",
"368 0 LINE",
"424 0 LINE",
"432 8 LINE",
"432 696 LINE",
"424 704 LINE",
"368 704 LINE",
"360 696 LINE",
"360 439 LINE",
"352 431 LINE",
"160 431 LINE",
"152 439 LINE",
"152 696 LINE",
"144 704 LINE",
"88 704 LINE",
"80 696 LINE",
"80 8 LINE",
"88 0 LINE"
);
}
);
width = 512;
},
{
layerId = "4FBB1917-F682-4041-B654-F2E0D2EF1242";
paths = (
{
closed = 1;
nodes = (
"192 0 LINE",
"200 8 LINE",
"200 279 LINE",
"208 287 LINE",
"304 287 LINE",
"312 279 LINE",
"312 8 LINE",
"320 0 LINE",
"432 0 LINE",
"440 8 LINE",
"440 696 LINE",
"432 704 LINE",
"320 704 LINE",
"312 696 LINE",
"312 439 LINE",
"304 431 LINE",
"208 431 LINE",
"200 439 LINE",
"200 696 LINE",
"192 704 LINE",
"80 704 LINE",
"72 696 LINE",
"72 8 LINE",
"80 0 LINE"
);
}
);
width = 512;
}
);
unicode = 0048;
},
{
color = 5;
glyphname = I;
layers = (
{
layerId = m01;
paths = (
{
closed = 1;
nodes = (
"456 0 LINE",
"464 8 LINE",
"464 72 LINE",
"456 80 LINE",
"300 80 LINE",
"292 88 LINE",
"292 616 LINE",
"300 624 LINE",
"456 624 LINE",
"464 632 LINE",
"464 696 LINE",
"456 704 LINE",
"56 704 LINE",
"48 696 LINE",
"48 632 LINE",
"56 624 LINE",
"212 624 LINE",
"220 616 LINE",
"220 88 LINE",
"212 80 LINE",
"56 80 LINE",
"48 72 LINE",
"48 8 LINE",
"56 0 LINE"
);
}
);
width = 512;
},
{
layerId = "4FBB1917-F682-4041-B654-F2E0D2EF1242";
paths = (
{
closed = 1;
nodes = (
"448 0 LINE",
"456 8 LINE",
"456 136 LINE",
"448 144 LINE",
"328 144 LINE",
"320 152 LINE",
"320 552 LINE",
"328 560 LINE",
"448 560 LINE",
"456 568 LINE",
"456 696 LINE",
"448 704 LINE",
"64 704 LINE",
"56 696 LINE",
"56 568 LINE",
"64 560 LINE",
"184 560 LINE",
"192 552 LINE",
"192 152 LINE",
"184 144 LINE",
"64 144 LINE",
"56 136 LINE",
"56 8 LINE",
"64 0 LINE"
);
}
);
width = 512;
}
);
unicode = 0049;
},
{
color = 5;
glyphname = J;
layers = (
{
layerId = m01;
paths = (
{
closed = 1;
nodes = (
"384 -16 OFFCURVE",
"440 48 OFFCURVE",
"440 161 CURVE SMOOTH",
"440 696 LINE",
"432 704 LINE",
"208 704 LINE",
"200 696 LINE",
"200 632 LINE",
"208 624 LINE",
"360 624 LINE",
"368 616 LINE",
"368 177 LINE SMOOTH",
"368 88 OFFCURVE",
"336 64 OFFCURVE",
"256 64 CURVE SMOOTH",
"176 64 OFFCURVE",
"144 88 OFFCURVE",
"144 177 CURVE SMOOTH",
"144 225 LINE",
"136 233 LINE",
"80 233 LINE",
"72 225 LINE",
"72 169 LINE SMOOTH",
"72 48 OFFCURVE",
"128 -16 OFFCURVE",
"256 -16 CURVE SMOOTH"
);
}
);
width = 512;
},
{
layerId = "4FBB1917-F682-4041-B654-F2E0D2EF1242";
paths = (
{
closed = 1;
nodes = (
"384 -16 OFFCURVE",
"440 64 OFFCURVE",
"440 177 CURVE SMOOTH",
"440 696 LINE",
"432 704 LINE",
"152 704 LINE",
"144 696 LINE",
"144 632 LINE",
"152 624 LINE",
"360 624 LINE",
"368 616 LINE",
"368 193 LINE SMOOTH",
"368 120 OFFCURVE",
"336 64 OFFCURVE",
"256 64 CURVE SMOOTH",
"176 64 OFFCURVE",
"144 120 OFFCURVE",
"144 193 CURVE SMOOTH",
"144 225 LINE",
"136 233 LINE",
"80 233 LINE",
"72 225 LINE",
"72 185 LINE SMOOTH",
"72 80 OFFCURVE",
"128 -16 OFFCURVE",
"256 -16 CURVE SMOOTH"
);
}
);
width = 512;
}
);
unicode = 004A;
},
{
color = 5;
glyphname = K;
layers = (
{
layerId = m01;
paths = (
{
closed = 1;
nodes = (
"144 0 LINE",
"152 8 LINE",
"152 332 LINE",
"160 340 LINE",
"221 340 LINE",
"401 8 LINE",
"409 0 LINE",
"464 0 LINE",
"472 8 LINE",
"472 16 LINE",
"286 367 LINE",
"286 383 LINE",
"458 688 LINE",
"458 696 LINE",
"450 704 LINE",
"395 704 LINE",
"387 696 LINE",
"226 412 LINE",
"160 412 LINE",
"152 420 LINE",
"152 696 LINE",
"144 704 LINE",
"88 704 LINE",
"80 696 LINE",
"80 8 LINE",
"88 0 LINE"
);
}
);
width = 512;
},
{
layerId = "4FBB1917-F682-4041-B654-F2E0D2EF1242";
paths = (
{
closed = 1;
nodes = (
"136 0 LINE",
"144 8 LINE",
"144 324 LINE",
"152 332 LINE",
"181 332 LINE",
"393 8 LINE",
"401 0 LINE",
"464 0 LINE",
"472 8 LINE",
"472 16 LINE",
"249 363 LINE",
"249 379 LINE",
"458 688 LINE",
"458 696 LINE",
"450 704 LINE",
"383 704 LINE",
"375 696 LINE",
"186 412 LINE",
"152 412 LINE",
"144 420 LINE",
"144 696 LINE",
"136 704 LINE",
"80 704 LINE",
"72 696 LINE",
"72 8 LINE",
"80 0 LINE"
);
}
);
width = 512;
},
{
associatedMasterId = m01;
layerId = "CB604942-65FD-405A-9DFF-C63EAF8D848D";
name = "May 29, 22, 23:15";
paths = (
{
closed = 1;
nodes = (
"144 0 LINE",
"152 8 LINE",
"152 324 LINE",
"160 332 LINE",
"221 332 LINE",
"401 8 LINE",
"409 0 LINE",
"464 0 LINE",
"472 8 LINE",
"472 16 LINE",
"283 363 LINE",
"283 379 LINE",
"458 688 LINE",
"458 696 LINE",
"450 704 LINE",
"395 704 LINE",
"387 696 LINE",
"226 412 LINE",
"160 412 LINE",
"152 420 LINE",
"152 696 LINE",
"144 704 LINE",
"88 704 LINE",
"80 696 LINE",
"80 8 LINE",
"88 0 LINE"
);
}
);
width = 512;
},
{
associatedMasterId = m01;
layerId = "9EBD3689-8A55-440B-AB93-4B0340235D37";
name = "May 29, 22, 23:21";
paths = (
{
closed = 1;
nodes = (
"458 688 LINE",
"458 696 LINE",
"450 704 LINE",
"395 704 LINE",
"387 696 LINE",
"170 430 LINE",
"160 430 LINE",
"152 438 LINE",
"152 696 LINE",
"144 704 LINE",
"88 704 LINE",
"80 696 LINE",
"80 8 LINE",
"88 0 LINE",
"144 0 LINE",
"152 8 LINE",
"152 300 LINE"
);
},
{
closed = 1;
nodes = (
"197 419 LINE",
"401 8 LINE",
"409 0 LINE",
"464 0 LINE",
"472 8 LINE",
"472 16 LINE",
"250 469 LINE"
);
}
);
width = 512;
}
);
unicode = 004B;
},
{
color = 5;
glyphname = L;
layers = (
{
layerId = m01;
paths = (
{
closed = 1;
nodes = (
"440 0 LINE",
"448 8 LINE",
"448 72 LINE",
"440 80 LINE",
"160 80 LINE",
"152 88 LINE",
"152 696 LINE",
"144 704 LINE",
"88 704 LINE",
"80 696 LINE",
"80 8 LINE",
"88 0 LINE"
);
}
);
width = 512;
},
{
layerId = "4FBB1917-F682-4041-B654-F2E0D2EF1242";
paths = (
{
closed = 1;
nodes = (
"448 0 LINE",
"456 8 LINE",
"456 136 LINE",
"448 144 LINE",
"208 144 LINE",
"200 152 LINE",
"200 696 LINE",
"192 704 LINE",
"80 704 LINE",
"72 696 LINE",
"72 8 LINE",
"80 0 LINE"
);
}
);
width = 512;
}
);
unicode = 004C;
},
{
color = 5;
glyphname = M;
layers = (
{
layerId = m01;
paths = (
{
closed = 1;
nodes = (
"128 0 LINE",
"136 8 LINE",
"136 632 LINE",
"144 632 LINE",
"201 279 LINE",
"209 271 LINE",
"302 271 LINE",
"310 279 LINE",
"368 632 LINE",
"376 632 LINE",
"376 8 LINE",
"384 0 LINE",
"440 0 LINE",
"448 8 LINE",
"448 696 LINE",
"440 704 LINE",
"328 704 LINE",
"320 696 LINE",
"264 343 LINE",
"248 343 LINE",
"192 696 LINE",
"184 704 LINE",
"72 704 LINE",
"64 696 LINE",
"64 8 LINE",
"72 0 LINE"
);
}
);
width = 512;
},
{
layerId = "4FBB1917-F682-4041-B654-F2E0D2EF1242";
paths = (
{
closed = 1;
nodes = (
"136 0 LINE",
"144 8 LINE",
"144 624 LINE",
"168 624 LINE",
"193 279 LINE",
"201 271 LINE",
"310 271 LINE",
"318 279 LINE",
"344 624 LINE",
"368 624 LINE",
"368 8 LINE",
"376 0 LINE",
"432 0 LINE",
"440 8 LINE",
"440 696 LINE",
"432 704 LINE",
"304 704 LINE",
"296 696 LINE",
"272 351 LINE",
"240 351 LINE",
"216 696 LINE",
"208 704 LINE",
"80 704 LINE",
"72 696 LINE",
"72 8 LINE",
"80 0 LINE"
);
}
);
width = 512;
}
);
unicode = 004D;
},
{
color = 5;
glyphname = N;
layers = (
{
layerId = m01;
paths = (
{
closed = 1;
nodes = (
"136 0 LINE",
"144 8 LINE",
"144 640 LINE",
"152 640 LINE",
"320 8 LINE",
"328 0 LINE",
"432 0 LINE",
"440 8 LINE",
"440 696 LINE",
"432 704 LINE",
"376 704 LINE",
"368 696 LINE",
"368 64 LINE",
"360 64 LINE",
"200 696 LINE",
"192 704 LINE",
"80 704 LINE",
"72 696 LINE",
"72 8 LINE",
"80 0 LINE"
);
}
);
width = 512;
},
{
layerId = "4FBB1917-F682-4041-B654-F2E0D2EF1242";
paths = (
{
closed = 1;
nodes = (
"136 0 LINE",
"144 8 LINE",
"144 624 LINE",
"160 624 LINE",
"312 8 LINE",
"320 0 LINE",
"432 0 LINE",
"440 8 LINE",
"440 696 LINE",
"432 704 LINE",
"376 704 LINE",
"368 696 LINE",
"368 80 LINE",
"352 80 LINE",
"208 696 LINE",
"200 704 LINE",
"80 704 LINE",
"72 696 LINE",
"72 8 LINE",
"80 0 LINE"
);
}
);
width = 512;
}
);
unicode = 004E;
},
{
color = 5;
glyphname = O;
layers = (
{
layerId = m01;
paths = (
{
closed = 1;
nodes = (
"384 -16 OFFCURVE",
"440 64 OFFCURVE",
"440 177 CURVE SMOOTH",
"440 527 LINE SMOOTH",
"440 640 OFFCURVE",
"384 720 OFFCURVE",
"256 720 CURVE SMOOTH",
"128 720 OFFCURVE",
"72 640 OFFCURVE",
"72 527 CURVE SMOOTH",
"72 177 LINE SMOOTH",
"72 64 OFFCURVE",
"128 -16 OFFCURVE",
"256 -16 CURVE SMOOTH"
);
},
{
closed = 1;
nodes = (
"176 64 OFFCURVE",
"144 112 OFFCURVE",
"144 193 CURVE SMOOTH",
"144 511 LINE SMOOTH",
"144 592 OFFCURVE",
"176 640 OFFCURVE",
"256 640 CURVE SMOOTH",
"336 640 OFFCURVE",
"368 592 OFFCURVE",
"368 511 CURVE SMOOTH",
"368 193 LINE SMOOTH",
"368 112 OFFCURVE",
"336 64 OFFCURVE",
"256 64 CURVE SMOOTH"
);
}
);
width = 512;
},
{
layerId = "4FBB1917-F682-4041-B654-F2E0D2EF1242";
paths = (
{
closed = 1;
nodes = (
"399 -16 OFFCURVE",
"477 66 OFFCURVE",
"477 237 CURVE SMOOTH",
"477 463 LINE SMOOTH",
"477 636 OFFCURVE",
"399 720 OFFCURVE",
"256 720 CURVE SMOOTH",
"115 720 OFFCURVE",
"35 636 OFFCURVE",
"35 463 CURVE SMOOTH",
"35 237 LINE SMOOTH",
"35 66 OFFCURVE",
"113 -16 OFFCURVE",
"256 -16 CURVE SMOOTH"
);
},
{
closed = 1;
nodes = (
"185 122 OFFCURVE",
"171 179 OFFCURVE",
"171 259 CURVE SMOOTH",
"171 442 LINE SMOOTH",
"171 519 OFFCURVE",
"182 582 OFFCURVE",
"256 582 CURVE SMOOTH",
"329 582 OFFCURVE",
"341 525 OFFCURVE",
"341 442 CURVE SMOOTH",
"341 259 LINE SMOOTH",
"341 179 OFFCURVE",
"330 122 OFFCURVE",
"256 122 CURVE SMOOTH"
);
}
);
width = 512;
}
);
unicode = 004F;
},
{
color = 5;
glyphname = P;
layers = (
{
layerId = m01;
paths = (
{
closed = 1;
nodes = (
"152 616 LINE",
"160 624 LINE",
"264 624 LINE SMOOTH",
"344 624 OFFCURVE",
"376 568 OFFCURVE",
"376 495 CURVE SMOOTH",
"376 422 OFFCURVE",
"344 366 OFFCURVE",
"264 366 CURVE SMOOTH",
"160 366 LINE",
"152 374 LINE"
);
},
{
closed = 1;
nodes = (
"88 0 LINE",
"144 0 LINE",
"152 8 LINE",
"152 294 LINE",
"264 294 LINE SMOOTH",
"392 294 OFFCURVE",
"448 366 OFFCURVE",
"448 495 CURVE SMOOTH",
"448 624 OFFCURVE",
"392 704 OFFCURVE",
"264 704 CURVE SMOOTH",
"88 704 LINE",
"80 696 LINE",
"80 8 LINE"
);
}
);
width = 512;
},
{
layerId = "4FBB1917-F682-4041-B654-F2E0D2EF1242";
paths = (
{
closed = 1;
nodes = (
"152 616 LINE",
"160 624 LINE",
"264 624 LINE SMOOTH",
"344 624 OFFCURVE",
"376 568 OFFCURVE",
"376 495 CURVE SMOOTH",
"376 422 OFFCURVE",
"344 366 OFFCURVE",
"264 366 CURVE SMOOTH",
"160 366 LINE",
"152 374 LINE"
);
},
{
closed = 1;
nodes = (
"88 0 LINE",
"144 0 LINE",
"152 8 LINE",
"152 294 LINE",
"264 294 LINE SMOOTH",
"392 294 OFFCURVE",
"448 366 OFFCURVE",
"448 495 CURVE SMOOTH",
"448 624 OFFCURVE",
"392 704 OFFCURVE",
"264 704 CURVE SMOOTH",
"88 704 LINE",
"80 696 LINE",
"80 8 LINE"
);
}
);
width = 512;
}
);
unicode = 0050;
},
{
color = 5;
glyphname = Q;
layers = (
{
layerId = m01;
paths = (
{
closed = 1;
nodes = (
"176 64 OFFCURVE",
"144 112 OFFCURVE",
"144 193 CURVE SMOOTH",
"144 511 LINE SMOOTH",
"144 592 OFFCURVE",
"176 640 OFFCURVE",
"256 640 CURVE SMOOTH",
"336 640 OFFCURVE",
"368 592 OFFCURVE",
"368 511 CURVE SMOOTH",
"368 193 LINE SMOOTH",
"368 112 OFFCURVE",
"336 64 OFFCURVE",
"256 64 CURVE SMOOTH"
);
},
{
closed = 1;
nodes = (
"370 -144 LINE",
"378 -136 LINE",
"378 -72 LINE",
"370 -64 LINE",
"314 -64 LINE SMOOTH",
"298 -64 OFFCURVE",
"290 -56 OFFCURVE",
"290 -40 CURVE SMOOTH",
"290 -14 LINE",
"395 0 OFFCURVE",
"440 75 OFFCURVE",
"440 177 CURVE SMOOTH",
"440 527 LINE SMOOTH",
"440 640 OFFCURVE",
"384 720 OFFCURVE",
"256 720 CURVE SMOOTH",
"128 720 OFFCURVE",
"72 640 OFFCURVE",
"72 527 CURVE SMOOTH",
"72 177 LINE SMOOTH",
"72 76 OFFCURVE",
"117 1 OFFCURVE",
"218 -13 CURVE",
"218 -72 LINE SMOOTH",
"218 -120 OFFCURVE",
"242 -144 OFFCURVE",
"290 -144 CURVE SMOOTH"
);
}
);
width = 512;
},
{
layerId = "4FBB1917-F682-4041-B654-F2E0D2EF1242";
paths = (
{
closed = 1;
nodes = (
"176 64 OFFCURVE",
"144 120 OFFCURVE",
"144 193 CURVE SMOOTH",
"144 511 LINE SMOOTH",
"144 584 OFFCURVE",
"176 640 OFFCURVE",
"256 640 CURVE SMOOTH",
"336 640 OFFCURVE",
"368 584 OFFCURVE",
"368 511 CURVE SMOOTH",
"368 193 LINE SMOOTH",
"368 120 OFFCURVE",
"336 64 OFFCURVE",
"256 64 CURVE SMOOTH"
);
},
{
closed = 1;
nodes = (
"370 -208 LINE",
"378 -200 LINE",
"378 -136 LINE",
"370 -128 LINE",
"314 -128 LINE SMOOTH",
"298 -128 OFFCURVE",
"290 -120 OFFCURVE",
"290 -104 CURVE SMOOTH",
"290 -14 LINE",
"394 -1 OFFCURVE",
"440 75 OFFCURVE",
"440 177 CURVE SMOOTH",
"440 527 LINE SMOOTH",
"440 640 OFFCURVE",
"384 720 OFFCURVE",
"256 720 CURVE SMOOTH",
"128 720 OFFCURVE",
"72 640 OFFCURVE",
"72 527 CURVE SMOOTH",
"72 177 LINE SMOOTH",
"72 76 OFFCURVE",
"117 1 OFFCURVE",
"218 -13 CURVE",
"218 -136 LINE SMOOTH",
"218 -184 OFFCURVE",
"242 -208 OFFCURVE",
"290 -208 CURVE SMOOTH"
);
}
);
width = 512;
},
{
associatedMasterId = m01;
layerId = "2F66EF26-3C58-4151-A57E-792A2510A03A";
name = "May 30, 22, 00:10";
paths = (
{
closed = 1;
nodes = (
"384 -16 OFFCURVE",
"440 64 OFFCURVE",
"440 177 CURVE SMOOTH",
"440 527 LINE SMOOTH",
"440 640 OFFCURVE",
"384 720 OFFCURVE",
"256 720 CURVE SMOOTH",
"128 720 OFFCURVE",
"72 640 OFFCURVE",
"72 527 CURVE SMOOTH",
"72 177 LINE SMOOTH",
"72 64 OFFCURVE",
"128 -16 OFFCURVE",
"256 -16 CURVE SMOOTH"
);
},
{
closed = 1;
nodes = (
"176 64 OFFCURVE",
"144 112 OFFCURVE",
"144 193 CURVE SMOOTH",
"144 511 LINE SMOOTH",
"144 592 OFFCURVE",
"176 640 OFFCURVE",
"256 640 CURVE SMOOTH",
"336 640 OFFCURVE",
"368 592 OFFCURVE",
"368 511 CURVE SMOOTH",
"368 193 LINE SMOOTH",
"368 112 OFFCURVE",
"336 64 OFFCURVE",
"256 64 CURVE SMOOTH"
);
}
);
visible = 1;
width = 512;
}
);
unicode = 0051;
},
{
color = 5;
glyphname = R;
layers = (
{
layerId = m01;
paths = (
{
closed = 1;
nodes = (
"152 384 LINE",
"152 616 LINE",
"160 624 LINE",
"280 624 LINE SMOOTH",
"352 624 OFFCURVE",
"368 592 OFFCURVE",
"368 543 CURVE SMOOTH",
"368 465 LINE SMOOTH",
"368 408 OFFCURVE",
"352 376 OFFCURVE",
"280 376 CURVE SMOOTH",
"160 376 LINE"
);
},
{
closed = 1;
nodes = (
"144 0 LINE",
"152 8 LINE",
"152 296 LINE",
"160 304 LINE",
"256 304 LINE SMOOTH",
"336 304 OFFCURVE",
"368 257 OFFCURVE",
"368 207 CURVE SMOOTH",
"368 7 LINE",
"376 0 LINE",
"432 0 LINE",
"440 8 LINE",
"440 223 LINE SMOOTH",
"440 280 OFFCURVE",
"419 324 OFFCURVE",
"353 332 CURVE",
"353 345 LINE",
"400 353 OFFCURVE",
"440 387 OFFCURVE",
"440 449 CURVE SMOOTH",
"440 559 LINE SMOOTH",
"440 648 OFFCURVE",
"400 704 OFFCURVE",
"280 704 CURVE SMOOTH",
"88 704 LINE",
"80 696 LINE",
"80 8 LINE",
"88 0 LINE"
);
}
);
width = 512;
},
{
layerId = "4FBB1917-F682-4041-B654-F2E0D2EF1242";
paths = (
{
closed = 1;
nodes = (
"152 384 LINE",
"152 616 LINE",
"160 624 LINE",
"280 624 LINE SMOOTH",
"352 624 OFFCURVE",
"368 592 OFFCURVE",
"368 543 CURVE SMOOTH",
"368 465 LINE SMOOTH",
"368 408 OFFCURVE",
"352 376 OFFCURVE",
"280 376 CURVE SMOOTH",
"160 376 LINE"
);
},
{
closed = 1;
nodes = (
"144 0 LINE",
"152 8 LINE",
"152 296 LINE",
"160 304 LINE",
"256 304 LINE SMOOTH",
"336 304 OFFCURVE",
"368 257 OFFCURVE",
"368 207 CURVE SMOOTH",
"368 7 LINE",
"376 0 LINE",
"432 0 LINE",
"440 8 LINE",
"440 223 LINE SMOOTH",
"440 280 OFFCURVE",
"419 324 OFFCURVE",
"353 332 CURVE",
"353 345 LINE",
"400 353 OFFCURVE",
"440 387 OFFCURVE",
"440 449 CURVE SMOOTH",
"440 559 LINE SMOOTH",
"440 648 OFFCURVE",
"400 704 OFFCURVE",
"280 704 CURVE SMOOTH",
"88 704 LINE",
"80 696 LINE",
"80 8 LINE",
"88 0 LINE"
);
}
);
width = 512;
}
);
unicode = 0052;
},
{
color = 5;
glyphname = S;
layers = (
{
layerId = m01;
paths = (
{
closed = 1;
nodes = (
"392 -16 OFFCURVE",
"448 56 OFFCURVE",
"448 169 CURVE SMOOTH",
"448 281 OFFCURVE",
"399 329 OFFCURVE",
"340 363 CURVE SMOOTH",
"235 423 LINE SMOOTH",
"176 457 OFFCURVE",
"152 486 OFFCURVE",
"152 535 CURVE SMOOTH",
"152 592 OFFCURVE",
"184 640 OFFCURVE",
"255 640 CURVE SMOOTH",
"320 640 OFFCURVE",
"352 592 OFFCURVE",
"352 535 CURVE SMOOTH",
"352 510 LINE",
"360 502 LINE",
"416 502 LINE",
"424 510 LINE",
"424 551 LINE SMOOTH",
"424 640 OFFCURVE",
"376 720 OFFCURVE",
"255 720 CURVE SMOOTH",
"128 720 OFFCURVE",
"80 640 OFFCURVE",
"80 551 CURVE SMOOTH",
"80 449 OFFCURVE",
"114 400 OFFCURVE",
"184 362 CURVE SMOOTH",
"301 298 LINE SMOOTH",
"345 274 OFFCURVE",
"376 234 OFFCURVE",
"376 185 CURVE SMOOTH",
"376 104 OFFCURVE",
"336 64 OFFCURVE",
"256 64 CURVE SMOOTH",
"176 64 OFFCURVE",
"144 104 OFFCURVE",
"144 185 CURVE SMOOTH",
"144 218 LINE",
"136 226 LINE",
"80 226 LINE",
"72 218 LINE",
"72 169 LINE SMOOTH",
"72 56 OFFCURVE",
"120 -16 OFFCURVE",
"256 -16 CURVE SMOOTH"
);
}
);
width = 512;
},
{
layerId = "4FBB1917-F682-4041-B654-F2E0D2EF1242";
paths = (
{
closed = 1;
nodes = (
"384 -16 OFFCURVE",
"448 56 OFFCURVE",
"448 169 CURVE SMOOTH",
"448 281 OFFCURVE",
"395 332 OFFCURVE",
"337 363 CURVE SMOOTH",
"233 419 LINE SMOOTH",
"173 451 OFFCURVE",
"152 487 OFFCURVE",
"152 535 CURVE SMOOTH",
"152 592 OFFCURVE",
"184 640 OFFCURVE",
"264 640 CURVE SMOOTH",
"328 640 OFFCURVE",
"352 592 OFFCURVE",
"352 535 CURVE SMOOTH",
"352 510 LINE",
"360 502 LINE",
"416 502 LINE",
"424 510 LINE",
"424 551 LINE SMOOTH",
"424 640 OFFCURVE",
"376 720 OFFCURVE",
"264 720 CURVE SMOOTH",
"136 720 OFFCURVE",
"80 640 OFFCURVE",
"80 551 CURVE SMOOTH",
"80 457 OFFCURVE",
"114 397 OFFCURVE",
"184 359 CURVE SMOOTH",
"300 297 LINE SMOOTH",
"344 274 OFFCURVE",
"376 234 OFFCURVE",
"376 185 CURVE SMOOTH",
"376 104 OFFCURVE",
"336 64 OFFCURVE",
"256 64 CURVE SMOOTH",
"176 64 OFFCURVE",
"144 112 OFFCURVE",
"144 193 CURVE SMOOTH",
"144 234 LINE",
"136 242 LINE",
"80 242 LINE",
"72 234 LINE",
"72 177 LINE SMOOTH",
"72 64 OFFCURVE",
"128 -16 OFFCURVE",
"256 -16 CURVE SMOOTH"
);
}
);
width = 512;
},
{
associatedMasterId = m01;
layerId = "8E43A479-3CA2-4BDB-A19F-D87EA7E622C3";
name = "May 30, 22, 09:21";
paths = (
{
closed = 1;
nodes = (
"491 118 OFFCURVE",
"491 225 QCURVE SMOOTH",
"491 305 OFFCURVE",
"408 404 OFFCURVE",
"304 449 QCURVE SMOOTH",
"203 493 OFFCURVE",
"139 554 OFFCURVE",
"139 605 QCURVE SMOOTH",
"139 660 OFFCURVE",
"199 723 OFFCURVE",
"252 723 QCURVE SMOOTH",
"298 723 OFFCURVE",
"393 679 OFFCURVE",
"437 639 QCURVE",
"461 717 LINE",
"426 753 OFFCURVE",
"313 803 OFFCURVE",
"256 803 QCURVE SMOOTH",
"159 803 OFFCURVE",
"49 694 OFFCURVE",
"49 598 QCURVE SMOOTH",
"49 517 OFFCURVE",
"135 416 OFFCURVE",
"243 368 QCURVE SMOOTH",
"340 324 OFFCURVE",
"401 262 OFFCURVE",
"401 208 QCURVE SMOOTH",
"401 144 OFFCURVE",
"334 71 OFFCURVE",
"274 71 QCURVE SMOOTH",
"220 71 OFFCURVE",
"115 112 OFFCURVE",
"69 153 QCURVE",
"42 76 LINE",
"83 39 OFFCURVE",
"203 -9 OFFCURVE",
"265 -9 QCURVE SMOOTH",
"369 -9 OFFCURVE"
);
}
);
width = 512;
}
);
unicode = 0053;
},
{
color = 5;
glyphname = T;
layers = (
{
layerId = m01;
paths = (
{
closed = 1;
nodes = (
"284 0 LINE",
"292 8 LINE",
"292 616 LINE",
"300 624 LINE",
"464 624 LINE",
"472 632 LINE",
"472 696 LINE",
"464 704 LINE",
"48 704 LINE",
"40 696 LINE",
"40 632 LINE",
"48 624 LINE",
"212 624 LINE",
"220 616 LINE",
"220 8 LINE",
"228 0 LINE"
);
}
);
width = 512;
},
{
layerId = "4FBB1917-F682-4041-B654-F2E0D2EF1242";
paths = (
{
closed = 1;
nodes = (
"312 0 LINE",
"320 8 LINE",
"320 552 LINE",
"328 560 LINE",
"448 560 LINE",
"456 568 LINE",
"456 696 LINE",
"448 704 LINE",
"64 704 LINE",
"56 696 LINE",
"56 568 LINE",
"64 560 LINE",
"184 560 LINE",
"192 552 LINE",
"192 8 LINE",
"200 0 LINE"
);
}
);
width = 512;
}
);
unicode = 0054;
},
{
color = 5;
glyphname = U;
layers = (
{
layerId = m01;
paths = (
{
closed = 1;
nodes = (
"384 -16 OFFCURVE",
"440 48 OFFCURVE",
"440 177 CURVE SMOOTH",
"440 696 LINE",
"432 704 LINE",
"376 704 LINE",
"368 696 LINE",
"368 193 LINE SMOOTH",
"368 104 OFFCURVE",
"336 64 OFFCURVE",
"256 64 CURVE SMOOTH",
"176 64 OFFCURVE",
"144 104 OFFCURVE",
"144 193 CURVE SMOOTH",
"144 696 LINE",
"136 704 LINE",
"80 704 LINE",
"72 696 LINE",
"72 177 LINE SMOOTH",
"72 48 OFFCURVE",
"128 -16 OFFCURVE",
"256 -16 CURVE SMOOTH"
);
}
);
width = 512;
},
{
layerId = "4FBB1917-F682-4041-B654-F2E0D2EF1242";
paths = (
{
closed = 1;
nodes = (
"384 -16 OFFCURVE",
"440 64 OFFCURVE",
"440 177 CURVE SMOOTH",
"440 696 LINE",
"432 704 LINE",
"376 704 LINE",
"368 696 LINE",
"368 193 LINE SMOOTH",
"368 112 OFFCURVE",
"336 64 OFFCURVE",
"256 64 CURVE SMOOTH",
"176 64 OFFCURVE",
"144 112 OFFCURVE",
"144 193 CURVE SMOOTH",
"144 696 LINE",
"136 704 LINE",
"80 704 LINE",
"72 696 LINE",
"72 177 LINE SMOOTH",
"72 64 OFFCURVE",
"128 -16 OFFCURVE",
"256 -16 CURVE SMOOTH"
);
}
);
width = 512;
}
);
unicode = 0055;
},
{
color = 5;
glyphname = V;
layers = (
{
layerId = m01;
paths = (
{
closed = 1;
nodes = (
"320 0 LINE",
"328 8 LINE",
"472 688 LINE",
"472 696 LINE",
"464 704 LINE",
"408 704 LINE",
"400 696 LINE",
"272 80 LINE",
"240 80 LINE",
"112 696 LINE",
"104 704 LINE",
"48 704 LINE",
"40 696 LINE",
"40 688 LINE",
"184 8 LINE",
"192 0 LINE"
);
}
);
width = 512;
},
{
layerId = "4FBB1917-F682-4041-B654-F2E0D2EF1242";
paths = (
{
closed = 1;
nodes = (
"304 0 LINE",
"312 8 LINE",
"480 688 LINE",
"480 696 LINE",
"472 704 LINE",
"408 704 LINE",
"400 696 LINE",
"264 96 LINE",
"248 96 LINE",
"112 696 LINE",
"104 704 LINE",
"40 704 LINE",
"32 696 LINE",
"32 688 LINE",
"200 8 LINE",
"208 0 LINE"
);
}
);
width = 512;
}
);
unicode = 0056;
},
{
color = 5;
glyphname = W;
layers = (
{
layerId = m01;
paths = (
{
closed = 1;
nodes = (
"187 0 LINE",
"195 8 LINE",
"248 392 LINE",
"264 392 LINE",
"317 8 LINE",
"325 0 LINE",
"429 0 LINE",
"437 8 LINE",
"480 696 LINE",
"472 704 LINE",
"412 704 LINE",
"404 696 LINE",
"382 80 LINE",
"366 80 LINE",
"304 496 LINE",
"296 504 LINE",
"216 504 LINE",
"208 496 LINE",
"146 80 LINE",
"130 80 LINE",
"108 688 LINE",
"108 696 LINE",
"100 704 LINE",
"40 704 LINE",
"32 696 LINE",
"32 688 LINE",
"75 8 LINE",
"83 0 LINE"
);
}
);
width = 512;
},
{
layerId = "4FBB1917-F682-4041-B654-F2E0D2EF1242";
paths = (
{
closed = 1;
nodes = (
"179 0 LINE",
"187 8 LINE",
"248 374 LINE",
"264 374 LINE",
"325 8 LINE",
"333 0 LINE",
"429 0 LINE",
"437 8 LINE",
"495 696 LINE",
"487 704 LINE",
"427 704 LINE",
"419 696 LINE",
"382 102 LINE",
"366 102 LINE",
"296 504 LINE",
"288 512 LINE",
"224 512 LINE",
"216 504 LINE",
"146 102 LINE",
"130 102 LINE",
"93 688 LINE",
"93 696 LINE",
"85 704 LINE",
"25 704 LINE",
"17 696 LINE",
"17 688 LINE",
"75 8 LINE",
"83 0 LINE"
);
}
);
width = 512;
}
);
unicode = 0057;
},
{
color = 5;
glyphname = X;
layers = (
{
layerId = m01;
paths = (
{
closed = 1;
nodes = (
"104 0 LINE",
"112 8 LINE",
"248 288 LINE",
"264 288 LINE",
"400 8 LINE",
"408 0 LINE",
"472 0 LINE",
"480 8 LINE",
"480 16 LINE",
"312 344 LINE",
"312 360 LINE",
"480 688 LINE",
"480 696 LINE",
"472 704 LINE",
"408 704 LINE",
"400 696 LINE",
"264 416 LINE",
"248 416 LINE",
"112 696 LINE",
"104 704 LINE",
"40 704 LINE",
"32 696 LINE",
"32 688 LINE",
"200 360 LINE",
"200 344 LINE",
"32 16 LINE",
"32 8 LINE",
"40 0 LINE"
);
}
);
width = 512;
},
{
layerId = "4FBB1917-F682-4041-B654-F2E0D2EF1242";
paths = (
{
closed = 1;
nodes = (
"104 0 LINE",
"112 8 LINE",
"248 288 LINE",
"264 288 LINE",
"400 8 LINE",
"408 0 LINE",
"472 0 LINE",
"480 8 LINE",
"480 16 LINE",
"312 344 LINE",
"312 360 LINE",
"480 688 LINE",
"480 696 LINE",
"472 704 LINE",
"408 704 LINE",
"400 696 LINE",
"264 416 LINE",
"248 416 LINE",
"112 696 LINE",
"104 704 LINE",
"40 704 LINE",
"32 696 LINE",
"32 688 LINE",
"200 360 LINE",
"200 344 LINE",
"32 16 LINE",
"32 8 LINE",
"40 0 LINE"
);
}
);
width = 512;
},
{
associatedMasterId = m01;
layerId = "F9FD6134-FB8F-4C82-B499-419D6E8AA9D5";
name = "May 30, 22, 10:52";
paths = (
{
closed = 1;
nodes = (
"305 360 LINE",
"482 704 LINE",
"391 704 LINE",
"265 444 LINE",
"139 704 LINE",
"46 704 LINE",
"215 360 LINE",
"30 0 LINE",
"121 0 LINE",
"255 276 LINE",
"389 0 LINE",
"479 0 LINE"
);
}
);
visible = 1;
width = 512;
}
);
unicode = 0058;
},
{
color = 5;
glyphname = Y;
layers = (
{
layerId = m01;
paths = (
{
closed = 1;
nodes = (
"284 0 LINE",
"292 8 LINE",
"292 312 LINE",
"480 688 LINE",
"480 696 LINE",
"472 704 LINE",
"408 704 LINE",
"400 696 LINE",
"264 400 LINE",
"248 400 LINE",
"112 696 LINE",
"104 704 LINE",
"40 704 LINE",
"32 696 LINE",
"32 688 LINE",
"220 312 LINE",
"220 8 LINE",
"228 0 LINE"
);
}
);
width = 512;
},
{
layerId = "4FBB1917-F682-4041-B654-F2E0D2EF1242";
paths = (
{
closed = 1;
nodes = (
"284 0 LINE",
"292 8 LINE",
"292 312 LINE",
"480 688 LINE",
"480 696 LINE",
"472 704 LINE",
"408 704 LINE",
"400 696 LINE",
"264 400 LINE",
"248 400 LINE",
"112 696 LINE",
"104 704 LINE",
"40 704 LINE",
"32 696 LINE",
"32 688 LINE",
"220 312 LINE",
"220 8 LINE",
"228 0 LINE"
);
}
);
width = 512;
}
);
unicode = 0059;
},
{
color = 5;
glyphname = Z;
layers = (
{
layerId = m01;
paths = (
{
closed = 1;
nodes = (
"432 0 LINE",
"440 8 LINE",
"440 72 LINE",
"432 80 LINE",
"158 80 LINE",
"158 88 LINE",
"440 624 LINE",
"440 696 LINE",
"432 704 LINE",
"80 704 LINE",
"72 696 LINE",
"72 632 LINE",
"80 624 LINE",
"359 624 LINE",
"359 616 LINE",
"72 80 LINE",
"72 8 LINE",
"80 0 LINE"
);
}
);
width = 512;
},
{
layerId = "4FBB1917-F682-4041-B654-F2E0D2EF1242";
paths = (
{
closed = 1;
nodes = (
"432 0 LINE",
"440 8 LINE",
"440 72 LINE",
"432 80 LINE",
"166 80 LINE",
"158 88 LINE",
"440 624 LINE",
"440 696 LINE",
"432 704 LINE",
"80 704 LINE",
"72 696 LINE",
"72 632 LINE",
"80 624 LINE",
"351 624 LINE",
"359 616 LINE",
"72 80 LINE",
"72 8 LINE",
"80 0 LINE"
);
}
);
width = 512;
}
);
unicode = 005A;
},
{
color = 5;
glyphname = a;
layers = (
{
layerId = m01;
paths = (
{
closed = 1;
nodes = (
"174 64 OFFCURVE",
"136 77 OFFCURVE",
"136 136 CURVE SMOOTH",
"136 210 OFFCURVE",
"152 249 OFFCURVE",
"243 249 CURVE SMOOTH",
"316 249 LINE",
"324 241 LINE",
"324 136 LINE SMOOTH",
"324 77 OFFCURVE",
"300 64 OFFCURVE",
"210 64 CURVE SMOOTH"
);
},
{
closed = 1;
nodes = (
"247 -16 OFFCURVE",
"297 7 OFFCURVE",
"324 42 CURVE",
"332 42 LINE",
"348 12 OFFCURVE",
"376 0 OFFCURVE",
"409 0 CURVE",
"440 0 LINE",
"448 8 LINE",
"448 72 LINE",
"440 80 LINE",
"425 80 LINE SMOOTH",
"404 80 OFFCURVE",
"396 97 OFFCURVE",
"396 129 CURVE SMOOTH",
"396 370 LINE SMOOTH",
"396 472 OFFCURVE",
"369 528 OFFCURVE",
"248 528 CURVE SMOOTH",
"163 528 OFFCURVE",
"91 492 OFFCURVE",
"91 401 CURVE SMOOTH",
"91 380 LINE",
"99 372 LINE",
"155 372 LINE",
"163 380 LINE",
"163 401 LINE SMOOTH",
"163 429 OFFCURVE",
"177 448 OFFCURVE",
"248 448 CURVE SMOOTH",
"301 448 OFFCURVE",
"324 429 OFFCURVE",
"324 380 CURVE SMOOTH",
"324 321 LINE",
"316 313 LINE",
"229 313 LINE SMOOTH",
"124 313 OFFCURVE",
"64 264 OFFCURVE",
"64 136 CURVE SMOOTH",
"64 33 OFFCURVE",
"131 -16 OFFCURVE",
"202 -16 CURVE SMOOTH"
);
}
);
width = 512;
},
{
layerId = "4FBB1917-F682-4041-B654-F2E0D2EF1242";
paths = (
{
closed = 1;
nodes = (
"174 64 OFFCURVE",
"136 77 OFFCURVE",
"136 136 CURVE SMOOTH",
"136 210 OFFCURVE",
"152 249 OFFCURVE",
"243 249 CURVE SMOOTH",
"316 249 LINE",
"324 241 LINE",
"324 136 LINE SMOOTH",
"324 77 OFFCURVE",
"300 64 OFFCURVE",
"210 64 CURVE SMOOTH"
);
},
{
closed = 1;
nodes = (
"247 -16 OFFCURVE",
"297 7 OFFCURVE",
"324 42 CURVE",
"332 42 LINE",
"348 12 OFFCURVE",
"376 0 OFFCURVE",
"409 0 CURVE",
"440 0 LINE",
"448 8 LINE",
"448 72 LINE",
"440 80 LINE",
"425 80 LINE SMOOTH",
"404 80 OFFCURVE",
"396 97 OFFCURVE",
"396 129 CURVE SMOOTH",
"396 370 LINE SMOOTH",
"396 472 OFFCURVE",
"369 528 OFFCURVE",
"248 528 CURVE SMOOTH",
"163 528 OFFCURVE",
"91 492 OFFCURVE",
"91 401 CURVE SMOOTH",
"91 380 LINE",
"99 372 LINE",
"155 372 LINE",
"163 380 LINE",
"163 401 LINE SMOOTH",
"163 429 OFFCURVE",
"177 448 OFFCURVE",
"248 448 CURVE SMOOTH",
"301 448 OFFCURVE",
"324 429 OFFCURVE",
"324 380 CURVE SMOOTH",
"324 321 LINE",
"316 313 LINE",
"229 313 LINE SMOOTH",
"124 313 OFFCURVE",
"64 264 OFFCURVE",
"64 136 CURVE SMOOTH",
"64 33 OFFCURVE",
"131 -16 OFFCURVE",
"202 -16 CURVE SMOOTH"
);
}
);
width = 512;
}
);
unicode = 0061;
},
{
color = 5;
glyphname = b;
layers = (
{
layerId = m01;
paths = (
{
closed = 1;
nodes = (
"136 0 LINE",
"144 8 LINE",
"152 48 LINE",
"160 48 LINE",
"193 0 OFFCURVE",
"235 -16 OFFCURVE",
"288 -16 CURVE SMOOTH",
"377 -16 OFFCURVE",
"432 40 OFFCURVE",
"432 168 CURVE SMOOTH",
"432 344 LINE SMOOTH",
"432 472 OFFCURVE",
"368 528 OFFCURVE",
"280 528 CURVE SMOOTH",
"232 528 OFFCURVE",
"187 512 OFFCURVE",
"160 469 CURVE",
"152 469 LINE",
"152 696 LINE",
"144 704 LINE",
"88 704 LINE",
"80 696 LINE",
"80 8 LINE",
"88 0 LINE"
);
},
{
closed = 1;
nodes = (
"181 64 OFFCURVE",
"152 104 OFFCURVE",
"152 200 CURVE SMOOTH",
"152 312 LINE SMOOTH",
"152 408 OFFCURVE",
"184 448 OFFCURVE",
"256 448 CURVE SMOOTH",
"328 448 OFFCURVE",
"360 408 OFFCURVE",
"360 312 CURVE SMOOTH",
"360 200 LINE SMOOTH",
"360 104 OFFCURVE",
"328 64 OFFCURVE",
"264 64 CURVE SMOOTH"
);
}
);
width = 512;
},
{
layerId = "4FBB1917-F682-4041-B654-F2E0D2EF1242";
paths = (
{
closed = 1;
nodes = (
"144 0 LINE",
"152 8 LINE",
"152 48 LINE",
"160 48 LINE",
"193 0 OFFCURVE",
"235 -16 OFFCURVE",
"288 -16 CURVE SMOOTH",
"377 -16 OFFCURVE",
"432 40 OFFCURVE",
"432 168 CURVE SMOOTH",
"432 344 LINE SMOOTH",
"432 472 OFFCURVE",
"368 528 OFFCURVE",
"280 528 CURVE SMOOTH",
"232 528 OFFCURVE",
"187 512 OFFCURVE",
"160 469 CURVE",
"152 469 LINE",
"152 696 LINE",
"144 704 LINE",
"88 704 LINE",
"80 696 LINE",
"80 8 LINE",
"88 0 LINE"
);
},
{
closed = 1;
nodes = (
"181 64 OFFCURVE",
"152 104 OFFCURVE",
"152 200 CURVE SMOOTH",
"152 312 LINE SMOOTH",
"152 408 OFFCURVE",
"184 448 OFFCURVE",
"256 448 CURVE SMOOTH",
"328 448 OFFCURVE",
"360 408 OFFCURVE",
"360 312 CURVE SMOOTH",
"360 200 LINE SMOOTH",
"360 104 OFFCURVE",
"328 64 OFFCURVE",
"264 64 CURVE SMOOTH"
);
}
);
width = 512;
}
);
unicode = 0062;
},
{
color = 5;
glyphname = c;
layers = (
{
layerId = m01;
paths = (
{
closed = 1;
nodes = (
"360 -16 OFFCURVE",
"432 32 OFFCURVE",
"432 128 CURVE SMOOTH",
"432 171 LINE",
"424 179 LINE",
"368 179 LINE",
"360 171 LINE",
"360 144 LINE SMOOTH",
"360 87 OFFCURVE",
"320 64 OFFCURVE",
"256 64 CURVE SMOOTH",
"192 64 OFFCURVE",
"152 96 OFFCURVE",
"152 192 CURVE SMOOTH",
"152 320 LINE SMOOTH",
"152 416 OFFCURVE",
"192 448 OFFCURVE",
"256 448 CURVE SMOOTH",
"320 448 OFFCURVE",
"360 424 OFFCURVE",
"360 368 CURVE SMOOTH",
"360 335 LINE",
"368 327 LINE",
"425 327 LINE",
"432 335 LINE",
"432 384 LINE SMOOTH",
"432 480 OFFCURVE",
"360 528 OFFCURVE",
"256 528 CURVE SMOOTH",
"152 528 OFFCURVE",
"80 472 OFFCURVE",
"80 336 CURVE SMOOTH",
"80 176 LINE SMOOTH",
"80 40 OFFCURVE",
"152 -16 OFFCURVE",
"256 -16 CURVE SMOOTH"
);
}
);
width = 512;
},
{
layerId = "4FBB1917-F682-4041-B654-F2E0D2EF1242";
paths = (
{
closed = 1;
nodes = (
"373 -8 OFFCURVE",
"450 53 OFFCURVE",
"450 164 CURVE SMOOTH",
"450 204 LINE",
"442 212 LINE",
"330 212 LINE",
"322 204 LINE",
"322 187 LINE SMOOTH",
"322 166 OFFCURVE",
"292 152 OFFCURVE",
"257 152 CURVE SMOOTH",
"210 152 OFFCURVE",
"190 166 OFFCURVE",
"190 203 CURVE SMOOTH",
"190 323 LINE SMOOTH",
"190 350 OFFCURVE",
"209 360 OFFCURVE",
"256 360 CURVE SMOOTH",
"301 360 OFFCURVE",
"322 349 OFFCURVE",
"322 323 CURVE SMOOTH",
"322 306 LINE",
"330 298 LINE",
"442 298 LINE",
"450 306 LINE",
"450 327 LINE SMOOTH",
"450 483 OFFCURVE",
"372 528 OFFCURVE",
"256 528 CURVE SMOOTH",
"143 528 OFFCURVE",
"62 476 OFFCURVE",
"62 327 CURVE SMOOTH",
"62 198 LINE SMOOTH",
"62 61 OFFCURVE",
"137 -8 OFFCURVE",
"257 -8 CURVE SMOOTH"
);
}
);
width = 512;
}
);
unicode = 0063;
},
{
color = 5;
glyphname = d;
layers = (
{
layerId = m01;
paths = (
{
closed = 1;
nodes = (
"432 8 LINE",
"432 696 LINE",
"424 704 LINE",
"368 704 LINE",
"360 696 LINE",
"360 469 LINE",
"352 469 LINE",
"325 512 OFFCURVE",
"280 528 OFFCURVE",
"232 528 CURVE SMOOTH",
"144 528 OFFCURVE",
"80 472 OFFCURVE",
"80 344 CURVE SMOOTH",
"80 168 LINE SMOOTH",
"80 40 OFFCURVE",
"135 -16 OFFCURVE",
"224 -16 CURVE SMOOTH",
"277 -16 OFFCURVE",
"319 0 OFFCURVE",
"352 48 CURVE",
"360 48 LINE",
"368 8 LINE",
"376 0 LINE",
"424 0 LINE"
);
},
{
closed = 1;
nodes = (
"184 64 OFFCURVE",
"152 104 OFFCURVE",
"152 200 CURVE SMOOTH",
"152 312 LINE SMOOTH",
"152 408 OFFCURVE",
"184 448 OFFCURVE",
"256 448 CURVE SMOOTH",
"328 448 OFFCURVE",
"360 408 OFFCURVE",
"360 312 CURVE SMOOTH",
"360 200 LINE SMOOTH",
"360 104 OFFCURVE",
"331 64 OFFCURVE",
"248 64 CURVE SMOOTH"
);
}
);
width = 512;
},
{
layerId = "4FBB1917-F682-4041-B654-F2E0D2EF1242";
paths = (
{
closed = 1;
nodes = (
"432 8 LINE",
"432 696 LINE",
"424 704 LINE",
"368 704 LINE",
"360 696 LINE",
"360 469 LINE",
"352 469 LINE",
"325 512 OFFCURVE",
"280 528 OFFCURVE",
"232 528 CURVE SMOOTH",
"144 528 OFFCURVE",
"80 472 OFFCURVE",
"80 344 CURVE SMOOTH",
"80 168 LINE SMOOTH",
"80 40 OFFCURVE",
"135 -16 OFFCURVE",
"224 -16 CURVE SMOOTH",
"277 -16 OFFCURVE",
"319 0 OFFCURVE",
"352 48 CURVE",
"360 48 LINE",
"368 8 LINE",
"376 0 LINE",
"424 0 LINE"
);
},
{
closed = 1;
nodes = (
"184 64 OFFCURVE",
"152 104 OFFCURVE",
"152 200 CURVE SMOOTH",
"152 312 LINE SMOOTH",
"152 408 OFFCURVE",
"184 448 OFFCURVE",
"256 448 CURVE SMOOTH",
"328 448 OFFCURVE",
"360 408 OFFCURVE",
"360 312 CURVE SMOOTH",
"360 200 LINE SMOOTH",
"360 104 OFFCURVE",
"331 64 OFFCURVE",
"248 64 CURVE SMOOTH"
);
}
);
width = 512;
}
);
unicode = 0064;
},
{
color = 5;
glyphname = e;
layers = (
{
layerId = m01;
paths = (
{
closed = 1;
nodes = (
"367 -16 OFFCURVE",
"424 53 OFFCURVE",
"424 124 CURVE SMOOTH",
"424 140 LINE",
"416 148 LINE",
"360 148 LINE",
"352 140 LINE",
"352 124 LINE SMOOTH",
"352 84 OFFCURVE",
"315 64 OFFCURVE",
"257 64 CURVE SMOOTH",
"186 64 OFFCURVE",
"152 108 OFFCURVE",
"152 174 CURVE SMOOTH",
"152 215 LINE",
"160 223 LINE",
"424 223 LINE",
"432 231 LINE",
"432 336 LINE SMOOTH",
"432 467 OFFCURVE",
"372 528 OFFCURVE",
"256 528 CURVE SMOOTH",
"128 528 OFFCURVE",
"80 460 OFFCURVE",
"80 344 CURVE SMOOTH",
"80 158 LINE SMOOTH",
"80 29 OFFCURVE",
"143 -16 OFFCURVE",
"257 -16 CURVE SMOOTH"
);
},
{
closed = 1;
nodes = (
"152 303 LINE",
"152 328 LINE SMOOTH",
"152 402 OFFCURVE",
"183 448 OFFCURVE",
"256 448 CURVE SMOOTH",
"330 448 OFFCURVE",
"360 402 OFFCURVE",
"360 328 CURVE SMOOTH",
"360 303 LINE",
"352 295 LINE",
"160 295 LINE"
);
}
);
width = 512;
},
{
layerId = "4FBB1917-F682-4041-B654-F2E0D2EF1242";
paths = (
{
closed = 1;
nodes = (
"367 -16 OFFCURVE",
"424 53 OFFCURVE",
"424 124 CURVE SMOOTH",
"424 156 LINE",
"416 164 LINE",
"360 164 LINE",
"352 156 LINE",
"352 124 LINE SMOOTH",
"352 84 OFFCURVE",
"315 64 OFFCURVE",
"257 64 CURVE SMOOTH",
"186 64 OFFCURVE",
"152 108 OFFCURVE",
"152 174 CURVE SMOOTH",
"152 231 LINE",
"160 239 LINE",
"424 239 LINE",
"432 247 LINE",
"432 336 LINE SMOOTH",
"432 467 OFFCURVE",
"372 528 OFFCURVE",
"256 528 CURVE SMOOTH",
"128 528 OFFCURVE",
"80 460 OFFCURVE",
"80 344 CURVE SMOOTH",
"80 158 LINE SMOOTH",
"80 29 OFFCURVE",
"143 -16 OFFCURVE",
"257 -16 CURVE SMOOTH"
);
},
{
closed = 1;
nodes = (
"152 319 LINE",
"152 328 LINE SMOOTH",
"152 402 OFFCURVE",
"183 448 OFFCURVE",
"256 448 CURVE SMOOTH",
"330 448 OFFCURVE",
"360 402 OFFCURVE",
"360 328 CURVE SMOOTH",
"360 319 LINE",
"352 311 LINE",
"160 311 LINE"
);
}
);
width = 512;
}
);
unicode = 0065;
},
{
color = 5;
glyphname = f;
layers = (
{
layerId = m01;
paths = (
{
closed = 1;
nodes = (
"273 0 LINE",
"281 8 LINE",
"281 424 LINE",
"289 432 LINE",
"456 432 LINE",
"464 440 LINE",
"464 504 LINE",
"456 512 LINE",
"289 512 LINE",
"281 520 LINE",
"281 616 LINE SMOOTH",
"281 645 OFFCURVE",
"285 688 OFFCURVE",
"330 688 CURVE SMOOTH",
"464 688 LINE",
"472 696 LINE",
"472 760 LINE",
"464 768 LINE",
"330 768 LINE",
"242 768 OFFCURVE",
"209 691 OFFCURVE",
"209 612 CURVE SMOOTH",
"209 520 LINE",
"201 512 LINE",
"48 512 LINE",
"40 504 LINE",
"40 440 LINE",
"48 432 LINE",
"201 432 LINE",
"209 424 LINE",
"209 8 LINE",
"217 0 LINE"
);
}
);
width = 512;
},
{
layerId = "4FBB1917-F682-4041-B654-F2E0D2EF1242";
paths = (
{
closed = 1;
nodes = (
"273 0 LINE",
"281 8 LINE",
"281 424 LINE",
"289 432 LINE",
"472 432 LINE",
"480 440 LINE",
"480 504 LINE",
"472 512 LINE",
"289 512 LINE",
"281 520 LINE",
"281 616 LINE SMOOTH",
"281 645 OFFCURVE",
"285 688 OFFCURVE",
"330 688 CURVE SMOOTH",
"504 688 LINE",
"512 696 LINE",
"512 760 LINE",
"504 768 LINE",
"330 768 LINE",
"242 768 OFFCURVE",
"209 691 OFFCURVE",
"209 612 CURVE SMOOTH",
"209 520 LINE",
"201 512 LINE",
"56 512 LINE",
"48 504 LINE",
"48 440 LINE",
"56 432 LINE",
"201 432 LINE",
"209 424 LINE",
"209 8 LINE",
"217 0 LINE"
);
}
);
width = 512;
}
);
unicode = 0066;
},
{
color = 5;
glyphname = g;
layers = (
{
layerId = m01;
paths = (
{
closed = 1;
nodes = (
"377 -208 OFFCURVE",
"432 -152 OFFCURVE",
"432 -50 CURVE SMOOTH",
"432 504 LINE",
"424 512 LINE",
"376 512 LINE",
"368 504 LINE",
"360 464 LINE",
"352 464 LINE",
"319 512 OFFCURVE",
"277 528 OFFCURVE",
"224 528 CURVE SMOOTH",
"135 528 OFFCURVE",
"80 472 OFFCURVE",
"80 344 CURVE SMOOTH",
"80 216 LINE SMOOTH",
"80 88 OFFCURVE",
"144 32 OFFCURVE",
"232 32 CURVE SMOOTH",
"280 32 OFFCURVE",
"325 48 OFFCURVE",
"352 91 CURVE",
"360 91 LINE",
"360 -60 LINE SMOOTH",
"360 -109 OFFCURVE",
"309 -128 OFFCURVE",
"256 -128 CURVE SMOOTH",
"185 -128 OFFCURVE",
"152 -101 OFFCURVE",
"152 -65 CURVE SMOOTH",
"152 -36 LINE",
"144 -28 LINE",
"88 -28 LINE",
"80 -36 LINE",
"80 -65 LINE SMOOTH",
"80 -156 OFFCURVE",
"139 -208 OFFCURVE",
"256 -208 CURVE SMOOTH"
);
},
{
closed = 1;
nodes = (
"331 448 OFFCURVE",
"360 408 OFFCURVE",
"360 312 CURVE SMOOTH",
"360 248 LINE SMOOTH",
"360 152 OFFCURVE",
"328 112 OFFCURVE",
"256 112 CURVE SMOOTH",
"184 112 OFFCURVE",
"152 152 OFFCURVE",
"152 248 CURVE SMOOTH",
"152 312 LINE SMOOTH",
"152 408 OFFCURVE",
"184 448 OFFCURVE",
"248 448 CURVE SMOOTH"
);
}
);
width = 512;
},
{
layerId = "4FBB1917-F682-4041-B654-F2E0D2EF1242";
paths = (
{
closed = 1;
nodes = (
"377 -208 OFFCURVE",
"432 -152 OFFCURVE",
"432 -50 CURVE SMOOTH",
"432 504 LINE",
"424 512 LINE",
"376 512 LINE",
"368 504 LINE",
"360 464 LINE",
"352 464 LINE",
"319 512 OFFCURVE",
"277 528 OFFCURVE",
"224 528 CURVE SMOOTH",
"135 528 OFFCURVE",
"80 472 OFFCURVE",
"80 344 CURVE SMOOTH",
"80 216 LINE SMOOTH",
"80 88 OFFCURVE",
"144 32 OFFCURVE",
"232 32 CURVE SMOOTH",
"280 32 OFFCURVE",
"325 48 OFFCURVE",
"352 91 CURVE",
"360 91 LINE",
"360 -60 LINE SMOOTH",
"360 -109 OFFCURVE",
"309 -128 OFFCURVE",
"256 -128 CURVE SMOOTH",
"185 -128 OFFCURVE",
"152 -101 OFFCURVE",
"152 -65 CURVE SMOOTH",
"152 -36 LINE",
"144 -28 LINE",
"88 -28 LINE",
"80 -36 LINE",
"80 -65 LINE SMOOTH",
"80 -156 OFFCURVE",
"139 -208 OFFCURVE",
"256 -208 CURVE SMOOTH"
);
},
{
closed = 1;
nodes = (
"331 448 OFFCURVE",
"360 408 OFFCURVE",
"360 312 CURVE SMOOTH",
"360 248 LINE SMOOTH",
"360 152 OFFCURVE",
"328 112 OFFCURVE",
"256 112 CURVE SMOOTH",
"184 112 OFFCURVE",
"152 152 OFFCURVE",
"152 248 CURVE SMOOTH",
"152 312 LINE SMOOTH",
"152 408 OFFCURVE",
"184 448 OFFCURVE",
"248 448 CURVE SMOOTH"
);
}
);
width = 512;
},
{
associatedMasterId = m01;
layerId = "D1631CC0-4779-4521-8789-D8D607E038AF";
name = "May 30, 22, 14:57";
paths = (
{
closed = 1;
nodes = (
"450 -170 OFFCURVE",
"494 -110 OFFCURVE",
"494 -35 CURVE SMOOTH",
"494 50 OFFCURVE",
"393 98 OFFCURVE",
"297 98 CURVE SMOOTH",
"165 98 OFFCURVE",
"142 102 OFFCURVE",
"142 151 CURVE SMOOTH",
"142 186 OFFCURVE",
"174 205 OFFCURVE",
"219 205 CURVE SMOOTH",
"235 205 OFFCURVE",
"251 199 OFFCURVE",
"268 199 CURVE SMOOTH",
"372 199 OFFCURVE",
"444 272 OFFCURVE",
"444 360 CURVE SMOOTH",
"444 394 OFFCURVE",
"416 421 OFFCURVE",
"384 432 CURVE",
"384 445 LINE",
"484 445 LINE",
"492 453 LINE",
"492 504 LINE",
"484 512 LINE",
"354 512 LINE",
"331 524 OFFCURVE",
"302 528 OFFCURVE",
"268 528 CURVE SMOOTH",
"164 528 OFFCURVE",
"92 464 OFFCURVE",
"92 360 CURVE SMOOTH",
"92 318 OFFCURVE",
"132 282 OFFCURVE",
"160 254 CURVE",
"160 244 LINE",
"95 226 OFFCURVE",
"71 181 OFFCURVE",
"71 142 CURVE SMOOTH",
"71 79 OFFCURVE",
"115 58 OFFCURVE",
"125 55 CURVE",
"125 38 LINE",
"62 9 OFFCURVE",
"55 -13 OFFCURVE",
"55 -59 CURVE SMOOTH",
"55 -145 OFFCURVE",
"118 -170 OFFCURVE",
"280 -170 CURVE SMOOTH"
);
},
{
closed = 1;
nodes = (
"204 280 OFFCURVE",
"164 312 OFFCURVE",
"164 360 CURVE SMOOTH",
"164 424 OFFCURVE",
"204 448 OFFCURVE",
"268 448 CURVE SMOOTH",
"332 448 OFFCURVE",
"372 424 OFFCURVE",
"372 360 CURVE SMOOTH",
"372 312 OFFCURVE",
"332 280 OFFCURVE",
"268 280 CURVE SMOOTH"
);
},
{
closed = 1;
nodes = (
"149 -95 OFFCURVE",
"139 -76 OFFCURVE",
"139 -33 CURVE SMOOTH",
"139 3 OFFCURVE",
"149 17 OFFCURVE",
"286 17 CURVE SMOOTH",
"423 17 OFFCURVE",
"433 0 OFFCURVE",
"433 -33 CURVE SMOOTH",
"433 -84 OFFCURVE",
"423 -95 OFFCURVE",
"286 -95 CURVE SMOOTH"
);
}
);
width = 512;
},
{
associatedMasterId = m01;
layerId = "F99DA99A-7A0A-4A2A-BA91-EE8FE13A40A3";
name = "May 30, 22, 16:35";
paths = (
{
closed = 1;
nodes = (
"377 -208 OFFCURVE",
"432 -152 OFFCURVE",
"432 -50 CURVE SMOOTH",
"432 504 LINE",
"424 512 LINE",
"368 512 LINE",
"360 504 LINE",
"360 464 LINE",
"352 464 LINE",
"319 512 OFFCURVE",
"277 528 OFFCURVE",
"224 528 CURVE SMOOTH",
"135 528 OFFCURVE",
"80 472 OFFCURVE",
"80 344 CURVE SMOOTH",
"80 216 LINE SMOOTH",
"80 88 OFFCURVE",
"144 32 OFFCURVE",
"232 32 CURVE SMOOTH",
"280 32 OFFCURVE",
"325 48 OFFCURVE",
"352 91 CURVE",
"360 91 LINE",
"360 -60 LINE SMOOTH",
"360 -109 OFFCURVE",
"309 -128 OFFCURVE",
"256 -128 CURVE SMOOTH",
"185 -128 OFFCURVE",
"152 -101 OFFCURVE",
"152 -65 CURVE SMOOTH",
"152 -36 LINE",
"144 -28 LINE",
"88 -28 LINE",
"80 -36 LINE",
"80 -65 LINE SMOOTH",
"80 -156 OFFCURVE",
"139 -208 OFFCURVE",
"256 -208 CURVE SMOOTH"
);
},
{
closed = 1;
nodes = (
"331 448 OFFCURVE",
"360 408 OFFCURVE",
"360 312 CURVE SMOOTH",
"360 248 LINE SMOOTH",
"360 152 OFFCURVE",
"328 112 OFFCURVE",
"256 112 CURVE SMOOTH",
"184 112 OFFCURVE",
"152 152 OFFCURVE",
"152 248 CURVE SMOOTH",
"152 312 LINE SMOOTH",
"152 408 OFFCURVE",
"184 448 OFFCURVE",
"248 448 CURVE SMOOTH"
);
}
);
width = 512;
},
{
associatedMasterId = m01;
layerId = "8B8818E3-E5DE-4F1B-AF82-3C72EBF626D3";
name = "May 30, 22, 16:40";
paths = (
{
closed = 1;
nodes = (
"377 -208 OFFCURVE",
"432 -152 OFFCURVE",
"432 -50 CURVE SMOOTH",
"432 504 LINE",
"424 512 LINE",
"368 512 LINE",
"360 504 LINE",
"360 464 LINE",
"352 464 LINE",
"319 512 OFFCURVE",
"277 528 OFFCURVE",
"224 528 CURVE SMOOTH",
"135 528 OFFCURVE",
"80 472 OFFCURVE",
"80 344 CURVE SMOOTH",
"80 168 LINE SMOOTH",
"80 40 OFFCURVE",
"144 -16 OFFCURVE",
"232 -16 CURVE SMOOTH",
"280 -16 OFFCURVE",
"325 0 OFFCURVE",
"352 43 CURVE",
"360 43 LINE",
"360 -60 LINE SMOOTH",
"360 -109 OFFCURVE",
"309 -128 OFFCURVE",
"256 -128 CURVE",
"88 -128 LINE",
"80 -136 LINE",
"80 -200 LINE",
"88 -208 LINE",
"256 -208 LINE"
);
},
{
closed = 1;
nodes = (
"331 448 OFFCURVE",
"360 408 OFFCURVE",
"360 312 CURVE SMOOTH",
"360 200 LINE SMOOTH",
"360 104 OFFCURVE",
"328 64 OFFCURVE",
"256 64 CURVE SMOOTH",
"184 64 OFFCURVE",
"152 104 OFFCURVE",
"152 200 CURVE SMOOTH",
"152 312 LINE SMOOTH",
"152 408 OFFCURVE",
"184 448 OFFCURVE",
"248 448 CURVE SMOOTH"
);
}
);
width = 512;
}
);
unicode = 0067;
},
{
color = 5;
glyphname = h;
layers = (
{
layerId = m01;
paths = (
{
closed = 1;
nodes = (
"144 0 LINE",
"152 8 LINE",
"152 337 LINE SMOOTH",
"152 421 OFFCURVE",
"206 448 OFFCURVE",
"262 448 CURVE SMOOTH",
"318 448 OFFCURVE",
"360 421 OFFCURVE",
"360 337 CURVE SMOOTH",
"360 8 LINE",
"368 0 LINE",
"424 0 LINE",
"432 8 LINE",
"432 353 LINE SMOOTH",
"432 468 OFFCURVE",
"377 528 OFFCURVE",
"292 528 CURVE SMOOTH",
"232 528 OFFCURVE",
"195 502 OFFCURVE",
"160 456 CURVE",
"152 456 LINE",
"152 760 LINE",
"144 768 LINE",
"88 768 LINE",
"80 760 LINE",
"80 8 LINE",
"88 0 LINE"
);
}
);
width = 512;
},
{
layerId = "4FBB1917-F682-4041-B654-F2E0D2EF1242";
paths = (
{
closed = 1;
nodes = (
"136 0 LINE",
"144 8 LINE",
"144 337 LINE SMOOTH",
"144 421 OFFCURVE",
"206 448 OFFCURVE",
"262 448 CURVE SMOOTH",
"318 448 OFFCURVE",
"368 421 OFFCURVE",
"368 337 CURVE SMOOTH",
"368 8 LINE",
"376 0 LINE",
"432 0 LINE",
"440 8 LINE",
"440 353 LINE SMOOTH",
"440 468 OFFCURVE",
"377 528 OFFCURVE",
"292 528 CURVE SMOOTH",
"232 528 OFFCURVE",
"187 502 OFFCURVE",
"152 456 CURVE",
"144 456 LINE",
"144 760 LINE",
"136 768 LINE",
"80 768 LINE",
"72 760 LINE",
"72 8 LINE",
"80 0 LINE"
);
}
);
width = 512;
}
);
unicode = 0068;
},
{
color = 5;
glyphname = i;
layers = (
{
layerId = m01;
paths = (
{
closed = 1;
nodes = (
"440 0 LINE",
"448 8 LINE",
"448 72 LINE",
"440 80 LINE",
"318 80 LINE",
"310 88 LINE",
"310 504 LINE",
"302 512 LINE",
"104 512 LINE",
"96 504 LINE",
"96 440 LINE",
"104 432 LINE",
"230 432 LINE",
"238 424 LINE",
"238 88 LINE",
"230 80 LINE",
"72 80 LINE",
"64 72 LINE",
"64 8 LINE",
"72 0 LINE"
);
},
{
closed = 1;
nodes = (
"292 621 OFFCURVE",
"320 649 OFFCURVE",
"320 686 CURVE SMOOTH",
"320 722 OFFCURVE",
"292 749 OFFCURVE",
"256 749 CURVE SMOOTH",
"220 749 OFFCURVE",
"192 722 OFFCURVE",
"192 686 CURVE SMOOTH",
"192 649 OFFCURVE",
"220 621 OFFCURVE",
"256 621 CURVE SMOOTH"
);
}
);
width = 512;
},
{
layerId = "4FBB1917-F682-4041-B654-F2E0D2EF1242";
paths = (
{
closed = 1;
nodes = (
"464 0 LINE",
"472 8 LINE",
"472 72 LINE",
"464 80 LINE",
"290 80 LINE",
"282 88 LINE",
"282 504 LINE",
"274 512 LINE",
"48 512 LINE",
"40 504 LINE",
"40 440 LINE",
"48 432 LINE",
"202 432 LINE",
"210 424 LINE",
"210 88 LINE",
"202 80 LINE",
"48 80 LINE",
"40 72 LINE",
"40 8 LINE",
"48 0 LINE"
);
},
{
closed = 1;
nodes = (
"264 605 OFFCURVE",
"292 633 OFFCURVE",
"292 670 CURVE SMOOTH",
"292 706 OFFCURVE",
"264 733 OFFCURVE",
"228 733 CURVE SMOOTH",
"192 733 OFFCURVE",
"164 706 OFFCURVE",
"164 670 CURVE SMOOTH",
"164 633 OFFCURVE",
"192 605 OFFCURVE",
"228 605 CURVE SMOOTH"
);
}
);
width = 512;
}
);
unicode = 0069;
},
{
color = 5;
glyphname = j;
layers = (
{
layerId = m01;
paths = (
{
closed = 1;
nodes = (
"384 -208 OFFCURVE",
"422 -144 OFFCURVE",
"422 -31 CURVE SMOOTH",
"422 504 LINE",
"414 512 LINE",
"200 512 LINE",
"192 504 LINE",
"192 440 LINE",
"200 432 LINE",
"342 432 LINE",
"350 424 LINE",
"350 -47 LINE SMOOTH",
"350 -104 OFFCURVE",
"320 -128 OFFCURVE",
"248 -128 CURVE SMOOTH",
"160 -128 OFFCURVE",
"128 -104 OFFCURVE",
"128 -47 CURVE SMOOTH",
"128 -8 LINE",
"120 0 LINE",
"64 0 LINE",
"56 -8 LINE",
"56 -47 LINE SMOOTH",
"56 -152 OFFCURVE",
"120 -208 OFFCURVE",
"248 -208 CURVE SMOOTH"
);
},
{
closed = 1;
nodes = (
"412 621 OFFCURVE",
"440 649 OFFCURVE",
"440 686 CURVE SMOOTH",
"440 722 OFFCURVE",
"412 749 OFFCURVE",
"376 749 CURVE SMOOTH",
"340 749 OFFCURVE",
"312 722 OFFCURVE",
"312 686 CURVE SMOOTH",
"312 649 OFFCURVE",
"340 621 OFFCURVE",
"376 621 CURVE SMOOTH"
);
}
);
width = 512;
},
{
layerId = "4FBB1917-F682-4041-B654-F2E0D2EF1242";
paths = (
{
closed = 1;
nodes = (
"384 -208 OFFCURVE",
"422 -144 OFFCURVE",
"422 -31 CURVE SMOOTH",
"422 504 LINE",
"414 512 LINE",
"184 512 LINE",
"176 504 LINE",
"176 440 LINE",
"184 432 LINE",
"342 432 LINE",
"350 424 LINE",
"350 -47 LINE SMOOTH",
"350 -104 OFFCURVE",
"320 -128 OFFCURVE",
"248 -128 CURVE SMOOTH",
"160 -128 OFFCURVE",
"128 -104 OFFCURVE",
"128 -47 CURVE SMOOTH",
"128 -8 LINE",
"120 0 LINE",
"64 0 LINE",
"56 -8 LINE",
"56 -47 LINE SMOOTH",
"56 -152 OFFCURVE",
"120 -208 OFFCURVE",
"248 -208 CURVE SMOOTH"
);
},
{
closed = 1;
nodes = (
"412 605 OFFCURVE",
"440 633 OFFCURVE",
"440 670 CURVE SMOOTH",
"440 706 OFFCURVE",
"412 733 OFFCURVE",
"376 733 CURVE SMOOTH",
"340 733 OFFCURVE",
"312 706 OFFCURVE",
"312 670 CURVE SMOOTH",
"312 633 OFFCURVE",
"340 605 OFFCURVE",
"376 605 CURVE SMOOTH"
);
}
);
width = 512;
}
);
unicode = 006A;
},
{
color = 5;
glyphname = k;
layers = (
{
layerId = m01;
paths = (
{
closed = 1;
nodes = (
"144 0 LINE",
"152 8 LINE",
"152 212 LINE",
"160 220 LINE",
"213 220 LINE",
"378 8 LINE",
"390 0 LINE",
"448 0 LINE",
"456 8 LINE",
"456 16 LINE",
"274 250 LINE",
"274 266 LINE",
"438 496 LINE",
"438 504 LINE",
"430 512 LINE",
"372 512 LINE",
"361 504 LINE",
"213 300 LINE",
"160 300 LINE",
"152 308 LINE",
"152 696 LINE",
"144 704 LINE",
"88 704 LINE",
"80 696 LINE",
"80 8 LINE",
"88 0 LINE"
);
}
);
width = 512;
},
{
layerId = "4FBB1917-F682-4041-B654-F2E0D2EF1242";
paths = (
{
closed = 1;
nodes = (
"144 0 LINE",
"152 8 LINE",
"152 212 LINE",
"160 220 LINE",
"213 220 LINE",
"378 8 LINE",
"390 0 LINE",
"448 0 LINE",
"456 8 LINE",
"456 16 LINE",
"274 251 LINE",
"274 267 LINE",
"438 496 LINE",
"438 504 LINE",
"430 512 LINE",
"373 512 LINE",
"365 504 LINE",
"218 300 LINE",
"160 300 LINE",
"152 308 LINE",
"152 696 LINE",
"144 704 LINE",
"88 704 LINE",
"80 696 LINE",
"80 8 LINE",
"88 0 LINE"
);
}
);
width = 512;
}
);
unicode = 006B;
},
{
color = 5;
glyphname = l;
layers = (
{
layerId = m01;
paths = (
{
closed = 1;
nodes = (
"464 0 LINE",
"472 8 LINE",
"472 72 LINE",
"464 80 LINE",
"290 80 LINE",
"282 88 LINE",
"282 696 LINE",
"274 704 LINE",
"88 704 LINE",
"80 696 LINE",
"80 632 LINE",
"88 624 LINE",
"202 624 LINE",
"210 616 LINE",
"210 88 LINE",
"202 80 LINE",
"48 80 LINE",
"40 72 LINE",
"40 8 LINE",
"48 0 LINE"
);
}
);
width = 512;
},
{
layerId = "4FBB1917-F682-4041-B654-F2E0D2EF1242";
paths = (
{
closed = 1;
nodes = (
"464 0 LINE",
"472 8 LINE",
"472 136 LINE",
"464 144 LINE",
"322 144 LINE",
"314 152 LINE",
"314 696 LINE",
"306 704 LINE",
"48 704 LINE",
"40 696 LINE",
"40 568 LINE",
"48 560 LINE",
"178 560 LINE",
"186 552 LINE",
"186 152 LINE",
"178 144 LINE",
"48 144 LINE",
"40 136 LINE",
"40 8 LINE",
"48 0 LINE"
);
}
);
width = 512;
}
);
unicode = 006C;
},
{
color = 5;
glyphname = m;
layers = (
{
layerId = m01;
paths = (
{
closed = 1;
nodes = (
"108 0 LINE",
"116 8 LINE",
"116 366 LINE SMOOTH",
"116 421 OFFCURVE",
"136 441 OFFCURVE",
"168 441 CURVE SMOOTH",
"200 441 OFFCURVE",
"220 421 OFFCURVE",
"220 366 CURVE SMOOTH",
"220 8 LINE",
"228 0 LINE",
"284 0 LINE",
"292 8 LINE",
"292 366 LINE SMOOTH",
"292 421 OFFCURVE",
"312 441 OFFCURVE",
"344 441 CURVE SMOOTH",
"376 441 OFFCURVE",
"396 421 OFFCURVE",
"396 366 CURVE SMOOTH",
"396 0 LINE",
"468 0 LINE",
"468 389 LINE SMOOTH",
"468 481 OFFCURVE",
"451 528 OFFCURVE",
"385 528 CURVE SMOOTH",
"340 528 OFFCURVE",
"312 504 OFFCURVE",
"291 464 CURVE",
"283 464 LINE",
"267 504 OFFCURVE",
"246 528 OFFCURVE",
"211 528 CURVE SMOOTH",
"176 528 OFFCURVE",
"150 504 OFFCURVE",
"124 464 CURVE",
"116 464 LINE",
"108 504 LINE",
"100 512 LINE",
"52 512 LINE",
"44 504 LINE",
"44 8 LINE",
"52 0 LINE"
);
}
);
width = 512;
},
{
layerId = "4FBB1917-F682-4041-B654-F2E0D2EF1242";
paths = (
{
closed = 1;
nodes = (
"82 0 LINE",
"90 8 LINE",
"90 345 LINE SMOOTH",
"90 410 OFFCURVE",
"112 438 OFFCURVE",
"168 438 CURVE SMOOTH",
"207 438 OFFCURVE",
"221 402 OFFCURVE",
"221 363 CURVE SMOOTH",
"221 8 LINE",
"229 0 LINE",
"285 0 LINE",
"293 8 LINE",
"293 345 LINE SMOOTH",
"293 416 OFFCURVE",
"325 438 OFFCURVE",
"356 438 CURVE SMOOTH",
"393 438 OFFCURVE",
"424 420 OFFCURVE",
"424 363 CURVE SMOOTH",
"424 0 LINE",
"496 0 LINE",
"496 389 LINE SMOOTH",
"496 481 OFFCURVE",
"465 528 OFFCURVE",
"398 528 CURVE SMOOTH",
"357 528 OFFCURVE",
"325 495 OFFCURVE",
"308 466 CURVE",
"290 466 LINE",
"276 495 OFFCURVE",
"246 528 OFFCURVE",
"199 528 CURVE SMOOTH",
"154 528 OFFCURVE",
"123 487 OFFCURVE",
"106 458 CURVE",
"90 458 LINE",
"90 504 LINE",
"82 512 LINE",
"26 512 LINE",
"18 504 LINE",
"18 8 LINE",
"26 0 LINE"
);
}
);
width = 512;
}
);
unicode = 006D;
},
{
color = 5;
glyphname = n;
layers = (
{
layerId = m01;
paths = (
{
closed = 1;
nodes = (
"144 0 LINE",
"152 8 LINE",
"152 337 LINE SMOOTH",
"152 421 OFFCURVE",
"206 448 OFFCURVE",
"262 448 CURVE SMOOTH",
"318 448 OFFCURVE",
"360 421 OFFCURVE",
"360 337 CURVE SMOOTH",
"360 8 LINE",
"368 0 LINE",
"424 0 LINE",
"432 8 LINE",
"432 345 LINE SMOOTH",
"432 460 OFFCURVE",
"377 528 OFFCURVE",
"292 528 CURVE SMOOTH",
"232 528 OFFCURVE",
"196 512 OFFCURVE",
"160 464 CURVE",
"152 464 LINE",
"144 504 LINE",
"136 512 LINE",
"88 512 LINE",
"80 504 LINE",
"80 8 LINE",
"88 0 LINE"
);
}
);
width = 512;
},
{
layerId = "4FBB1917-F682-4041-B654-F2E0D2EF1242";
paths = (
{
closed = 1;
nodes = (
"136 0 LINE",
"144 8 LINE",
"144 329 LINE SMOOTH",
"144 413 OFFCURVE",
"206 440 OFFCURVE",
"262 440 CURVE SMOOTH",
"318 440 OFFCURVE",
"368 413 OFFCURVE",
"368 329 CURVE SMOOTH",
"368 8 LINE",
"376 0 LINE",
"432 0 LINE",
"440 8 LINE",
"440 345 LINE SMOOTH",
"440 460 OFFCURVE",
"377 520 OFFCURVE",
"292 520 CURVE SMOOTH",
"232 520 OFFCURVE",
"179 494 OFFCURVE",
"144 448 CURVE",
"136 448 LINE",
"136 504 LINE",
"128 512 LINE",
"80 512 LINE",
"72 504 LINE",
"72 8 LINE",
"80 0 LINE"
);
}
);
width = 512;
}
);
unicode = 006E;
},
{
color = 5;
glyphname = o;
layers = (
{
layerId = m01;
paths = (
{
closed = 1;
nodes = (
"360 -16 OFFCURVE",
"432 40 OFFCURVE",
"432 176 CURVE SMOOTH",
"432 336 LINE SMOOTH",
"432 472 OFFCURVE",
"360 528 OFFCURVE",
"256 528 CURVE SMOOTH",
"152 528 OFFCURVE",
"80 472 OFFCURVE",
"80 336 CURVE SMOOTH",
"80 176 LINE SMOOTH",
"80 40 OFFCURVE",
"152 -16 OFFCURVE",
"256 -16 CURVE SMOOTH"
);
},
{
closed = 1;
nodes = (
"192 64 OFFCURVE",
"152 96 OFFCURVE",
"152 192 CURVE SMOOTH",
"152 320 LINE SMOOTH",
"152 416 OFFCURVE",
"192 448 OFFCURVE",
"256 448 CURVE SMOOTH",
"320 448 OFFCURVE",
"360 416 OFFCURVE",
"360 320 CURVE SMOOTH",
"360 192 LINE SMOOTH",
"360 96 OFFCURVE",
"320 64 OFFCURVE",
"256 64 CURVE SMOOTH"
);
}
);
width = 512;
},
{
layerId = "4FBB1917-F682-4041-B654-F2E0D2EF1242";
paths = (
{
closed = 1;
nodes = (
"368 -8 OFFCURVE",
"432 48 OFFCURVE",
"432 160 CURVE SMOOTH",
"432 352 LINE SMOOTH",
"432 464 OFFCURVE",
"368 520 OFFCURVE",
"256 520 CURVE SMOOTH",
"144 520 OFFCURVE",
"80 464 OFFCURVE",
"80 352 CURVE SMOOTH",
"80 160 LINE SMOOTH",
"80 48 OFFCURVE",
"144 -8 OFFCURVE",
"256 -8 CURVE SMOOTH"
);
},
{
closed = 1;
nodes = (
"224 136 OFFCURVE",
"208 152 OFFCURVE",
"208 184 CURVE SMOOTH",
"208 328 LINE SMOOTH",
"208 360 OFFCURVE",
"224 376 OFFCURVE",
"256 376 CURVE SMOOTH",
"288 376 OFFCURVE",
"304 360 OFFCURVE",
"304 328 CURVE SMOOTH",
"304 184 LINE SMOOTH",
"304 152 OFFCURVE",
"288 136 OFFCURVE",
"256 136 CURVE SMOOTH"
);
}
);
width = 512;
}
);
unicode = 006F;
},
{
color = 5;
glyphname = p;
layers = (
{
layerId = m01;
paths = (
{
closed = 1;
nodes = (
"144 -208 LINE",
"152 -200 LINE",
"152 43 LINE",
"160 43 LINE",
"187 0 OFFCURVE",
"228 -16 OFFCURVE",
"264 -16 CURVE SMOOTH",
"368 -16 OFFCURVE",
"432 48 OFFCURVE",
"432 184 CURVE SMOOTH",
"432 328 LINE SMOOTH",
"432 464 OFFCURVE",
"368 528 OFFCURVE",
"264 528 CURVE SMOOTH",
"210 528 OFFCURVE",
"179 499 OFFCURVE",
"160 472 CURVE",
"152 472 LINE",
"144 504 LINE",
"136 512 LINE",
"88 512 LINE",
"80 504 LINE",
"80 -200 LINE",
"88 -208 LINE"
);
},
{
closed = 1;
nodes = (
"320 448 OFFCURVE",
"360 416 OFFCURVE",
"360 312 CURVE SMOOTH",
"360 200 LINE SMOOTH",
"360 104 OFFCURVE",
"336 64 OFFCURVE",
"256 64 CURVE SMOOTH",
"184 64 OFFCURVE",
"152 104 OFFCURVE",
"152 200 CURVE SMOOTH",
"152 312 LINE SMOOTH",
"152 416 OFFCURVE",
"192 448 OFFCURVE",
"256 448 CURVE SMOOTH"
);
}
);
width = 512;
},
{
layerId = "4FBB1917-F682-4041-B654-F2E0D2EF1242";
paths = (
{
closed = 1;
nodes = (
"144 -192 LINE",
"152 -184 LINE",
"152 43 LINE",
"160 43 LINE",
"185 15 OFFCURVE",
"230 -16 OFFCURVE",
"272 -16 CURVE SMOOTH",
"376 -16 OFFCURVE",
"432 48 OFFCURVE",
"432 184 CURVE SMOOTH",
"432 328 LINE SMOOTH",
"432 464 OFFCURVE",
"368 528 OFFCURVE",
"264 528 CURVE SMOOTH",
"210 528 OFFCURVE",
"179 499 OFFCURVE",
"160 472 CURVE",
"152 472 LINE",
"152 504 LINE",
"144 512 LINE",
"88 512 LINE",
"80 504 LINE",
"80 -184 LINE",
"88 -192 LINE"
);
},
{
closed = 1;
nodes = (
"328 448 OFFCURVE",
"360 408 OFFCURVE",
"360 312 CURVE SMOOTH",
"360 200 LINE SMOOTH",
"360 104 OFFCURVE",
"336 64 OFFCURVE",
"256 64 CURVE SMOOTH",
"184 64 OFFCURVE",
"152 104 OFFCURVE",
"152 200 CURVE SMOOTH",
"152 312 LINE SMOOTH",
"152 408 OFFCURVE",
"200 448 OFFCURVE",
"264 448 CURVE SMOOTH"
);
}
);
width = 512;
}
);
unicode = 0070;
},
{
color = 5;
glyphname = q;
layers = (
{
layerId = m01;
paths = (
{
closed = 1;
nodes = (
"432 -200 LINE",
"432 504 LINE",
"424 512 LINE",
"384 512 LINE",
"376 504 LINE",
"368 472 LINE",
"360 472 LINE",
"341 499 OFFCURVE",
"302 528 OFFCURVE",
"248 528 CURVE SMOOTH",
"144 528 OFFCURVE",
"80 464 OFFCURVE",
"80 328 CURVE SMOOTH",
"80 184 LINE SMOOTH",
"80 48 OFFCURVE",
"144 -16 OFFCURVE",
"248 -16 CURVE SMOOTH",
"284 -16 OFFCURVE",
"325 0 OFFCURVE",
"352 43 CURVE",
"360 43 LINE",
"360 -200 LINE",
"368 -208 LINE",
"424 -208 LINE"
);
},
{
closed = 1;
nodes = (
"320 448 OFFCURVE",
"360 416 OFFCURVE",
"360 312 CURVE SMOOTH",
"360 200 LINE SMOOTH",
"360 104 OFFCURVE",
"328 64 OFFCURVE",
"256 64 CURVE SMOOTH",
"176 64 OFFCURVE",
"152 104 OFFCURVE",
"152 200 CURVE SMOOTH",
"152 312 LINE SMOOTH",
"152 416 OFFCURVE",
"192 448 OFFCURVE",
"256 448 CURVE SMOOTH"
);
}
);
width = 512;
},
{
layerId = "4FBB1917-F682-4041-B654-F2E0D2EF1242";
paths = (
{
closed = 1;
nodes = (
"432 -200 LINE",
"432 504 LINE",
"424 512 LINE",
"384 512 LINE",
"376 504 LINE",
"368 472 LINE",
"360 472 LINE",
"341 499 OFFCURVE",
"302 528 OFFCURVE",
"248 528 CURVE SMOOTH",
"144 528 OFFCURVE",
"80 464 OFFCURVE",
"80 328 CURVE SMOOTH",
"80 184 LINE SMOOTH",
"80 48 OFFCURVE",
"144 -16 OFFCURVE",
"248 -16 CURVE SMOOTH",
"284 -16 OFFCURVE",
"325 0 OFFCURVE",
"352 43 CURVE",
"360 43 LINE",
"360 -200 LINE",
"368 -208 LINE",
"424 -208 LINE"
);
},
{
closed = 1;
nodes = (
"320 448 OFFCURVE",
"360 416 OFFCURVE",
"360 312 CURVE SMOOTH",
"360 200 LINE SMOOTH",
"360 104 OFFCURVE",
"328 64 OFFCURVE",
"256 64 CURVE SMOOTH",
"176 64 OFFCURVE",
"152 104 OFFCURVE",
"152 200 CURVE SMOOTH",
"152 312 LINE SMOOTH",
"152 416 OFFCURVE",
"192 448 OFFCURVE",
"256 448 CURVE SMOOTH"
);
}
);
width = 512;
}
);
unicode = 0071;
},
{
color = 5;
glyphname = r;
layers = (
{
layerId = m01;
paths = (
{
closed = 1;
nodes = (
"144 0 LINE",
"152 8 LINE",
"152 345 LINE SMOOTH",
"152 421 OFFCURVE",
"215 448 OFFCURVE",
"271 448 CURVE SMOOTH",
"327 448 OFFCURVE",
"376 421 OFFCURVE",
"376 345 CURVE SMOOTH",
"376 328 LINE",
"384 320 LINE",
"440 320 LINE",
"448 328 LINE",
"448 361 LINE SMOOTH",
"448 476 OFFCURVE",
"386 528 OFFCURVE",
"301 528 CURVE SMOOTH",
"241 528 OFFCURVE",
"189 512 OFFCURVE",
"152 456 CURVE",
"144 456 LINE",
"136 504 LINE",
"128 512 LINE",
"88 512 LINE",
"80 504 LINE",
"80 8 LINE",
"88 0 LINE"
);
}
);
width = 512;
},
{
layerId = "4FBB1917-F682-4041-B654-F2E0D2EF1242";
paths = (
{
closed = 1;
nodes = (
"200 0 LINE",
"208 8 LINE",
"208 305 LINE SMOOTH",
"208 357 OFFCURVE",
"223 384 OFFCURVE",
"271 384 CURVE SMOOTH",
"319 384 OFFCURVE",
"334 357 OFFCURVE",
"334 305 CURVE SMOOTH",
"334 264 LINE",
"342 256 LINE",
"454 256 LINE",
"462 264 LINE",
"462 337 LINE SMOOTH",
"462 460 OFFCURVE",
"421 520 OFFCURVE",
"336 520 CURVE SMOOTH",
"278 520 OFFCURVE",
"243 494 OFFCURVE",
"208 448 CURVE",
"200 448 LINE",
"200 504 LINE",
"192 512 LINE",
"88 512 LINE",
"80 504 LINE",
"80 8 LINE",
"88 0 LINE"
);
}
);
width = 512;
}
);
unicode = 0072;
},
{
color = 5;
glyphname = s;
layers = (
{
layerId = m01;
paths = (
{
closed = 1;
nodes = (
"352 -16 OFFCURVE",
"432 16 OFFCURVE",
"432 113 CURVE SMOOTH",
"432 201 OFFCURVE",
"408 244 OFFCURVE",
"319 275 CURVE SMOOTH",
"233 305 LINE SMOOTH",
"174 325 OFFCURVE",
"160 343 OFFCURVE",
"160 375 CURVE SMOOTH",
"160 416 OFFCURVE",
"176 448 OFFCURVE",
"256 448 CURVE SMOOTH",
"312 448 OFFCURVE",
"336 408 OFFCURVE",
"336 375 CURVE SMOOTH",
"336 358 LINE",
"344 350 LINE",
"400 350 LINE",
"408 358 LINE",
"408 391 LINE SMOOTH",
"408 456 OFFCURVE",
"360 528 OFFCURVE",
"256 528 CURVE SMOOTH",
"128 528 OFFCURVE",
"88 464 OFFCURVE",
"88 391 CURVE SMOOTH",
"88 313 OFFCURVE",
"113 269 OFFCURVE",
"184 245 CURVE SMOOTH",
"292 209 LINE SMOOTH",
"338 194 OFFCURVE",
"360 170 OFFCURVE",
"360 129 CURVE SMOOTH",
"360 88 OFFCURVE",
"344 64 OFFCURVE",
"256 64 CURVE SMOOTH",
"192 64 OFFCURVE",
"152 88 OFFCURVE",
"152 129 CURVE SMOOTH",
"152 154 LINE",
"144 162 LINE",
"88 162 LINE",
"80 154 LINE",
"80 113 LINE SMOOTH",
"80 16 OFFCURVE",
"168 -16 OFFCURVE",
"256 -16 CURVE SMOOTH"
);
}
);
width = 512;
},
{
layerId = "4FBB1917-F682-4041-B654-F2E0D2EF1242";
paths = (
{
closed = 1;
nodes = (
"352 -16 OFFCURVE",
"448 16 OFFCURVE",
"448 129 CURVE SMOOTH",
"448 233 OFFCURVE",
"381 261 OFFCURVE",
"321 275 CURVE SMOOTH",
"225 297 LINE SMOOTH",
"165 311 OFFCURVE",
"152 343 OFFCURVE",
"152 375 CURVE SMOOTH",
"152 416 OFFCURVE",
"184 448 OFFCURVE",
"264 448 CURVE SMOOTH",
"320 448 OFFCURVE",
"352 416 OFFCURVE",
"352 383 CURVE SMOOTH",
"352 358 LINE",
"360 350 LINE",
"416 350 LINE",
"424 358 LINE",
"424 399 LINE SMOOTH",
"424 464 OFFCURVE",
"368 528 OFFCURVE",
"264 528 CURVE SMOOTH",
"136 528 OFFCURVE",
"80 464 OFFCURVE",
"80 391 CURVE SMOOTH",
"80 313 OFFCURVE",
"103 256 OFFCURVE",
"176 237 CURVE SMOOTH",
"284 209 LINE SMOOTH",
"331 197 OFFCURVE",
"376 186 OFFCURVE",
"376 145 CURVE SMOOTH",
"376 63 OFFCURVE",
"304 64 OFFCURVE",
"256 64 CURVE SMOOTH",
"200 64 OFFCURVE",
"144 80 OFFCURVE",
"144 121 CURVE SMOOTH",
"144 154 LINE",
"136 162 LINE",
"80 162 LINE",
"72 154 LINE",
"72 105 LINE SMOOTH",
"72 32 OFFCURVE",
"152 -16 OFFCURVE",
"256 -16 CURVE SMOOTH"
);
}
);
width = 512;
}
);
unicode = 0073;
},
{
color = 5;
glyphname = t;
layers = (
{
layerId = m01;
paths = (
{
closed = 1;
nodes = (
"441 0 LINE",
"449 8 LINE",
"450 72 LINE",
"442 80 LINE",
"335 80 LINE SMOOTH",
"288 80 OFFCURVE",
"274 105 OFFCURVE",
"274 181 CURVE SMOOTH",
"274 424 LINE",
"282 432 LINE",
"442 432 LINE",
"450 440 LINE",
"450 504 LINE",
"442 512 LINE",
"282 512 LINE",
"274 520 LINE",
"274 624 LINE",
"266 632 LINE",
"210 632 LINE",
"202 624 LINE",
"202 520 LINE",
"194 512 LINE",
"80 512 LINE",
"72 504 LINE",
"72 440 LINE",
"80 432 LINE",
"194 432 LINE",
"202 424 LINE",
"202 149 LINE SMOOTH",
"202 33 OFFCURVE",
"246 0 OFFCURVE",
"319 0 CURVE SMOOTH"
);
}
);
width = 512;
},
{
layerId = "4FBB1917-F682-4041-B654-F2E0D2EF1242";
paths = (
{
closed = 1;
nodes = (
"392 0 LINE",
"400 8 LINE",
"401 72 LINE",
"393 80 LINE",
"343 80 LINE SMOOTH",
"288 80 OFFCURVE",
"282 117 OFFCURVE",
"282 193 CURVE SMOOTH",
"282 424 LINE",
"290 432 LINE",
"442 432 LINE",
"450 440 LINE",
"450 504 LINE",
"442 512 LINE",
"290 512 LINE",
"282 520 LINE",
"282 640 LINE",
"274 648 LINE",
"218 648 LINE",
"210 640 LINE",
"210 520 LINE",
"202 512 LINE",
"103 512 LINE",
"95 504 LINE",
"95 440 LINE",
"103 432 LINE",
"202 432 LINE",
"210 424 LINE",
"210 181 LINE SMOOTH",
"210 65 OFFCURVE",
"222 0 OFFCURVE",
"343 0 CURVE SMOOTH"
);
}
);
width = 512;
}
);
unicode = 0074;
},
{
color = 5;
glyphname = u;
layers = (
{
layerId = m01;
paths = (
{
closed = 1;
nodes = (
"368 512 LINE",
"360 504 LINE",
"360 167 LINE SMOOTH",
"360 91 OFFCURVE",
"306 64 OFFCURVE",
"250 64 CURVE SMOOTH",
"194 64 OFFCURVE",
"152 91 OFFCURVE",
"152 167 CURVE SMOOTH",
"152 504 LINE",
"144 512 LINE",
"88 512 LINE",
"80 504 LINE",
"80 151 LINE SMOOTH",
"80 36 OFFCURVE",
"135 -16 OFFCURVE",
"220 -16 CURVE SMOOTH",
"280 -16 OFFCURVE",
"317 0 OFFCURVE",
"352 48 CURVE",
"360 48 LINE",
"368 8 LINE",
"376 0 LINE",
"424 0 LINE",
"432 8 LINE",
"432 504 LINE",
"424 512 LINE"
);
}
);
width = 512;
},
{
layerId = "4FBB1917-F682-4041-B654-F2E0D2EF1242";
paths = (
{
closed = 1;
nodes = (
"376 512 LINE",
"368 504 LINE",
"368 167 LINE SMOOTH",
"368 83 OFFCURVE",
"306 64 OFFCURVE",
"250 64 CURVE SMOOTH",
"194 64 OFFCURVE",
"144 83 OFFCURVE",
"144 167 CURVE SMOOTH",
"144 504 LINE",
"136 512 LINE",
"80 512 LINE",
"72 504 LINE",
"72 151 LINE SMOOTH",
"72 36 OFFCURVE",
"135 -16 OFFCURVE",
"220 -16 CURVE SMOOTH",
"280 -16 OFFCURVE",
"333 18 OFFCURVE",
"368 64 CURVE",
"376 64 LINE",
"376 8 LINE",
"384 0 LINE",
"432 0 LINE",
"440 8 LINE",
"440 504 LINE",
"432 512 LINE"
);
}
);
width = 512;
}
);
unicode = 0075;
},
{
color = 5;
glyphname = v;
layers = (
{
layerId = m01;
paths = (
{
closed = 1;
nodes = (
"312 0 LINE",
"320 8 LINE",
"456 496 LINE",
"456 504 LINE",
"448 512 LINE",
"392 512 LINE",
"384 504 LINE",
"272 80 LINE",
"240 80 LINE",
"128 504 LINE",
"120 512 LINE",
"64 512 LINE",
"56 504 LINE",
"56 496 LINE",
"192 8 LINE",
"200 0 LINE"
);
}
);
width = 512;
},
{
layerId = "4FBB1917-F682-4041-B654-F2E0D2EF1242";
paths = (
{
closed = 1;
nodes = (
"320 0 LINE",
"328 8 LINE",
"456 496 LINE",
"456 504 LINE",
"448 512 LINE",
"384 512 LINE",
"376 504 LINE",
"264 80 LINE",
"248 80 LINE",
"136 504 LINE",
"128 512 LINE",
"64 512 LINE",
"56 504 LINE",
"56 496 LINE",
"184 8 LINE",
"192 0 LINE"
);
}
);
width = 512;
}
);
unicode = 0076;
},
{
color = 5;
glyphname = w;
layers = (
{
layerId = m01;
paths = (
{
closed = 1;
nodes = (
"195 0 LINE",
"203 8 LINE",
"248 310 LINE",
"264 310 LINE",
"309 8 LINE",
"317 0 LINE",
"413 0 LINE",
"421 8 LINE",
"488 496 LINE",
"488 504 LINE",
"480 512 LINE",
"422 512 LINE",
"414 504 LINE",
"366 80 LINE",
"350 80 LINE",
"296 408 LINE",
"288 416 LINE",
"224 416 LINE",
"216 408 LINE",
"162 80 LINE",
"146 80 LINE",
"98 504 LINE",
"90 512 LINE",
"32 512 LINE",
"24 504 LINE",
"24 496 LINE",
"91 8 LINE",
"99 0 LINE"
);
}
);
width = 512;
},
{
layerId = "4FBB1917-F682-4041-B654-F2E0D2EF1242";
paths = (
{
closed = 1;
nodes = (
"179 0 LINE",
"187 8 LINE",
"248 182 LINE",
"264 182 LINE",
"325 8 LINE",
"333 0 LINE",
"429 0 LINE",
"437 8 LINE",
"495 504 LINE",
"487 512 LINE",
"427 512 LINE",
"419 504 LINE",
"382 102 LINE",
"366 102 LINE",
"296 312 LINE",
"288 320 LINE",
"224 320 LINE",
"216 312 LINE",
"146 102 LINE",
"130 102 LINE",
"93 496 LINE",
"93 504 LINE",
"85 512 LINE",
"25 512 LINE",
"17 504 LINE",
"17 496 LINE",
"75 8 LINE",
"83 0 LINE"
);
}
);
width = 512;
}
);
unicode = 0077;
},
{
color = 5;
glyphname = x;
layers = (
{
layerId = m01;
paths = (
{
closed = 1;
nodes = (
"120 0 LINE",
"128 8 LINE",
"248 195 LINE",
"264 195 LINE",
"384 8 LINE",
"392 0 LINE",
"456 0 LINE",
"464 8 LINE",
"464 16 LINE",
"312 256 LINE",
"312 264 LINE",
"464 496 LINE",
"464 504 LINE",
"456 512 LINE",
"392 512 LINE",
"384 504 LINE",
"264 317 LINE",
"248 317 LINE",
"128 504 LINE",
"120 512 LINE",
"56 512 LINE",
"48 504 LINE",
"48 496 LINE",
"200 264 LINE",
"200 256 LINE",
"48 16 LINE",
"48 8 LINE",
"56 0 LINE"
);
}
);
width = 512;
},
{
layerId = "4FBB1917-F682-4041-B654-F2E0D2EF1242";
paths = (
{
closed = 1;
nodes = (
"120 0 LINE",
"128 8 LINE",
"248 200 LINE",
"264 200 LINE",
"384 8 LINE",
"392 0 LINE",
"456 0 LINE",
"464 8 LINE",
"464 16 LINE",
"312 256 LINE",
"312 264 LINE",
"464 496 LINE",
"464 504 LINE",
"456 512 LINE",
"392 512 LINE",
"384 504 LINE",
"264 312 LINE",
"248 312 LINE",
"128 504 LINE",
"120 512 LINE",
"56 512 LINE",
"48 504 LINE",
"48 496 LINE",
"200 264 LINE",
"200 256 LINE",
"48 16 LINE",
"48 8 LINE",
"56 0 LINE"
);
}
);
width = 512;
}
);
unicode = 0078;
},
{
color = 5;
glyphname = y;
layers = (
{
layerId = m01;
paths = (
{
closed = 1;
nodes = (
"250 0 LINE",
"250 -8 LINE",
"232 -67 LINE SMOOTH",
"218 -113 OFFCURVE",
"177 -128 OFFCURVE",
"141 -128 CURVE SMOOTH",
"86 -128 LINE",
"78 -136 LINE",
"78 -200 LINE",
"86 -208 LINE",
"149 -208 LINE SMOOTH",
"242 -208 OFFCURVE",
"269 -172 OFFCURVE",
"282 -124 CURVE SMOOTH",
"456 496 LINE",
"456 504 LINE",
"448 512 LINE",
"392 512 LINE",
"384 504 LINE",
"272 80 LINE",
"240 80 LINE",
"128 504 LINE",
"120 512 LINE",
"64 512 LINE",
"56 504 LINE",
"56 496 LINE",
"192 8 LINE",
"200 0 LINE"
);
}
);
width = 512;
},
{
layerId = "4FBB1917-F682-4041-B654-F2E0D2EF1242";
paths = (
{
closed = 1;
nodes = (
"250 0 LINE",
"250 -8 LINE",
"232 -67 LINE SMOOTH",
"218 -113 OFFCURVE",
"177 -128 OFFCURVE",
"141 -128 CURVE SMOOTH",
"86 -128 LINE",
"78 -136 LINE",
"78 -200 LINE",
"86 -208 LINE",
"149 -208 LINE SMOOTH",
"242 -208 OFFCURVE",
"269 -172 OFFCURVE",
"282 -124 CURVE SMOOTH",
"456 496 LINE",
"456 504 LINE",
"448 512 LINE",
"392 512 LINE",
"384 504 LINE",
"272 80 LINE",
"240 80 LINE",
"128 504 LINE",
"120 512 LINE",
"64 512 LINE",
"56 504 LINE",
"56 496 LINE",
"192 8 LINE",
"200 0 LINE"
);
}
);
width = 512;
},
{
associatedMasterId = m01;
layerId = "10F54978-4A74-4793-A9CA-1A3E65A0BD43";
name = "May 30, 22, 19:52";
paths = (
{
closed = 1;
nodes = (
"312 0 LINE",
"320 8 LINE",
"456 496 LINE",
"456 504 LINE",
"448 512 LINE",
"392 512 LINE",
"384 504 LINE",
"272 80 LINE",
"240 80 LINE",
"128 504 LINE",
"120 512 LINE",
"64 512 LINE",
"56 504 LINE",
"56 496 LINE",
"192 8 LINE",
"200 0 LINE"
);
}
);
visible = 1;
width = 512;
}
);
unicode = 0079;
},
{
color = 5;
glyphname = z;
layers = (
{
layerId = m01;
paths = (
{
closed = 1;
nodes = (
"424 0 LINE",
"432 8 LINE",
"432 72 LINE",
"424 80 LINE",
"174 80 LINE",
"174 88 LINE",
"432 432 LINE",
"432 504 LINE",
"424 512 LINE",
"88 512 LINE",
"80 504 LINE",
"80 440 LINE",
"88 432 LINE",
"343 432 LINE",
"343 424 LINE",
"80 80 LINE",
"80 8 LINE",
"88 0 LINE"
);
}
);
width = 512;
},
{
layerId = "4FBB1917-F682-4041-B654-F2E0D2EF1242";
paths = (
{
closed = 1;
nodes = (
"432 0 LINE",
"440 8 LINE",
"440 72 LINE",
"432 80 LINE",
"166 80 LINE",
"158 88 LINE",
"440 432 LINE",
"440 504 LINE",
"432 512 LINE",
"80 512 LINE",
"72 504 LINE",
"72 440 LINE",
"80 432 LINE",
"351 432 LINE",
"359 424 LINE",
"72 80 LINE",
"72 8 LINE",
"80 0 LINE"
);
}
);
width = 512;
}
);
unicode = 007A;
},
{
color = 5;
glyphname = ordfeminine;
layers = (
{
layerId = m01;
paths = (
{
closed = 1;
nodes = (
"215 416 OFFCURVE",
"191 425 OFFCURVE",
"191 463 CURVE SMOOTH",
"191 512 OFFCURVE",
"217 527 OFFCURVE",
"261 527 CURVE SMOOTH",
"298 527 LINE",
"303 522 LINE",
"303 448 LINE",
"284 423 OFFCURVE",
"261 416 OFFCURVE",
"239 416 CURVE SMOOTH"
);
},
{
closed = 1;
nodes = (
"263 364 OFFCURVE",
"288 379 OFFCURVE",
"306 402 CURVE",
"311 402 LINE",
"316 377 OFFCURVE",
"343 374 OFFCURVE",
"364 374 CURVE",
"379 374 LINE",
"385 379 LINE",
"385 422 LINE",
"379 427 LINE",
"370 427 LINE SMOOTH",
"356 427 OFFCURVE",
"351 438 OFFCURVE",
"351 459 CURVE SMOOTH",
"351 617 LINE SMOOTH",
"351 684 OFFCURVE",
"332 720 OFFCURVE",
"253 720 CURVE SMOOTH",
"202 720 OFFCURVE",
"161 699 OFFCURVE",
"161 636 CURVE SMOOTH",
"161 618 LINE",
"166 613 LINE",
"203 613 LINE",
"208 618 LINE",
"208 637 LINE SMOOTH",
"208 661 OFFCURVE",
"226 668 OFFCURVE",
"253 668 CURVE SMOOTH",
"288 668 OFFCURVE",
"303 656 OFFCURVE",
"303 623 CURVE SMOOTH",
"303 579 LINE",
"298 574 LINE",
"252 574 LINE SMOOTH",
"188 574 OFFCURVE",
"143 547 OFFCURVE",
"143 463 CURVE SMOOTH",
"143 396 OFFCURVE",
"187 364 OFFCURVE",
"234 364 CURVE SMOOTH"
);
}
);
width = 512;
},
{
layerId = "4FBB1917-F682-4041-B654-F2E0D2EF1242";
paths = (
{
closed = 1;
nodes = (
"215 416 OFFCURVE",
"191 425 OFFCURVE",
"191 463 CURVE SMOOTH",
"191 512 OFFCURVE",
"217 527 OFFCURVE",
"261 527 CURVE SMOOTH",
"298 527 LINE",
"303 522 LINE",
"303 448 LINE",
"284 423 OFFCURVE",
"261 416 OFFCURVE",
"239 416 CURVE SMOOTH"
);
},
{
closed = 1;
nodes = (
"263 364 OFFCURVE",
"288 379 OFFCURVE",
"306 402 CURVE",
"311 402 LINE",
"316 377 OFFCURVE",
"343 374 OFFCURVE",
"364 374 CURVE",
"379 374 LINE",
"385 379 LINE",
"385 422 LINE",
"379 427 LINE",
"370 427 LINE SMOOTH",
"356 427 OFFCURVE",
"351 438 OFFCURVE",
"351 459 CURVE SMOOTH",
"351 617 LINE SMOOTH",
"351 684 OFFCURVE",
"332 720 OFFCURVE",
"253 720 CURVE SMOOTH",
"202 720 OFFCURVE",
"161 699 OFFCURVE",
"161 636 CURVE SMOOTH",
"161 618 LINE",
"166 613 LINE",
"203 613 LINE",
"208 618 LINE",
"208 637 LINE SMOOTH",
"208 661 OFFCURVE",
"226 668 OFFCURVE",
"253 668 CURVE SMOOTH",
"288 668 OFFCURVE",
"303 656 OFFCURVE",
"303 623 CURVE SMOOTH",
"303 579 LINE",
"298 574 LINE",
"252 574 LINE SMOOTH",
"188 574 OFFCURVE",
"143 547 OFFCURVE",
"143 463 CURVE SMOOTH",
"143 396 OFFCURVE",
"187 364 OFFCURVE",
"234 364 CURVE SMOOTH"
);
}
);
width = 512;
}
);
unicode = 00AA;
},
{
glyphname = "hamza-ar";
layers = (
{
layerId = m01;
paths = (
{
closed = 1;
nodes = (
"121 274 LINE",
"230 316 LINE",
"137 345 LINE",
"115 412 LINE",
"199 469 LINE",
"360 446 LINE",
"323 395 LINE",
"245 415 LINE",
"196 406 LINE",
"267 330 LINE",
"337 341 LINE",
"360 288 LINE",
"157 214 LINE"
);
}
);
width = 512;
},
{
layerId = "4FBB1917-F682-4041-B654-F2E0D2EF1242";
paths = (
{
closed = 1;
nodes = (
"121 274 LINE",
"230 316 LINE",
"137 345 LINE",
"115 412 LINE",
"199 469 LINE",
"360 451 LINE",
"323 395 LINE",
"245 415 LINE",
"196 406 LINE",
"267 330 LINE",
"337 341 LINE",
"360 288 LINE",
"157 214 LINE"
);
}
);
width = 512;
}
);
unicode = 0621;
},
{
glyphname = "alef-ar";
layers = (
{
anchors = (
{
name = bottom;
position = "{166, 0}";
},
{
name = top;
position = "{169, 768}";
}
);
layerId = m01;
paths = (
{
closed = 1;
nodes = (
"192 0 LINE",
"200 8 LINE",
"200 760 LINE",
"192 768 LINE",
"136 768 LINE",
"128 760 LINE",
"128 8 LINE",
"136 0 LINE"
);
}
);
width = 512;
},
{
anchors = (
{
name = bottom;
position = "{166, 0}";
},
{
name = top;
position = "{169, 768}";
}
);
layerId = "4FBB1917-F682-4041-B654-F2E0D2EF1242";
paths = (
{
closed = 1;
nodes = (
"192 0 LINE",
"200 8 LINE",
"200 760 LINE",
"192 768 LINE",
"136 768 LINE",
"128 760 LINE",
"128 8 LINE",
"136 0 LINE"
);
}
);
width = 512;
}
);
unicode = 0627;
},
{
glyphname = "alef-ar.fina";
layers = (
{
anchors = (
{
name = bottom;
position = "{300, 0}";
},
{
name = top;
position = "{240, 768}";
}
);
layerId = m01;
paths = (
{
closed = 1;
nodes = (
"512 0 LINE",
"512 96 LINE",
"320 96 LINE SMOOTH",
"288 96 OFFCURVE",
"280 104 OFFCURVE",
"280 136 CURVE SMOOTH",
"280 704 LINE",
"200 704 LINE",
"200 96 LINE SMOOTH",
"200 40 OFFCURVE",
"216 0 OFFCURVE",
"280 0 CURVE SMOOTH"
);
}
);
width = 512;
},
{
anchors = (
{
name = bottom;
position = "{300, 0}";
},
{
name = top;
position = "{240, 768}";
}
);
layerId = "4FBB1917-F682-4041-B654-F2E0D2EF1242";
paths = (
{
closed = 1;
nodes = (
"512 0 LINE",
"512 96 LINE",
"320 96 LINE SMOOTH",
"288 96 OFFCURVE",
"280 104 OFFCURVE",
"280 136 CURVE SMOOTH",
"280 704 LINE",
"200 704 LINE",
"200 96 LINE SMOOTH",
"200 40 OFFCURVE",
"216 0 OFFCURVE",
"280 0 CURVE SMOOTH"
);
}
);
width = 512;
}
);
},
{
glyphname = "behDotless-ar";
layers = (
{
anchors = (
{
name = bottom;
position = "{304, 0}";
},
{
name = top;
position = "{312, 247}";
}
);
layerId = m01;
paths = (
{
closed = 1;
nodes = (
"480 0 LINE SMOOTH",
"544 0 OFFCURVE",
"560 40 OFFCURVE",
"560 96 CURVE SMOOTH",
"560 224 LINE",
"552 232 LINE",
"488 232 LINE",
"480 224 LINE",
"480 136 LINE SMOOTH",
"480 104 OFFCURVE",
"472 96 OFFCURVE",
"440 96 CURVE SMOOTH",
"160 96 LINE SMOOTH",
"128 96 OFFCURVE",
"120 104 OFFCURVE",
"120 136 CURVE SMOOTH",
"120 224 LINE",
"112 232 LINE",
"48 232 LINE",
"40 224 LINE",
"40 96 LINE SMOOTH",
"40 40 OFFCURVE",
"56 0 OFFCURVE",
"120 0 CURVE SMOOTH"
);
}
);
width = 512;
},
{
anchors = (
{
name = bottom;
position = "{306, 0}";
},
{
name = top;
position = "{310, 312}";
}
);
layerId = "4FBB1917-F682-4041-B654-F2E0D2EF1242";
paths = (
{
closed = 1;
nodes = (
"496 0 LINE SMOOTH",
"560 0 OFFCURVE",
"576 40 OFFCURVE",
"576 96 CURVE SMOOTH",
"576 280 LINE",
"568 288 LINE",
"456 288 LINE",
"448 280 LINE",
"448 248 LINE SMOOTH",
"448 216 OFFCURVE",
"440 208 OFFCURVE",
"408 208 CURVE SMOOTH",
"192 208 LINE SMOOTH",
"160 208 OFFCURVE",
"152 216 OFFCURVE",
"152 248 CURVE SMOOTH",
"152 280 LINE",
"144 288 LINE",
"32 288 LINE",
"24 280 LINE",
"24 96 LINE SMOOTH",
"24 40 OFFCURVE",
"40 0 OFFCURVE",
"104 0 CURVE SMOOTH"
);
}
);
width = 600;
}
);
unicode = 066E;
},
{
glyphname = "behDotless-ar.fina";
layers = (
{
anchors = (
{
name = bottom;
position = "{304, 0}";
},
{
name = top;
position = "{304, 247}";
}
);
layerId = m01;
paths = (
{
closed = 1;
nodes = (
"480 0 LINE SMOOTH",
"496 0 OFFCURVE",
"510 11 OFFCURVE",
"520 23 CURVE",
"529 11 OFFCURVE",
"568 0 OFFCURVE",
"600 0 CURVE",
"600 96 LINE",
"568 96 OFFCURVE",
"560 104 OFFCURVE",
"560 136 CURVE SMOOTH",
"560 232 LINE",
"480 232 LINE",
"480 136 LINE SMOOTH",
"480 104 OFFCURVE",
"472 96 OFFCURVE",
"440 96 CURVE SMOOTH",
"160 96 LINE SMOOTH",
"128 96 OFFCURVE",
"120 104 OFFCURVE",
"120 136 CURVE SMOOTH",
"120 232 LINE",
"40 232 LINE",
"40 96 LINE SMOOTH",
"40 40 OFFCURVE",
"56 0 OFFCURVE",
"120 0 CURVE SMOOTH"
);
}
);
width = 512;
},
{
anchors = (
{
name = bottom;
position = "{304, 0}";
},
{
name = top;
position = "{304, 247}";
}
);
layerId = "4FBB1917-F682-4041-B654-F2E0D2EF1242";
paths = (
{
closed = 1;
nodes = (
"480 0 LINE SMOOTH",
"496 0 OFFCURVE",
"510 11 OFFCURVE",
"520 23 CURVE",
"529 11 OFFCURVE",
"568 0 OFFCURVE",
"600 0 CURVE",
"600 96 LINE",
"568 96 OFFCURVE",
"560 104 OFFCURVE",
"560 136 CURVE SMOOTH",
"560 232 LINE",
"480 232 LINE",
"480 136 LINE SMOOTH",
"480 104 OFFCURVE",
"472 96 OFFCURVE",
"440 96 CURVE SMOOTH",
"160 96 LINE SMOOTH",
"128 96 OFFCURVE",
"120 104 OFFCURVE",
"120 136 CURVE SMOOTH",
"120 232 LINE",
"40 232 LINE",
"40 96 LINE SMOOTH",
"40 40 OFFCURVE",
"56 0 OFFCURVE",
"120 0 CURVE SMOOTH"
);
}
);
width = 600;
}
);
},
{
glyphname = "behDotless-ar.medi";
layers = (
{
anchors = (
{
name = bottom;
position = "{261, 0}";
},
{
name = top;
position = "{261, 240}";
}
);
layerId = m01;
paths = (
{
closed = 1;
nodes = (
"488 0 LINE",
"496 8 LINE",
"496 71 LINE",
"488 80 LINE",
"320 80 LINE SMOOTH",
"304 80 OFFCURVE",
"296 88 OFFCURVE",
"296 104 CURVE SMOOTH",
"296 232 LINE",
"288 240 LINE",
"232 240 LINE",
"224 232 LINE",
"224 104 LINE SMOOTH",
"224 88 OFFCURVE",
"216 80 OFFCURVE",
"200 80 CURVE SMOOTH",
"24 80 LINE",
"16 72 LINE",
"16 8 LINE",
"24 0 LINE"
);
}
);
width = 512;
},
{
anchors = (
{
name = bottom;
position = "{261, 0}";
},
{
name = top;
position = "{261, 304}";
}
);
layerId = "4FBB1917-F682-4041-B654-F2E0D2EF1242";
paths = (
{
closed = 1;
nodes = (
"488 0 LINE",
"496 8 LINE",
"496 135 LINE",
"488 144 LINE",
"348 144 LINE SMOOTH",
"332 144 OFFCURVE",
"324 152 OFFCURVE",
"324 168 CURVE SMOOTH",
"324 296 LINE",
"316 304 LINE",
"204 304 LINE",
"196 296 LINE",
"196 168 LINE SMOOTH",
"196 152 OFFCURVE",
"188 144 OFFCURVE",
"172 144 CURVE SMOOTH",
"24 144 LINE",
"16 136 LINE",
"16 8 LINE",
"24 0 LINE"
);
}
);
width = 512;
}
);
},
{
glyphname = "behDotless-ar.init";
layers = (
{
anchors = (
{
name = bottom;
position = "{256, 0}";
},
{
name = top;
position = "{264, 247}";
}
);
layerId = m01;
paths = (
{
closed = 1;
nodes = (
"480 0 LINE SMOOTH",
"544 0 OFFCURVE",
"560 40 OFFCURVE",
"560 96 CURVE SMOOTH",
"560 232 LINE",
"480 232 LINE",
"480 136 LINE SMOOTH",
"480 104 OFFCURVE",
"472 96 OFFCURVE",
"440 96 CURVE SMOOTH",
"0 96 LINE",
"0 0 LINE"
);
}
);
width = 512;
},
{
anchors = (
{
name = bottom;
position = "{256, 0}";
},
{
name = top;
position = "{264, 247}";
}
);
layerId = "4FBB1917-F682-4041-B654-F2E0D2EF1242";
paths = (
{
closed = 1;
nodes = (
"480 0 LINE SMOOTH",
"544 0 OFFCURVE",
"560 40 OFFCURVE",
"560 96 CURVE SMOOTH",
"560 232 LINE",
"480 232 LINE",
"480 136 LINE SMOOTH",
"480 104 OFFCURVE",
"472 96 OFFCURVE",
"440 96 CURVE SMOOTH",
"0 96 LINE",
"0 0 LINE"
);
}
);
width = 600;
}
);
},
{
glyphname = "hah-ar";
layers = (
{
layerId = m01;
paths = (
{
closed = 1;
nodes = (
"120 0 OFFCURVE",
"429 136 OFFCURVE",
"576 136 CURVE",
"576 232 LINE",
"429 232 OFFCURVE",
"283 328 OFFCURVE",
"136 328 CURVE",
"136 232 LINE",
"216 232 OFFCURVE",
"296 211 OFFCURVE",
"375 191 CURVE",
"242 151 OFFCURVE",
"12 45 OFFCURVE",
"12 -53 CURVE SMOOTH",
"12 -256 OFFCURVE",
"188 -289 OFFCURVE",
"470 -256 CURVE",
"470 -180 LINE",
"211 -188 OFFCURVE",
"120 -133 OFFCURVE",
"120 -71 CURVE SMOOTH"
);
}
);
width = 512;
},
{
layerId = "4FBB1917-F682-4041-B654-F2E0D2EF1242";
paths = (
{
closed = 1;
nodes = (
"120 0 OFFCURVE",
"429 136 OFFCURVE",
"576 136 CURVE",
"576 232 LINE",
"429 232 OFFCURVE",
"283 328 OFFCURVE",
"136 328 CURVE",
"136 232 LINE",
"216 232 OFFCURVE",
"296 211 OFFCURVE",
"375 191 CURVE",
"242 151 OFFCURVE",
"12 45 OFFCURVE",
"12 -53 CURVE SMOOTH",
"12 -256 OFFCURVE",
"188 -289 OFFCURVE",
"470 -256 CURVE",
"470 -180 LINE",
"211 -188 OFFCURVE",
"120 -133 OFFCURVE",
"120 -71 CURVE SMOOTH"
);
}
);
width = 600;
}
);
unicode = 062D;
},
{
glyphname = "hah-ar.init";
layers = (
{
anchors = (
{
name = bottom;
position = "{344, 0}";
},
{
name = top;
position = "{363, 347}";
}
);
layerId = m01;
paths = (
{
closed = 1;
nodes = (
"147 0 OFFCURVE",
"429 136 OFFCURVE",
"576 136 CURVE",
"576 232 LINE",
"429 232 OFFCURVE",
"283 328 OFFCURVE",
"136 328 CURVE",
"136 232 LINE",
"216 232 OFFCURVE",
"296 211 OFFCURVE",
"375 191 CURVE",
"242 151 OFFCURVE",
"94 96 OFFCURVE",
"0 96 CURVE",
"0 0 LINE"
);
}
);
width = 512;
},
{
anchors = (
{
name = bottom;
position = "{344, 0}";
},
{
name = top;
position = "{363, 347}";
}
);
layerId = "4FBB1917-F682-4041-B654-F2E0D2EF1242";
paths = (
{
closed = 1;
nodes = (
"147 0 OFFCURVE",
"429 136 OFFCURVE",
"576 136 CURVE",
"576 232 LINE",
"429 232 OFFCURVE",
"283 328 OFFCURVE",
"136 328 CURVE",
"136 232 LINE",
"216 232 OFFCURVE",
"296 211 OFFCURVE",
"375 191 CURVE",
"242 151 OFFCURVE",
"94 96 OFFCURVE",
"0 96 CURVE",
"0 0 LINE"
);
}
);
width = 600;
}
);
},
{
glyphname = "dal-ar";
layers = (
{
layerId = m01;
paths = (
{
closed = 1;
nodes = (
"488 0 LINE",
"496 8 LINE",
"496 71 LINE",
"488 80 LINE",
"440 80 LINE SMOOTH",
"424 80 OFFCURVE",
"416 88 OFFCURVE",
"416 104 CURVE SMOOTH",
"416 224 LINE",
"408 232 LINE",
"352 232 LINE",
"344 224 LINE",
"344 104 LINE SMOOTH",
"344 88 OFFCURVE",
"336 80 OFFCURVE",
"320 80 CURVE SMOOTH",
"192 80 LINE",
"184 72 LINE",
"184 8 LINE",
"192 0 LINE"
);
}
);
width = 512;
},
{
layerId = "4FBB1917-F682-4041-B654-F2E0D2EF1242";
paths = (
{
closed = 1;
nodes = (
"488 0 LINE",
"496 8 LINE",
"496 71 LINE",
"488 80 LINE",
"440 80 LINE SMOOTH",
"424 80 OFFCURVE",
"416 88 OFFCURVE",
"416 104 CURVE SMOOTH",
"416 224 LINE",
"408 232 LINE",
"352 232 LINE",
"344 224 LINE",
"344 104 LINE SMOOTH",
"344 88 OFFCURVE",
"336 80 OFFCURVE",
"320 80 CURVE SMOOTH",
"192 80 LINE",
"184 72 LINE",
"184 8 LINE",
"192 0 LINE"
);
}
);
width = 600;
}
);
unicode = 062F;
},
{
glyphname = "seen-ar";
layers = (
{
anchors = (
{
name = top;
position = "{401, 250}";
}
);
layerId = m01;
paths = (
{
closed = 1;
nodes = (
"488 0 LINE SMOOTH",
"552 0 OFFCURVE",
"568 40 OFFCURVE",
"568 96 CURVE SMOOTH",
"568 232 LINE",
"488 232 LINE",
"488 136 LINE SMOOTH",
"488 104 OFFCURVE",
"480 96 OFFCURVE",
"460 96 CURVE SMOOTH",
"440 96 OFFCURVE",
"432 104 OFFCURVE",
"432 136 CURVE SMOOTH",
"432 232 LINE",
"352 232 LINE",
"352 136 LINE SMOOTH",
"352 104 OFFCURVE",
"344 96 OFFCURVE",
"324 96 CURVE SMOOTH",
"304 96 OFFCURVE",
"296 104 OFFCURVE",
"296 136 CURVE SMOOTH",
"296 232 LINE",
"216 232 LINE",
"216 -120 LINE SMOOTH",
"216 -152 OFFCURVE",
"208 -160 OFFCURVE",
"176 -160 CURVE SMOOTH",
"136 -160 LINE SMOOTH",
"104 -160 OFFCURVE",
"96 -152 OFFCURVE",
"96 -120 CURVE SMOOTH",
"96 -24 LINE",
"16 -24 LINE",
"16 -160 LINE SMOOTH",
"16 -216 OFFCURVE",
"32 -256 OFFCURVE",
"96 -256 CURVE SMOOTH",
"216 -256 LINE SMOOTH",
"280 -256 OFFCURVE",
"296 -216 OFFCURVE",
"296 -160 CURVE SMOOTH",
"296 0 LINE"
);
}
);
width = 512;
},
{
anchors = (
{
name = top;
position = "{401, 250}";
}
);
layerId = "4FBB1917-F682-4041-B654-F2E0D2EF1242";
paths = (
{
closed = 1;
nodes = (
"488 0 LINE SMOOTH",
"552 0 OFFCURVE",
"568 40 OFFCURVE",
"568 96 CURVE SMOOTH",
"568 232 LINE",
"488 232 LINE",
"488 136 LINE SMOOTH",
"488 104 OFFCURVE",
"480 96 OFFCURVE",
"460 96 CURVE SMOOTH",
"440 96 OFFCURVE",
"432 104 OFFCURVE",
"432 136 CURVE SMOOTH",
"432 232 LINE",
"352 232 LINE",
"352 136 LINE SMOOTH",
"352 104 OFFCURVE",
"344 96 OFFCURVE",
"324 96 CURVE SMOOTH",
"304 96 OFFCURVE",
"296 104 OFFCURVE",
"296 136 CURVE SMOOTH",
"296 232 LINE",
"216 232 LINE",
"216 -120 LINE SMOOTH",
"216 -152 OFFCURVE",
"208 -160 OFFCURVE",
"176 -160 CURVE SMOOTH",
"136 -160 LINE SMOOTH",
"104 -160 OFFCURVE",
"96 -152 OFFCURVE",
"96 -120 CURVE SMOOTH",
"96 -24 LINE",
"16 -24 LINE",
"16 -160 LINE SMOOTH",
"16 -216 OFFCURVE",
"32 -256 OFFCURVE",
"96 -256 CURVE SMOOTH",
"216 -256 LINE SMOOTH",
"280 -256 OFFCURVE",
"296 -216 OFFCURVE",
"296 -160 CURVE SMOOTH",
"296 0 LINE"
);
}
);
width = 600;
}
);
unicode = 0633;
},
{
glyphname = "seen-ar.medi";
layers = (
{
anchors = (
{
name = bottom;
position = "{272, 0}";
},
{
name = top;
position = "{277, 247}";
}
);
layerId = m01;
paths = (
{
closed = 1;
nodes = (
"504 0 LINE",
"512 8 LINE",
"512 88 LINE",
"504 96 LINE",
"496 96 LINE SMOOTH",
"464 96 OFFCURVE",
"456 104 OFFCURVE",
"456 136 CURVE SMOOTH",
"456 224 LINE",
"448 232 LINE",
"384 232 LINE",
"376 224 LINE",
"376 136 LINE SMOOTH",
"376 103 OFFCURVE",
"360 96 OFFCURVE",
"336 96 CURVE SMOOTH",
"312 96 OFFCURVE",
"296 103 OFFCURVE",
"296 136 CURVE SMOOTH",
"296 224 LINE",
"288 232 LINE",
"224 232 LINE",
"216 224 LINE",
"216 136 LINE SMOOTH",
"216 103 OFFCURVE",
"200 96 OFFCURVE",
"176 96 CURVE SMOOTH",
"152 96 OFFCURVE",
"136 103 OFFCURVE",
"136 136 CURVE SMOOTH",
"136 224 LINE",
"128 232 LINE",
"64 232 LINE",
"56 224 LINE",
"56 136 LINE SMOOTH",
"56 103 OFFCURVE",
"48 96 OFFCURVE",
"16 96 CURVE SMOOTH",
"8 96 LINE",
"0 88 LINE",
"0 8 LINE",
"8 0 LINE"
);
}
);
width = 512;
},
{
anchors = (
{
name = bottom;
position = "{272, 0}";
},
{
name = top;
position = "{277, 247}";
}
);
layerId = "4FBB1917-F682-4041-B654-F2E0D2EF1242";
paths = (
{
closed = 1;
nodes = (
"504 0 LINE",
"512 8 LINE",
"512 88 LINE",
"504 96 LINE",
"496 96 LINE SMOOTH",
"464 96 OFFCURVE",
"456 104 OFFCURVE",
"456 136 CURVE SMOOTH",
"456 224 LINE",
"448 232 LINE",
"384 232 LINE",
"376 224 LINE",
"376 136 LINE SMOOTH",
"376 103 OFFCURVE",
"360 96 OFFCURVE",
"336 96 CURVE SMOOTH",
"312 96 OFFCURVE",
"296 103 OFFCURVE",
"296 136 CURVE SMOOTH",
"296 224 LINE",
"288 232 LINE",
"224 232 LINE",
"216 224 LINE",
"216 136 LINE SMOOTH",
"216 103 OFFCURVE",
"200 96 OFFCURVE",
"176 96 CURVE SMOOTH",
"152 96 OFFCURVE",
"136 103 OFFCURVE",
"136 136 CURVE SMOOTH",
"136 224 LINE",
"128 232 LINE",
"64 232 LINE",
"56 224 LINE",
"56 136 LINE SMOOTH",
"56 103 OFFCURVE",
"48 96 OFFCURVE",
"16 96 CURVE SMOOTH",
"8 96 LINE",
"0 88 LINE",
"0 8 LINE",
"8 0 LINE"
);
}
);
width = 600;
}
);
},
{
glyphname = "seen-ar.init";
layers = (
{
anchors = (
{
name = bottom;
position = "{295, 0}";
},
{
name = top;
position = "{291, 232}";
}
);
layerId = m01;
paths = (
{
closed = 1;
nodes = (
"448 0 LINE SMOOTH",
"480 0 OFFCURVE",
"496 16 OFFCURVE",
"496 48 CURVE SMOOTH",
"496 232 LINE",
"488 240 LINE",
"432 240 LINE",
"424 232 LINE",
"424 104 LINE SMOOTH",
"424 88 OFFCURVE",
"416 80 OFFCURVE",
"400 80 CURVE SMOOTH",
"352 80 LINE SMOOTH",
"336 80 OFFCURVE",
"328 88 OFFCURVE",
"328 104 CURVE SMOOTH",
"328 232 LINE",
"320 240 LINE",
"264 240 LINE",
"256 232 LINE",
"256 104 LINE SMOOTH",
"256 88 OFFCURVE",
"248 80 OFFCURVE",
"232 80 CURVE SMOOTH",
"184 80 LINE SMOOTH",
"168 80 OFFCURVE",
"160 88 OFFCURVE",
"160 104 CURVE SMOOTH",
"160 232 LINE",
"152 240 LINE",
"96 240 LINE",
"88 232 LINE",
"88 104 LINE SMOOTH",
"88 88 OFFCURVE",
"80 80 OFFCURVE",
"64 80 CURVE SMOOTH",
"24 80 LINE",
"16 72 LINE",
"16 8 LINE",
"24 0 LINE"
);
}
);
width = 512;
},
{
anchors = (
{
name = bottom;
position = "{295, 0}";
},
{
name = top;
position = "{291, 232}";
}
);
layerId = "4FBB1917-F682-4041-B654-F2E0D2EF1242";
paths = (
{
closed = 1;
nodes = (
"448 0 LINE SMOOTH",
"480 0 OFFCURVE",
"496 16 OFFCURVE",
"496 48 CURVE SMOOTH",
"496 232 LINE",
"488 240 LINE",
"432 240 LINE",
"424 232 LINE",
"424 104 LINE SMOOTH",
"424 88 OFFCURVE",
"416 80 OFFCURVE",
"400 80 CURVE SMOOTH",
"352 80 LINE SMOOTH",
"336 80 OFFCURVE",
"328 88 OFFCURVE",
"328 104 CURVE SMOOTH",
"328 232 LINE",
"320 240 LINE",
"264 240 LINE",
"256 232 LINE",
"256 104 LINE SMOOTH",
"256 88 OFFCURVE",
"248 80 OFFCURVE",
"232 80 CURVE SMOOTH",
"184 80 LINE SMOOTH",
"168 80 OFFCURVE",
"160 88 OFFCURVE",
"160 104 CURVE SMOOTH",
"160 232 LINE",
"152 240 LINE",
"96 240 LINE",
"88 232 LINE",
"88 104 LINE SMOOTH",
"88 88 OFFCURVE",
"80 80 OFFCURVE",
"64 80 CURVE SMOOTH",
"24 80 LINE",
"16 72 LINE",
"16 8 LINE",
"24 0 LINE"
);
}
);
width = 600;
}
);
},
{
glyphname = "ain-ar.medi";
layers = (
{
layerId = m01;
paths = (
{
closed = 1;
nodes = (
"75 0 OFFCURVE",
"186 28 OFFCURVE",
"294 89 CURVE",
"363 41 OFFCURVE",
"436 0 OFFCURVE",
"512 0 CURVE",
"512 96 LINE",
"475 96 OFFCURVE",
"428 116 OFFCURVE",
"376 143 CURVE",
"413 171 OFFCURVE",
"448 203 OFFCURVE",
"480 240 CURVE",
"480 336 LINE",
"40 336 LINE",
"40 240 LINE",
"93 240 OFFCURVE",
"156 193 OFFCURVE",
"225 140 CURVE",
"140 102 OFFCURVE",
"58 80 OFFCURVE",
"0 80 CURVE",
"0 0 LINE"
);
},
{
closed = 1;
nodes = (
"401 240 LINE",
"372 219 OFFCURVE",
"340 199 OFFCURVE",
"308 181 CURVE",
"207 240 LINE"
);
}
);
width = 512;
},
{
layerId = "4FBB1917-F682-4041-B654-F2E0D2EF1242";
paths = (
{
closed = 1;
nodes = (
"75 0 OFFCURVE",
"186 28 OFFCURVE",
"294 89 CURVE",
"363 41 OFFCURVE",
"436 0 OFFCURVE",
"512 0 CURVE",
"512 96 LINE",
"475 96 OFFCURVE",
"428 116 OFFCURVE",
"376 143 CURVE",
"413 171 OFFCURVE",
"448 203 OFFCURVE",
"480 240 CURVE",
"480 336 LINE",
"40 336 LINE",
"40 240 LINE",
"93 240 OFFCURVE",
"156 193 OFFCURVE",
"225 140 CURVE",
"140 102 OFFCURVE",
"58 80 OFFCURVE",
"0 80 CURVE",
"0 0 LINE"
);
},
{
closed = 1;
nodes = (
"401 240 LINE",
"372 219 OFFCURVE",
"340 199 OFFCURVE",
"308 181 CURVE",
"207 240 LINE"
);
}
);
width = 600;
}
);
},
{
color = 5;
glyphname = "fehDotless-ar";
layers = (
{
anchors = (
{
name = top;
position = "{425, 389}";
}
);
layerId = m01;
paths = (
{
closed = 1;
nodes = (
"456 0 LINE SMOOTH",
"520 0 OFFCURVE",
"564 12 OFFCURVE",
"564 55 CURVE SMOOTH",
"564 87 OFFCURVE",
"549 117 OFFCURVE",
"532 150 CURVE SMOOTH",
"467 274 LINE SMOOTH",
"455 297 OFFCURVE",
"434 311 OFFCURVE",
"412 311 CURVE SMOOTH",
"394 311 OFFCURVE",
"377 286 OFFCURVE",
"364 270 CURVE SMOOTH",
"310 205 LINE SMOOTH",
"291 182 OFFCURVE",
"288 170 OFFCURVE",
"288 150 CURVE SMOOTH",
"288 136 OFFCURVE",
"298 129 OFFCURVE",
"321 129 CURVE SMOOTH",
"414 129 LINE SMOOTH",
"434 129 OFFCURVE",
"447 132 OFFCURVE",
"447 116 CURVE SMOOTH",
"447 100 OFFCURVE",
"432 96 OFFCURVE",
"400 96 CURVE SMOOTH",
"160 96 LINE SMOOTH",
"128 96 OFFCURVE",
"120 104 OFFCURVE",
"120 136 CURVE SMOOTH",
"120 232 LINE",
"40 232 LINE",
"40 96 LINE SMOOTH",
"40 40 OFFCURVE",
"56 0 OFFCURVE",
"120 0 CURVE SMOOTH"
);
},
{
closed = 1;
nodes = (
"369 205 OFFCURVE",
"366 207 OFFCURVE",
"366 210 CURVE SMOOTH",
"366 213 OFFCURVE",
"369 218 OFFCURVE",
"374 223 CURVE SMOOTH",
"382 231 LINE SMOOTH",
"386 235 OFFCURVE",
"388 238 OFFCURVE",
"393 238 CURVE SMOOTH",
"399 238 OFFCURVE",
"402 237 OFFCURVE",
"408 233 CURVE SMOOTH",
"412 230 OFFCURVE",
"418 224 OFFCURVE",
"422 220 CURVE SMOOTH",
"426 216 OFFCURVE",
"431 212 OFFCURVE",
"431 209 CURVE SMOOTH",
"431 206 OFFCURVE",
"427 205 OFFCURVE",
"419 205 CURVE SMOOTH",
"399 205 OFFCURVE",
"381 205 OFFCURVE",
"375 205 CURVE SMOOTH"
);
}
);
width = 600;
},
{
anchors = (
{
name = top;
position = "{433, 400}";
}
);
layerId = "4FBB1917-F682-4041-B654-F2E0D2EF1242";
paths = (
{
closed = 1;
nodes = (
"456 0 LINE SMOOTH",
"520 0 OFFCURVE",
"564 12 OFFCURVE",
"564 55 CURVE SMOOTH",
"564 87 OFFCURVE",
"549 117 OFFCURVE",
"532 150 CURVE SMOOTH",
"467 274 LINE SMOOTH",
"455 297 OFFCURVE",
"434 311 OFFCURVE",
"412 311 CURVE SMOOTH",
"394 311 OFFCURVE",
"377 286 OFFCURVE",
"364 270 CURVE SMOOTH",
"310 205 LINE SMOOTH",
"291 182 OFFCURVE",
"288 170 OFFCURVE",
"288 150 CURVE SMOOTH",
"288 136 OFFCURVE",
"298 129 OFFCURVE",
"321 129 CURVE SMOOTH",
"414 129 LINE SMOOTH",
"434 129 OFFCURVE",
"447 132 OFFCURVE",
"447 116 CURVE SMOOTH",
"447 100 OFFCURVE",
"432 96 OFFCURVE",
"400 96 CURVE SMOOTH",
"160 96 LINE SMOOTH",
"128 96 OFFCURVE",
"120 104 OFFCURVE",
"120 136 CURVE SMOOTH",
"120 232 LINE",
"40 232 LINE",
"40 96 LINE SMOOTH",
"40 40 OFFCURVE",
"56 0 OFFCURVE",
"120 0 CURVE SMOOTH"
);
},
{
closed = 1;
nodes = (
"369 205 OFFCURVE",
"366 207 OFFCURVE",
"366 210 CURVE SMOOTH",
"366 213 OFFCURVE",
"369 218 OFFCURVE",
"374 223 CURVE SMOOTH",
"382 231 LINE SMOOTH",
"386 235 OFFCURVE",
"388 238 OFFCURVE",
"393 238 CURVE SMOOTH",
"399 238 OFFCURVE",
"402 237 OFFCURVE",
"408 233 CURVE SMOOTH",
"412 230 OFFCURVE",
"418 224 OFFCURVE",
"422 220 CURVE SMOOTH",
"426 216 OFFCURVE",
"431 212 OFFCURVE",
"431 209 CURVE SMOOTH",
"431 206 OFFCURVE",
"427 205 OFFCURVE",
"419 205 CURVE SMOOTH",
"399 205 OFFCURVE",
"381 205 OFFCURVE",
"375 205 CURVE SMOOTH"
);
}
);
width = 600;
}
);
unicode = 06A1;
},
{
glyphname = "fehDotless-ar.fina";
layers = (
{
layerId = m01;
paths = (
{
closed = 1;
nodes = (
"480 0 LINE SMOOTH",
"544 0 OFFCURVE",
"560 40 OFFCURVE",
"560 80 CURVE SMOOTH",
"560 360 LINE SMOOTH",
"560 416 OFFCURVE",
"544 456 OFFCURVE",
"480 456 CURVE SMOOTH",
"360 456 LINE SMOOTH",
"296 456 OFFCURVE",
"280 416 OFFCURVE",
"280 360 CURVE SMOOTH",
"280 256 LINE SMOOTH",
"280 200 OFFCURVE",
"296 160 OFFCURVE",
"360 160 CURVE SMOOTH",
"472 160 LINE",
"480 152 LINE",
"480 120 LINE SMOOTH",
"480 104 OFFCURVE",
"472 96 OFFCURVE",
"440 96 CURVE SMOOTH",
"160 96 LINE SMOOTH",
"128 96 OFFCURVE",
"120 104 OFFCURVE",
"120 136 CURVE SMOOTH",
"120 160 LINE",
"112 168 LINE",
"49 168 LINE",
"40 160 LINE",
"40 96 LINE SMOOTH",
"40 40 OFFCURVE",
"56 0 OFFCURVE",
"120 0 CURVE SMOOTH"
);
},
{
closed = 1;
nodes = (
"376 256 OFFCURVE",
"360 264 OFFCURVE",
"360 308 CURVE SMOOTH",
"360 352 OFFCURVE",
"376 360 OFFCURVE",
"416 360 CURVE SMOOTH",
"464 360 OFFCURVE",
"480 352 OFFCURVE",
"480 308 CURVE SMOOTH",
"480 264 LINE",
"472 256 LINE",
"416 256 LINE SMOOTH"
);
}
);
width = 600;
},
{
layerId = "4FBB1917-F682-4041-B654-F2E0D2EF1242";
paths = (
{
closed = 1;
nodes = (
"480 0 LINE SMOOTH",
"544 0 OFFCURVE",
"560 40 OFFCURVE",
"560 80 CURVE SMOOTH",
"560 360 LINE SMOOTH",
"560 416 OFFCURVE",
"544 456 OFFCURVE",
"480 456 CURVE SMOOTH",
"360 456 LINE SMOOTH",
"296 456 OFFCURVE",
"280 416 OFFCURVE",
"280 360 CURVE SMOOTH",
"280 256 LINE SMOOTH",
"280 200 OFFCURVE",
"296 160 OFFCURVE",
"360 160 CURVE SMOOTH",
"472 160 LINE",
"480 152 LINE",
"480 120 LINE SMOOTH",
"480 104 OFFCURVE",
"472 96 OFFCURVE",
"440 96 CURVE SMOOTH",
"160 96 LINE SMOOTH",
"128 96 OFFCURVE",
"120 104 OFFCURVE",
"120 136 CURVE SMOOTH",
"120 160 LINE",
"112 168 LINE",
"49 168 LINE",
"40 160 LINE",
"40 96 LINE SMOOTH",
"40 40 OFFCURVE",
"56 0 OFFCURVE",
"120 0 CURVE SMOOTH"
);
},
{
closed = 1;
nodes = (
"376 256 OFFCURVE",
"360 264 OFFCURVE",
"360 308 CURVE SMOOTH",
"360 352 OFFCURVE",
"376 360 OFFCURVE",
"416 360 CURVE SMOOTH",
"464 360 OFFCURVE",
"480 352 OFFCURVE",
"480 308 CURVE SMOOTH",
"480 264 LINE",
"472 256 LINE",
"416 256 LINE SMOOTH"
);
}
);
width = 600;
}
);
},
{
glyphname = "fehDotless-ar.init";
layers = (
{
anchors = (
{
name = top;
position = "{344, 512}";
}
);
layerId = m01;
paths = (
{
closed = 1;
nodes = (
"400 0 LINE SMOOTH",
"456 0 OFFCURVE",
"480 24 OFFCURVE",
"480 72 CURVE SMOOTH",
"480 440 LINE SMOOTH",
"480 488 OFFCURVE",
"456 512 OFFCURVE",
"408 512 CURVE SMOOTH",
"280 512 LINE SMOOTH",
"232 512 OFFCURVE",
"208 488 OFFCURVE",
"208 440 CURVE SMOOTH",
"208 288 LINE SMOOTH",
"208 240 OFFCURVE",
"232 216 OFFCURVE",
"280 216 CURVE SMOOTH",
"400 216 LINE",
"408 208 LINE",
"408 104 LINE SMOOTH",
"408 88 OFFCURVE",
"400 80 OFFCURVE",
"384 80 CURVE SMOOTH",
"24 80 LINE",
"16 72 LINE",
"16 9 LINE",
"24 0 LINE"
);
},
{
closed = 1;
nodes = (
"288 296 OFFCURVE",
"280 304 OFFCURVE",
"280 319 CURVE SMOOTH",
"280 408 LINE SMOOTH",
"280 424 OFFCURVE",
"288 432 OFFCURVE",
"304 432 CURVE SMOOTH",
"385 432 LINE SMOOTH",
"400 432 OFFCURVE",
"408 424 OFFCURVE",
"408 408 CURVE SMOOTH",
"408 304 LINE",
"400 296 LINE",
"304 296 LINE SMOOTH"
);
}
);
width = 512;
},
{
anchors = (
{
name = top;
position = "{293, 512}";
}
);
layerId = "4FBB1917-F682-4041-B654-F2E0D2EF1242";
paths = (
{
closed = 1;
nodes = (
"400 0 LINE SMOOTH",
"456 0 OFFCURVE",
"480 24 OFFCURVE",
"480 72 CURVE SMOOTH",
"480 440 LINE SMOOTH",
"480 488 OFFCURVE",
"456 512 OFFCURVE",
"408 512 CURVE SMOOTH",
"168 512 LINE SMOOTH",
"120 512 OFFCURVE",
"96 488 OFFCURVE",
"96 440 CURVE SMOOTH",
"96 256 LINE SMOOTH",
"96 208 OFFCURVE",
"120 184 OFFCURVE",
"168 184 CURVE SMOOTH",
"344 184 LINE",
"352 176 LINE",
"352 168 LINE SMOOTH",
"352 152 OFFCURVE",
"344 144 OFFCURVE",
"328 144 CURVE SMOOTH",
"24 144 LINE",
"16 136 LINE",
"16 9 LINE",
"24 0 LINE"
);
},
{
closed = 1;
nodes = (
"232 328 OFFCURVE",
"224 330 OFFCURVE",
"224 343 CURVE SMOOTH",
"224 352 LINE SMOOTH",
"224 364 OFFCURVE",
"232 368 OFFCURVE",
"248 368 CURVE SMOOTH",
"329 368 LINE SMOOTH",
"344 368 OFFCURVE",
"352 360 OFFCURVE",
"352 344 CURVE SMOOTH",
"352 336 LINE",
"344 328 LINE",
"248 328 LINE SMOOTH"
);
}
);
width = 512;
}
);
},
{
color = 5;
glyphname = "kaf-ar.medi";
layers = (
{
layerId = m01;
paths = (
{
closed = 1;
nodes = (
"488 0 LINE",
"496 8 LINE",
"496 72 LINE",
"488 80 LINE",
"464 80 LINE SMOOTH",
"448 80 OFFCURVE",
"440 88 OFFCURVE",
"440 104 CURVE SMOOTH",
"440 224 LINE SMOOTH",
"440 272 OFFCURVE",
"416 296 OFFCURVE",
"368 296 CURVE SMOOTH",
"160 296 LINE SMOOTH",
"144 296 OFFCURVE",
"136 304 OFFCURVE",
"136 320 CURVE SMOOTH",
"136 409 LINE SMOOTH",
"136 424 OFFCURVE",
"144 432 OFFCURVE",
"160 432 CURVE SMOOTH",
"282 432 LINE",
"290 440 LINE",
"290 504 LINE",
"282 512 LINE",
"136 512 LINE SMOOTH",
"88 512 OFFCURVE",
"64 488 OFFCURVE",
"64 440 CURVE SMOOTH",
"64 288 LINE SMOOTH",
"64 240 OFFCURVE",
"89 216 OFFCURVE",
"136 216 CURVE SMOOTH",
"344 216 LINE SMOOTH",
"360 216 OFFCURVE",
"368 208 OFFCURVE",
"368 192 CURVE SMOOTH",
"368 104 LINE SMOOTH",
"368 88 OFFCURVE",
"360 80 OFFCURVE",
"344 80 CURVE SMOOTH",
"24 80 LINE",
"16 72 LINE",
"16 8 LINE",
"24 0 LINE"
);
}
);
width = 512;
},
{
layerId = "4FBB1917-F682-4041-B654-F2E0D2EF1242";
paths = (
{
closed = 1;
nodes = (
"488 0 LINE",
"496 8 LINE",
"496 136 LINE",
"488 144 LINE",
"464 144 LINE SMOOTH",
"447 144 OFFCURVE",
"440 152 OFFCURVE",
"440 168 CURVE SMOOTH",
"440 256 LINE SMOOTH",
"440 304 OFFCURVE",
"416 328 OFFCURVE",
"368 328 CURVE SMOOTH",
"184 328 LINE SMOOTH",
"179 328 OFFCURVE",
"176 330 OFFCURVE",
"176 336 CURVE SMOOTH",
"176 360 LINE SMOOTH",
"176 365 OFFCURVE",
"179 368 OFFCURVE",
"184 368 CURVE SMOOTH",
"266 368 LINE",
"274 376 LINE",
"274 504 LINE",
"266 512 LINE",
"120 512 LINE SMOOTH",
"72 512 OFFCURVE",
"48 488 OFFCURVE",
"48 440 CURVE SMOOTH",
"48 256 LINE SMOOTH",
"48 208 OFFCURVE",
"73 184 OFFCURVE",
"120 184 CURVE SMOOTH",
"304 184 LINE SMOOTH",
"310 184 OFFCURVE",
"312 179 OFFCURVE",
"312 176 CURVE SMOOTH",
"312 152 LINE SMOOTH",
"312 147 OFFCURVE",
"309 144 OFFCURVE",
"304 144 CURVE SMOOTH",
"24 144 LINE",
"16 136 LINE",
"16 8 LINE",
"24 0 LINE"
);
}
);
width = 512;
}
);
unicode = FEDC;
},
{
color = 5;
glyphname = "kaf-ar.init";
layers = (
{
layerId = m01;
paths = (
{
closed = 1;
nodes = (
"424 0 LINE",
"472 0 OFFCURVE",
"496 24 OFFCURVE",
"496 72 CURVE SMOOTH",
"496 224 LINE SMOOTH",
"496 272 OFFCURVE",
"472 296 OFFCURVE",
"424 296 CURVE SMOOTH",
"160 296 LINE SMOOTH",
"144 296 OFFCURVE",
"136 304 OFFCURVE",
"136 320 CURVE SMOOTH",
"136 409 LINE SMOOTH",
"136 424 OFFCURVE",
"144 432 OFFCURVE",
"160 432 CURVE SMOOTH",
"282 432 LINE",
"290 440 LINE",
"290 504 LINE",
"282 512 LINE",
"136 512 LINE SMOOTH",
"88 512 OFFCURVE",
"64 488 OFFCURVE",
"64 440 CURVE SMOOTH",
"64 288 LINE SMOOTH",
"64 240 OFFCURVE",
"89 216 OFFCURVE",
"136 216 CURVE SMOOTH",
"400 216 LINE SMOOTH",
"416 216 OFFCURVE",
"424 208 OFFCURVE",
"424 192 CURVE SMOOTH",
"424 104 LINE SMOOTH",
"424 88 OFFCURVE",
"416 80 OFFCURVE",
"400 80 CURVE SMOOTH",
"24 80 LINE",
"16 72 LINE",
"16 8 LINE",
"24 0 LINE"
);
}
);
width = 512;
},
{
layerId = "4FBB1917-F682-4041-B654-F2E0D2EF1242";
paths = (
{
closed = 1;
nodes = (
"424 0 LINE",
"472 0 OFFCURVE",
"496 24 OFFCURVE",
"496 72 CURVE SMOOTH",
"496 256 LINE SMOOTH",
"496 304 OFFCURVE",
"472 328 OFFCURVE",
"424 328 CURVE SMOOTH",
"200 328 LINE SMOOTH",
"195 328 OFFCURVE",
"192 330 OFFCURVE",
"192 336 CURVE SMOOTH",
"192 360 LINE SMOOTH",
"192 365 OFFCURVE",
"195 368 OFFCURVE",
"200 368 CURVE SMOOTH",
"282 368 LINE",
"290 376 LINE",
"290 504 LINE",
"282 512 LINE",
"136 512 LINE SMOOTH",
"88 512 OFFCURVE",
"64 488 OFFCURVE",
"64 440 CURVE SMOOTH",
"64 256 LINE SMOOTH",
"64 208 OFFCURVE",
"89 184 OFFCURVE",
"136 184 CURVE SMOOTH",
"360 184 LINE SMOOTH",
"366 184 OFFCURVE",
"368 179 OFFCURVE",
"368 176 CURVE SMOOTH",
"368 152 LINE SMOOTH",
"368 147 OFFCURVE",
"365 144 OFFCURVE",
"360 144 CURVE SMOOTH",
"24 144 LINE",
"16 136 LINE",
"16 8 LINE",
"24 0 LINE"
);
}
);
width = 512;
}
);
unicode = FEDB;
},
{
glyphname = "noonghunna-ar";
layers = (
{
anchors = (
{
name = top;
position = "{256, 208}";
}
);
layerId = m01;
paths = (
{
closed = 1;
nodes = (
"360 -208 LINE SMOOTH",
"424 -208 OFFCURVE",
"440 -168 OFFCURVE",
"440 -112 CURVE SMOOTH",
"440 200 LINE",
"432 208 LINE",
"376 208 LINE",
"368 200 LINE",
"368 -88 LINE SMOOTH",
"368 -120 OFFCURVE",
"360 -128 OFFCURVE",
"328 -128 CURVE SMOOTH",
"184 -128 LINE SMOOTH",
"152 -128 OFFCURVE",
"144 -120 OFFCURVE",
"144 -88 CURVE SMOOTH",
"144 72 LINE",
"136 80 LINE",
"80 80 LINE",
"72 72 LINE",
"72 -112 LINE SMOOTH",
"72 -168 OFFCURVE",
"88 -208 OFFCURVE",
"152 -208 CURVE SMOOTH"
);
}
);
width = 512;
},
{
anchors = (
{
name = top;
position = "{230, 208}";
}
);
layerId = "4FBB1917-F682-4041-B654-F2E0D2EF1242";
paths = (
{
closed = 1;
nodes = (
"360 -208 LINE SMOOTH",
"424 -208 OFFCURVE",
"440 -168 OFFCURVE",
"440 -112 CURVE",
"440 200 LINE",
"432 208 LINE",
"320 208 LINE",
"312 200 LINE",
"312 -24 LINE SMOOTH",
"312 -56 OFFCURVE",
"304 -64 OFFCURVE",
"272 -64 CURVE SMOOTH",
"240 -64 LINE SMOOTH",
"208 -64 OFFCURVE",
"200 -56 OFFCURVE",
"200 -24 CURVE SMOOTH",
"200 72 LINE",
"192 80 LINE",
"80 80 LINE",
"72 72 LINE",
"72 -112 LINE SMOOTH",
"72 -168 OFFCURVE",
"88 -208 OFFCURVE",
"152 -208 CURVE SMOOTH"
);
}
);
width = 512;
}
);
unicode = 06BA;
},
{
glyphname = "noonghunna-ar.fina";
layers = (
{
anchors = (
{
name = top;
position = "{256, 208}";
}
);
layerId = m01;
paths = (
{
closed = 1;
nodes = (
"352 -208 LINE SMOOTH",
"416 -208 OFFCURVE",
"432 -168 OFFCURVE",
"432 -112 CURVE SMOOTH",
"432 -8 LINE",
"440 0 LINE",
"488 0 LINE",
"496 8 LINE",
"496 72 LINE",
"488 80 LINE",
"456 80 LINE SMOOTH",
"440 80 OFFCURVE",
"432 88 OFFCURVE",
"432 104 CURVE SMOOTH",
"432 200 LINE",
"424 208 LINE",
"368 208 LINE",
"360 200 LINE",
"360 -88 LINE SMOOTH",
"360 -120 OFFCURVE",
"352 -128 OFFCURVE",
"320 -128 CURVE SMOOTH",
"192 -128 LINE SMOOTH",
"160 -128 OFFCURVE",
"152 -120 OFFCURVE",
"152 -88 CURVE SMOOTH",
"152 72 LINE",
"144 80 LINE",
"88 80 LINE",
"80 72 LINE",
"80 -112 LINE SMOOTH",
"80 -168 OFFCURVE",
"96 -208 OFFCURVE",
"160 -208 CURVE SMOOTH"
);
}
);
width = 512;
},
{
anchors = (
{
name = top;
position = "{246, 208}";
}
);
layerId = "4FBB1917-F682-4041-B654-F2E0D2EF1242";
paths = (
{
closed = 1;
nodes = (
"352 -208 LINE SMOOTH",
"416 -208 OFFCURVE",
"432 -168 OFFCURVE",
"432 -112 CURVE SMOOTH",
"432 -8 LINE",
"440 0 LINE",
"488 0 LINE",
"496 8 LINE",
"496 136 LINE",
"488 144 LINE",
"456 144 LINE SMOOTH",
"440 144 OFFCURVE",
"432 152 OFFCURVE",
"432 168 CURVE SMOOTH",
"432 200 LINE",
"424 208 LINE",
"312 208 LINE",
"304 200 LINE",
"304 -24 LINE SMOOTH",
"304 -56 OFFCURVE",
"296 -64 OFFCURVE",
"264 -64 CURVE SMOOTH",
"208 -64 LINE SMOOTH",
"176 -64 OFFCURVE",
"168 -56 OFFCURVE",
"168 -24 CURVE SMOOTH",
"168 72 LINE",
"160 80 LINE",
"48 80 LINE",
"40 72 LINE",
"40 -112 LINE SMOOTH",
"40 -168 OFFCURVE",
"56 -208 OFFCURVE",
"120 -208 CURVE SMOOTH"
);
}
);
width = 512;
}
);
},
{
glyphname = "heh-ar.medi";
layers = (
{
layerId = m01;
paths = (
{
closed = 1;
nodes = (
"152 0 LINE",
"160 -8 LINE",
"160 -168 LINE SMOOTH",
"160 -216 OFFCURVE",
"184 -240 OFFCURVE",
"232 -240 CURVE SMOOTH",
"368 -240 LINE SMOOTH",
"416 -240 OFFCURVE",
"440 -216 OFFCURVE",
"440 -168 CURVE SMOOTH",
"440 -8 LINE",
"448 0 LINE",
"576 0 LINE",
"584 8 LINE",
"584 72 LINE",
"576 80 LINE",
"448 80 LINE",
"440 88 LINE",
"440 248 LINE SMOOTH",
"440 296 OFFCURVE",
"416 320 OFFCURVE",
"368 320 CURVE SMOOTH",
"232 320 LINE SMOOTH",
"184 320 OFFCURVE",
"160 296 OFFCURVE",
"160 248 CURVE SMOOTH",
"160 88 LINE",
"152 80 LINE",
"24 80 LINE",
"16 72 LINE",
"16 8 LINE",
"24 0 LINE"
);
},
{
closed = 1;
nodes = (
"232 88 LINE",
"232 216 LINE SMOOTH",
"232 232 OFFCURVE",
"240 240 OFFCURVE",
"256 240 CURVE SMOOTH",
"344 240 LINE SMOOTH",
"360 240 OFFCURVE",
"368 232 OFFCURVE",
"368 216 CURVE SMOOTH",
"368 104 LINE SMOOTH",
"368 88 OFFCURVE",
"360 80 OFFCURVE",
"344 80 CURVE SMOOTH",
"240 80 LINE"
);
},
{
closed = 1;
nodes = (
"240 -160 OFFCURVE",
"232 -152 OFFCURVE",
"232 -136 CURVE SMOOTH",
"232 -8 LINE",
"240 0 LINE",
"344 0 LINE SMOOTH",
"360 0 OFFCURVE",
"368 -8 OFFCURVE",
"368 -24 CURVE SMOOTH",
"368 -136 LINE SMOOTH",
"368 -152 OFFCURVE",
"360 -160 OFFCURVE",
"344 -160 CURVE SMOOTH",
"256 -160 LINE SMOOTH"
);
}
);
width = 600;
},
{
layerId = "4FBB1917-F682-4041-B654-F2E0D2EF1242";
paths = (
{
closed = 1;
nodes = (
"152 0 LINE",
"160 -8 LINE",
"160 -168 LINE SMOOTH",
"160 -216 OFFCURVE",
"184 -240 OFFCURVE",
"232 -240 CURVE SMOOTH",
"368 -240 LINE SMOOTH",
"416 -240 OFFCURVE",
"440 -216 OFFCURVE",
"440 -168 CURVE SMOOTH",
"440 -8 LINE",
"448 0 LINE",
"576 0 LINE",
"584 8 LINE",
"584 72 LINE",
"576 80 LINE",
"448 80 LINE",
"440 88 LINE",
"440 248 LINE SMOOTH",
"440 296 OFFCURVE",
"416 320 OFFCURVE",
"368 320 CURVE SMOOTH",
"232 320 LINE SMOOTH",
"184 320 OFFCURVE",
"160 296 OFFCURVE",
"160 248 CURVE SMOOTH",
"160 88 LINE",
"152 80 LINE",
"24 80 LINE",
"16 72 LINE",
"16 8 LINE",
"24 0 LINE"
);
},
{
closed = 1;
nodes = (
"232 88 LINE",
"232 216 LINE SMOOTH",
"232 232 OFFCURVE",
"240 240 OFFCURVE",
"256 240 CURVE SMOOTH",
"344 240 LINE SMOOTH",
"360 240 OFFCURVE",
"368 232 OFFCURVE",
"368 216 CURVE SMOOTH",
"368 104 LINE SMOOTH",
"368 88 OFFCURVE",
"360 80 OFFCURVE",
"344 80 CURVE SMOOTH",
"240 80 LINE"
);
},
{
closed = 1;
nodes = (
"240 -160 OFFCURVE",
"232 -152 OFFCURVE",
"232 -136 CURVE SMOOTH",
"232 -8 LINE",
"240 0 LINE",
"344 0 LINE SMOOTH",
"360 0 OFFCURVE",
"368 -8 OFFCURVE",
"368 -24 CURVE SMOOTH",
"368 -136 LINE SMOOTH",
"368 -152 OFFCURVE",
"360 -160 OFFCURVE",
"344 -160 CURVE SMOOTH",
"256 -160 LINE SMOOTH"
);
}
);
width = 600;
}
);
},
{
glyphname = "heh-ar.init";
layers = (
{
layerId = m01;
paths = (
{
closed = 1;
nodes = (
"105 0 OFFCURVE",
"264 19 OFFCURVE",
"321 71 CURVE",
"361 47 OFFCURVE",
"415 22 OFFCURVE",
"442 22 CURVE SMOOTH",
"494 22 OFFCURVE",
"565 83 OFFCURVE",
"565 155 CURVE SMOOTH",
"565 240 OFFCURVE",
"405 348 OFFCURVE",
"321 348 CURVE SMOOTH",
"289 348 OFFCURVE",
"207 277 OFFCURVE",
"207 218 CURVE SMOOTH",
"207 193 OFFCURVE",
"236 176 OFFCURVE",
"236 150 CURVE SMOOTH",
"236 126 OFFCURVE",
"192 96 OFFCURVE",
"0 96 CURVE",
"0 0 LINE"
);
},
{
closed = 1;
nodes = (
"312 177 OFFCURVE",
"292 206 OFFCURVE",
"292 223 CURVE SMOOTH",
"292 239 OFFCURVE",
"320 252 OFFCURVE",
"335 252 CURVE SMOOTH",
"350 252 OFFCURVE",
"370 231 OFFCURVE",
"370 215 CURVE SMOOTH",
"370 198 OFFCURVE",
"342 177 OFFCURVE",
"327 177 CURVE SMOOTH"
);
},
{
closed = 1;
nodes = (
"422 103 OFFCURVE",
"391 128 OFFCURVE",
"391 149 CURVE SMOOTH",
"391 169 OFFCURVE",
"422 186 OFFCURVE",
"441 186 CURVE SMOOTH",
"459 186 OFFCURVE",
"482 169 OFFCURVE",
"482 149 CURVE SMOOTH",
"482 128 OFFCURVE",
"459 103 OFFCURVE",
"441 103 CURVE SMOOTH"
);
}
);
width = 600;
},
{
layerId = "4FBB1917-F682-4041-B654-F2E0D2EF1242";
paths = (
{
closed = 1;
nodes = (
"105 0 OFFCURVE",
"264 19 OFFCURVE",
"321 71 CURVE",
"361 47 OFFCURVE",
"415 22 OFFCURVE",
"442 22 CURVE SMOOTH",
"494 22 OFFCURVE",
"565 83 OFFCURVE",
"565 155 CURVE SMOOTH",
"565 240 OFFCURVE",
"405 348 OFFCURVE",
"321 348 CURVE SMOOTH",
"289 348 OFFCURVE",
"207 277 OFFCURVE",
"207 218 CURVE SMOOTH",
"207 193 OFFCURVE",
"236 176 OFFCURVE",
"236 150 CURVE SMOOTH",
"236 126 OFFCURVE",
"192 96 OFFCURVE",
"0 96 CURVE",
"0 0 LINE"
);
},
{
closed = 1;
nodes = (
"312 177 OFFCURVE",
"292 206 OFFCURVE",
"292 223 CURVE SMOOTH",
"292 239 OFFCURVE",
"320 252 OFFCURVE",
"335 252 CURVE SMOOTH",
"350 252 OFFCURVE",
"370 231 OFFCURVE",
"370 215 CURVE SMOOTH",
"370 198 OFFCURVE",
"342 177 OFFCURVE",
"327 177 CURVE SMOOTH"
);
},
{
closed = 1;
nodes = (
"422 103 OFFCURVE",
"391 128 OFFCURVE",
"391 149 CURVE SMOOTH",
"391 169 OFFCURVE",
"422 186 OFFCURVE",
"441 186 CURVE SMOOTH",
"459 186 OFFCURVE",
"482 169 OFFCURVE",
"482 149 CURVE SMOOTH",
"482 128 OFFCURVE",
"459 103 OFFCURVE",
"441 103 CURVE SMOOTH"
);
}
);
width = 600;
}
);
},
{
glyphname = "waw-ar";
layers = (
{
layerId = m01;
paths = (
{
closed = 1;
nodes = (
"392 -256 LINE SMOOTH",
"456 -256 OFFCURVE",
"472 -216 OFFCURVE",
"472 -160 CURVE SMOOTH",
"472 200 LINE SMOOTH",
"472 256 OFFCURVE",
"456 296 OFFCURVE",
"392 296 CURVE SMOOTH",
"272 296 LINE SMOOTH",
"208 296 OFFCURVE",
"192 256 OFFCURVE",
"192 200 CURVE SMOOTH",
"192 96 LINE SMOOTH",
"192 40 OFFCURVE",
"208 0 OFFCURVE",
"272 0 CURVE SMOOTH",
"384 0 LINE",
"392 -8 LINE",
"392 -120 LINE SMOOTH",
"392 -152 OFFCURVE",
"384 -160 OFFCURVE",
"352 -160 CURVE SMOOTH",
"160 -160 LINE SMOOTH",
"128 -160 OFFCURVE",
"120 -152 OFFCURVE",
"120 -120 CURVE SMOOTH",
"120 -80 LINE",
"112 -72 LINE",
"49 -72 LINE",
"40 -80 LINE",
"40 -160 LINE SMOOTH",
"40 -216 OFFCURVE",
"56 -256 OFFCURVE",
"120 -256 CURVE SMOOTH"
);
},
{
closed = 1;
nodes = (
"280 96 OFFCURVE",
"272 104 OFFCURVE",
"272 154 CURVE SMOOTH",
"272 192 OFFCURVE",
"288 200 OFFCURVE",
"328 200 CURVE SMOOTH",
"376 200 OFFCURVE",
"392 192 OFFCURVE",
"392 160 CURVE SMOOTH",
"392 104 LINE",
"384 96 LINE",
"312 96 LINE SMOOTH"
);
}
);
width = 512;
},
{
layerId = "4FBB1917-F682-4041-B654-F2E0D2EF1242";
paths = (
{
closed = 1;
nodes = (
"392 -256 LINE SMOOTH",
"456 -256 OFFCURVE",
"472 -216 OFFCURVE",
"472 -160 CURVE SMOOTH",
"472 296 LINE SMOOTH",
"472 352 OFFCURVE",
"456 392 OFFCURVE",
"392 392 CURVE SMOOTH",
"272 392 LINE SMOOTH",
"208 392 OFFCURVE",
"192 352 OFFCURVE",
"192 296 CURVE SMOOTH",
"192 96 LINE SMOOTH",
"192 40 OFFCURVE",
"208 0 OFFCURVE",
"272 0 CURVE SMOOTH",
"344 0 LINE",
"352 -8 LINE",
"352 -56 LINE SMOOTH",
"352 -80 OFFCURVE",
"344 -88 OFFCURVE",
"314 -88 CURVE SMOOTH",
"200 -88 LINE SMOOTH",
"176 -88 OFFCURVE",
"168 -80 OFFCURVE",
"168 -56 CURVE SMOOTH",
"168 -8 LINE",
"160 0 LINE",
"48 0 LINE",
"40 -8 LINE",
"40 -160 LINE SMOOTH",
"40 -216 OFFCURVE",
"56 -256 OFFCURVE",
"120 -256 CURVE SMOOTH"
);
},
{
closed = 1;
nodes = (
"313 168 OFFCURVE",
"302 176 OFFCURVE",
"302 196 CURVE SMOOTH",
"302 216 OFFCURVE",
"313 224 OFFCURVE",
"326 224 CURVE SMOOTH",
"344 224 OFFCURVE",
"352 216 OFFCURVE",
"352 192 CURVE SMOOTH",
"352 176 LINE",
"344 168 LINE",
"326 168 LINE SMOOTH"
);
}
);
width = 512;
}
);
unicode = 0648;
},
{
glyphname = "waw-ar.fina";
layers = (
{
layerId = m01;
paths = (
{
closed = 1;
nodes = (
"352 -208 LINE SMOOTH",
"416 -208 OFFCURVE",
"432 -168 OFFCURVE",
"432 -112 CURVE SMOOTH",
"432 -8 LINE",
"440 0 LINE",
"488 0 LINE",
"496 8 LINE",
"496 72 LINE",
"488 80 LINE",
"440 80 LINE",
"432 88 LINE",
"432 216 LINE SMOOTH",
"432 264 OFFCURVE",
"408 288 OFFCURVE",
"363 288 CURVE SMOOTH",
"248 288 LINE SMOOTH",
"200 288 OFFCURVE",
"176 264 OFFCURVE",
"176 216 CURVE SMOOTH",
"176 72 LINE SMOOTH",
"176 24 OFFCURVE",
"200 0 OFFCURVE",
"248 0 CURVE SMOOTH",
"352 0 LINE",
"360 -8 LINE",
"360 -104 LINE SMOOTH",
"360 -120 OFFCURVE",
"352 -128 OFFCURVE",
"336 -128 CURVE SMOOTH",
"128 -128 LINE SMOOTH",
"96 -128 OFFCURVE",
"88 -120 OFFCURVE",
"88 -88 CURVE SMOOTH",
"88 -56 LINE",
"80 -48 LINE",
"24 -48 LINE",
"16 -56 LINE",
"16 -112 LINE SMOOTH",
"16 -168 OFFCURVE",
"32 -208 OFFCURVE",
"88 -208 CURVE SMOOTH"
);
},
{
closed = 1;
nodes = (
"256 80 OFFCURVE",
"248 88 OFFCURVE",
"248 103 CURVE SMOOTH",
"248 184 LINE SMOOTH",
"248 200 OFFCURVE",
"256 208 OFFCURVE",
"272 208 CURVE SMOOTH",
"337 208 LINE SMOOTH",
"352 208 OFFCURVE",
"360 200 OFFCURVE",
"360 184 CURVE SMOOTH",
"360 88 LINE",
"352 80 LINE",
"272 80 LINE SMOOTH"
);
}
);
width = 512;
},
{
layerId = "4FBB1917-F682-4041-B654-F2E0D2EF1242";
paths = (
{
closed = 1;
nodes = (
"384 -208 LINE SMOOTH",
"448 -208 OFFCURVE",
"464 -168 OFFCURVE",
"464 -112 CURVE SMOOTH",
"464 -8 LINE",
"472 0 LINE",
"488 0 LINE",
"496 8 LINE",
"496 136 LINE",
"488 144 LINE",
"472 144 LINE",
"464 152 LINE",
"464 256 LINE SMOOTH",
"464 304 OFFCURVE",
"440 328 OFFCURVE",
"395 328 CURVE SMOOTH",
"240 328 LINE SMOOTH",
"192 328 OFFCURVE",
"168 304 OFFCURVE",
"168 256 CURVE SMOOTH",
"168 72 LINE SMOOTH",
"168 24 OFFCURVE",
"192 0 OFFCURVE",
"240 0 CURVE SMOOTH",
"328 0 LINE",
"336 -8 LINE",
"336 -40 LINE SMOOTH",
"336 -56 OFFCURVE",
"328 -64 OFFCURVE",
"312 -64 CURVE SMOOTH",
"184 -64 LINE SMOOTH",
"152 -64 OFFCURVE",
"144 -56 OFFCURVE",
"144 -24 CURVE SMOOTH",
"144 -8 LINE",
"136 0 LINE",
"24 0 LINE",
"16 -8 LINE",
"16 -112 LINE SMOOTH",
"16 -168 OFFCURVE",
"32 -208 OFFCURVE",
"88 -208 CURVE SMOOTH"
);
},
{
closed = 1;
nodes = (
"299 144 OFFCURVE",
"296 147 OFFCURVE",
"296 152 CURVE SMOOTH",
"296 176 LINE SMOOTH",
"296 181 OFFCURVE",
"299 184 OFFCURVE",
"304 184 CURVE SMOOTH",
"328 184 LINE SMOOTH",
"333 184 OFFCURVE",
"336 181 OFFCURVE",
"336 176 CURVE SMOOTH",
"336 152 LINE",
"328 144 LINE",
"304 144 LINE SMOOTH"
);
}
);
width = 512;
}
);
},
{
color = 5;
glyphname = "kashida-ar";
layers = (
{
layerId = m01;
paths = (
{
closed = 1;
nodes = (
"488 0 LINE",
"496 8 LINE",
"496 71 LINE",
"488 80 LINE",
"24 80 LINE",
"16 72 LINE",
"16 8 LINE",
"24 0 LINE"
);
}
);
width = 512;
},
{
layerId = "4FBB1917-F682-4041-B654-F2E0D2EF1242";
paths = (
{
closed = 1;
nodes = (
"488 0 LINE",
"496 8 LINE",
"496 135 LINE",
"488 144 LINE",
"24 144 LINE",
"16 136 LINE",
"16 8 LINE",
"24 0 LINE"
);
}
);
width = 512;
}
);
unicode = 0640;
},
{
color = 5;
glyphname = zero;
layers = (
{
layerId = m01;
paths = (
{
closed = 1;
nodes = (
"384 -16 OFFCURVE",
"440 64 OFFCURVE",
"440 177 CURVE SMOOTH",
"440 527 LINE SMOOTH",
"440 640 OFFCURVE",
"384 720 OFFCURVE",
"256 720 CURVE SMOOTH",
"128 720 OFFCURVE",
"72 640 OFFCURVE",
"72 527 CURVE SMOOTH",
"72 177 LINE SMOOTH",
"72 64 OFFCURVE",
"128 -16 OFFCURVE",
"256 -16 CURVE SMOOTH"
);
},
{
closed = 1;
nodes = (
"176 64 OFFCURVE",
"144 112 OFFCURVE",
"144 193 CURVE SMOOTH",
"144 511 LINE SMOOTH",
"144 592 OFFCURVE",
"176 640 OFFCURVE",
"256 640 CURVE SMOOTH",
"336 640 OFFCURVE",
"368 592 OFFCURVE",
"368 511 CURVE SMOOTH",
"368 193 LINE SMOOTH",
"368 112 OFFCURVE",
"336 64 OFFCURVE",
"256 64 CURVE SMOOTH"
);
},
{
closed = 1;
nodes = (
"292 288 OFFCURVE",
"320 316 OFFCURVE",
"320 353 CURVE SMOOTH",
"320 389 OFFCURVE",
"292 416 OFFCURVE",
"256 416 CURVE SMOOTH",
"220 416 OFFCURVE",
"192 389 OFFCURVE",
"192 353 CURVE SMOOTH",
"192 316 OFFCURVE",
"220 288 OFFCURVE",
"256 288 CURVE SMOOTH"
);
}
);
width = 512;
},
{
layerId = "4FBB1917-F682-4041-B654-F2E0D2EF1242";
paths = (
{
closed = 1;
nodes = (
"384 -16 OFFCURVE",
"440 64 OFFCURVE",
"440 177 CURVE SMOOTH",
"440 527 LINE SMOOTH",
"440 640 OFFCURVE",
"384 720 OFFCURVE",
"256 720 CURVE SMOOTH",
"128 720 OFFCURVE",
"72 640 OFFCURVE",
"72 527 CURVE SMOOTH",
"72 177 LINE SMOOTH",
"72 64 OFFCURVE",
"128 -16 OFFCURVE",
"256 -16 CURVE SMOOTH"
);
},
{
closed = 1;
nodes = (
"176 64 OFFCURVE",
"144 120 OFFCURVE",
"144 193 CURVE SMOOTH",
"144 511 LINE SMOOTH",
"144 584 OFFCURVE",
"176 640 OFFCURVE",
"256 640 CURVE SMOOTH",
"336 640 OFFCURVE",
"368 584 OFFCURVE",
"368 511 CURVE SMOOTH",
"368 193 LINE SMOOTH",
"368 120 OFFCURVE",
"336 64 OFFCURVE",
"256 64 CURVE SMOOTH"
);
},
{
closed = 1;
nodes = (
"292 288 OFFCURVE",
"320 316 OFFCURVE",
"320 353 CURVE SMOOTH",
"320 389 OFFCURVE",
"292 416 OFFCURVE",
"256 416 CURVE SMOOTH",
"220 416 OFFCURVE",
"192 389 OFFCURVE",
"192 353 CURVE SMOOTH",
"192 316 OFFCURVE",
"220 288 OFFCURVE",
"256 288 CURVE SMOOTH"
);
}
);
width = 512;
},
{
associatedMasterId = m01;
layerId = "9EF63449-F1DF-4E9B-B343-41ADE424871D";
name = "May 30, 22, 20:17";
paths = (
{
closed = 1;
nodes = (
"384 -16 OFFCURVE",
"440 64 OFFCURVE",
"440 177 CURVE SMOOTH",
"440 527 LINE SMOOTH",
"440 640 OFFCURVE",
"384 720 OFFCURVE",
"256 720 CURVE SMOOTH",
"128 720 OFFCURVE",
"72 640 OFFCURVE",
"72 527 CURVE SMOOTH",
"72 177 LINE SMOOTH",
"72 64 OFFCURVE",
"128 -16 OFFCURVE",
"256 -16 CURVE SMOOTH"
);
},
{
closed = 1;
nodes = (
"176 64 OFFCURVE",
"144 112 OFFCURVE",
"144 193 CURVE SMOOTH",
"144 511 LINE SMOOTH",
"144 592 OFFCURVE",
"176 640 OFFCURVE",
"256 640 CURVE SMOOTH",
"336 640 OFFCURVE",
"368 592 OFFCURVE",
"368 511 CURVE SMOOTH",
"368 193 LINE SMOOTH",
"368 112 OFFCURVE",
"336 64 OFFCURVE",
"256 64 CURVE SMOOTH"
);
}
);
visible = 1;
width = 512;
}
);
unicode = 0030;
},
{
color = 5;
glyphname = one;
layers = (
{
layerId = m01;
paths = (
{
closed = 1;
nodes = (
"448 0 LINE",
"456 8 LINE",
"456 72 LINE",
"448 80 LINE",
"306 80 LINE",
"298 88 LINE",
"298 696 LINE",
"290 704 LINE",
"234 704 LINE",
"226 696 LINE",
"226 612 OFFCURVE",
"139 593 OFFCURVE",
"83 593 CURVE SMOOTH",
"61 593 LINE",
"53 584 LINE",
"53 521 LINE",
"61 513 LINE",
"83 513 LINE SMOOTH",
"140 513 OFFCURVE",
"181 528 OFFCURVE",
"218 569 CURVE",
"226 569 LINE",
"226 88 LINE",
"218 80 LINE",
"64 80 LINE",
"56 72 LINE",
"56 8 LINE",
"64 0 LINE"
);
}
);
width = 512;
},
{
layerId = "4FBB1917-F682-4041-B654-F2E0D2EF1242";
paths = (
{
closed = 1;
nodes = (
"464 0 LINE",
"472 8 LINE",
"472 72 LINE",
"464 80 LINE",
"306 80 LINE",
"298 88 LINE",
"298 696 LINE",
"290 704 LINE",
"234 704 LINE",
"226 696 LINE",
"226 612 OFFCURVE",
"139 585 OFFCURVE",
"83 585 CURVE SMOOTH",
"61 585 LINE",
"53 576 LINE",
"53 513 LINE",
"61 505 LINE",
"83 505 LINE SMOOTH",
"140 505 OFFCURVE",
"175 512 OFFCURVE",
"218 553 CURVE",
"226 553 LINE",
"226 88 LINE",
"218 80 LINE",
"48 80 LINE",
"40 72 LINE",
"40 8 LINE",
"48 0 LINE"
);
}
);
width = 512;
}
);
unicode = 0031;
},
{
color = 5;
glyphname = two;
layers = (
{
layerId = m01;
paths = (
{
closed = 1;
nodes = (
"424 0 LINE",
"432 8 LINE",
"432 72 LINE",
"424 80 LINE",
"160 80 LINE",
"152 88 LINE",
"152 120 LINE SMOOTH",
"152 196 OFFCURVE",
"177 228 OFFCURVE",
"233 259 CURVE SMOOTH",
"305 299 LINE SMOOTH",
"403 353 OFFCURVE",
"424 386 OFFCURVE",
"424 462 CURVE SMOOTH",
"424 548 LINE SMOOTH",
"424 667 OFFCURVE",
"365 720 OFFCURVE",
"256 720 CURVE SMOOTH",
"139 720 OFFCURVE",
"88 655 OFFCURVE",
"88 552 CURVE SMOOTH",
"88 472 LINE",
"96 464 LINE",
"152 464 LINE",
"160 472 LINE",
"160 552 LINE SMOOTH",
"160 615 OFFCURVE",
"195 640 OFFCURVE",
"256 640 CURVE SMOOTH",
"316 640 OFFCURVE",
"352 613 OFFCURVE",
"352 536 CURVE SMOOTH",
"352 475 LINE SMOOTH",
"352 432 OFFCURVE",
"340 399 OFFCURVE",
"288 370 CURVE SMOOTH",
"216 330 LINE SMOOTH",
"114 273 OFFCURVE",
"80 245 OFFCURVE",
"80 118 CURVE SMOOTH",
"80 8 LINE",
"88 0 LINE"
);
}
);
width = 512;
},
{
layerId = "4FBB1917-F682-4041-B654-F2E0D2EF1242";
paths = (
{
closed = 1;
nodes = (
"432 0 LINE",
"440 8 LINE",
"440 72 LINE",
"432 80 LINE",
"152 80 LINE",
"144 88 LINE",
"144 112 LINE SMOOTH",
"144 188 OFFCURVE",
"185 220 OFFCURVE",
"241 251 CURVE SMOOTH",
"313 291 LINE SMOOTH",
"411 345 OFFCURVE",
"432 386 OFFCURVE",
"432 462 CURVE SMOOTH",
"432 548 LINE SMOOTH",
"432 667 OFFCURVE",
"364 720 OFFCURVE",
"255 720 CURVE SMOOTH",
"138 720 OFFCURVE",
"80 655 OFFCURVE",
"80 552 CURVE SMOOTH",
"80 520 LINE",
"88 512 LINE",
"144 512 LINE",
"152 520 LINE",
"152 552 LINE SMOOTH",
"152 615 OFFCURVE",
"195 640 OFFCURVE",
"256 640 CURVE SMOOTH",
"316 640 OFFCURVE",
"360 613 OFFCURVE",
"360 536 CURVE SMOOTH",
"360 475 LINE SMOOTH",
"360 432 OFFCURVE",
"340 399 OFFCURVE",
"288 370 CURVE SMOOTH",
"216 330 LINE SMOOTH",
"114 273 OFFCURVE",
"72 237 OFFCURVE",
"72 110 CURVE SMOOTH",
"72 8 LINE",
"80 0 LINE"
);
}
);
width = 512;
}
);
unicode = 0032;
},
{
color = 5;
glyphname = three;
layers = (
{
layerId = m01;
paths = (
{
closed = 1;
nodes = (
"364 -16 OFFCURVE",
"432 33 OFFCURVE",
"432 152 CURVE SMOOTH",
"432 264 LINE SMOOTH",
"432 319 OFFCURVE",
"391 348 OFFCURVE",
"361 355 CURVE",
"361 365 LINE",
"393 372 OFFCURVE",
"432 399 OFFCURVE",
"432 451 CURVE SMOOTH",
"432 568 LINE SMOOTH",
"432 687 OFFCURVE",
"364 720 OFFCURVE",
"255 720 CURVE SMOOTH",
"138 720 OFFCURVE",
"80 671 OFFCURVE",
"80 568 CURVE SMOOTH",
"80 520 LINE",
"88 512 LINE",
"144 512 LINE",
"152 520 LINE",
"152 552 LINE SMOOTH",
"152 615 OFFCURVE",
"195 640 OFFCURVE",
"256 640 CURVE SMOOTH",
"316 640 OFFCURVE",
"360 631 OFFCURVE",
"360 552 CURVE SMOOTH",
"360 467 LINE SMOOTH",
"360 424 OFFCURVE",
"340 402 OFFCURVE",
"281 402 CURVE SMOOTH",
"209 402 LINE",
"201 394 LINE",
"201 330 LINE",
"209 322 LINE",
"281 322 LINE SMOOTH",
"340 322 OFFCURVE",
"360 296 OFFCURVE",
"360 257 CURVE SMOOTH",
"360 168 LINE SMOOTH",
"360 91 OFFCURVE",
"316 64 OFFCURVE",
"256 64 CURVE SMOOTH",
"195 64 OFFCURVE",
"152 89 OFFCURVE",
"152 152 CURVE SMOOTH",
"152 184 LINE",
"144 192 LINE",
"88 192 LINE",
"80 184 LINE",
"80 136 LINE SMOOTH",
"80 33 OFFCURVE",
"138 -16 OFFCURVE",
"255 -16 CURVE SMOOTH"
);
}
);
width = 512;
},
{
layerId = "4FBB1917-F682-4041-B654-F2E0D2EF1242";
paths = (
{
closed = 1;
nodes = (
"364 -16 OFFCURVE",
"432 37 OFFCURVE",
"432 156 CURVE SMOOTH",
"432 267 LINE SMOOTH",
"432 322 OFFCURVE",
"391 351 OFFCURVE",
"361 358 CURVE",
"361 368 LINE",
"393 375 OFFCURVE",
"432 402 OFFCURVE",
"432 454 CURVE SMOOTH",
"432 548 LINE SMOOTH",
"432 667 OFFCURVE",
"364 720 OFFCURVE",
"255 720 CURVE SMOOTH",
"138 720 OFFCURVE",
"80 655 OFFCURVE",
"80 552 CURVE SMOOTH",
"80 520 LINE",
"88 512 LINE",
"144 512 LINE",
"152 520 LINE",
"152 552 LINE SMOOTH",
"152 615 OFFCURVE",
"195 640 OFFCURVE",
"256 640 CURVE SMOOTH",
"316 640 OFFCURVE",
"360 613 OFFCURVE",
"360 536 CURVE SMOOTH",
"360 467 LINE SMOOTH",
"360 424 OFFCURVE",
"340 402 OFFCURVE",
"281 402 CURVE SMOOTH",
"209 402 LINE",
"201 394 LINE",
"201 330 LINE",
"209 322 LINE",
"281 322 LINE SMOOTH",
"340 322 OFFCURVE",
"360 296 OFFCURVE",
"360 257 CURVE SMOOTH",
"360 168 LINE SMOOTH",
"360 91 OFFCURVE",
"316 64 OFFCURVE",
"256 64 CURVE SMOOTH",
"195 64 OFFCURVE",
"152 89 OFFCURVE",
"152 152 CURVE SMOOTH",
"152 184 LINE",
"144 192 LINE",
"88 192 LINE",
"80 184 LINE",
"80 152 LINE SMOOTH",
"80 49 OFFCURVE",
"138 -16 OFFCURVE",
"255 -16 CURVE SMOOTH"
);
}
);
width = 512;
}
);
unicode = 0033;
},
{
color = 5;
glyphname = four;
layers = (
{
layerId = m01;
paths = (
{
closed = 1;
nodes = (
"156 300 LINE",
"288 616 LINE",
"296 616 LINE",
"296 300 LINE",
"288 292 LINE",
"164 292 LINE"
);
},
{
closed = 1;
nodes = (
"360 0 LINE",
"368 8 LINE",
"368 204 LINE",
"376 212 LINE",
"424 212 LINE",
"432 220 LINE",
"432 284 LINE",
"424 292 LINE",
"376 292 LINE",
"368 300 LINE",
"368 696 LINE",
"360 704 LINE",
"268 704 LINE",
"260 696 LINE",
"80 292 LINE",
"80 220 LINE",
"88 212 LINE",
"288 212 LINE",
"296 204 LINE",
"296 8 LINE",
"304 0 LINE"
);
}
);
width = 512;
},
{
layerId = "4FBB1917-F682-4041-B654-F2E0D2EF1242";
paths = (
{
closed = 1;
nodes = (
"148 300 LINE",
"296 616 LINE",
"304 616 LINE",
"304 300 LINE",
"296 292 LINE",
"156 292 LINE"
);
},
{
closed = 1;
nodes = (
"368 0 LINE",
"376 8 LINE",
"376 204 LINE",
"384 212 LINE",
"432 212 LINE",
"440 220 LINE",
"440 284 LINE",
"432 292 LINE",
"384 292 LINE",
"376 300 LINE",
"376 696 LINE",
"368 704 LINE",
"276 704 LINE",
"268 696 LINE",
"72 292 LINE",
"72 220 LINE",
"80 212 LINE",
"296 212 LINE",
"304 204 LINE",
"304 8 LINE",
"312 0 LINE"
);
}
);
width = 512;
}
);
unicode = 0034;
},
{
color = 5;
glyphname = five;
layers = (
{
layerId = m01;
paths = (
{
closed = 1;
nodes = (
"393 -16 OFFCURVE",
"432 39 OFFCURVE",
"432 155 CURVE SMOOTH",
"432 302 LINE SMOOTH",
"432 434 OFFCURVE",
"375 483 OFFCURVE",
"260 483 CURVE SMOOTH",
"190 483 LINE",
"182 491 LINE",
"182 616 LINE",
"190 624 LINE",
"371 624 LINE",
"379 632 LINE",
"379 696 LINE",
"371 704 LINE",
"118 704 LINE",
"110 696 LINE",
"110 411 LINE",
"118 403 LINE",
"249 403 LINE SMOOTH",
"322 403 OFFCURVE",
"360 353 OFFCURVE",
"360 286 CURVE SMOOTH",
"360 171 LINE SMOOTH",
"360 87 OFFCURVE",
"341 64 OFFCURVE",
"249 64 CURVE SMOOTH",
"192 64 OFFCURVE",
"152 66 OFFCURVE",
"152 171 CURVE SMOOTH",
"152 200 LINE",
"144 208 LINE",
"88 208 LINE",
"80 200 LINE",
"80 155 LINE SMOOTH",
"80 40 OFFCURVE",
"106 -16 OFFCURVE",
"249 -16 CURVE SMOOTH"
);
}
);
width = 512;
},
{
layerId = "4FBB1917-F682-4041-B654-F2E0D2EF1242";
paths = (
{
closed = 1;
nodes = (
"393 -16 OFFCURVE",
"440 64 OFFCURVE",
"440 180 CURVE SMOOTH",
"440 291 LINE SMOOTH",
"440 423 OFFCURVE",
"375 483 OFFCURVE",
"260 483 CURVE SMOOTH",
"190 483 LINE",
"182 491 LINE",
"182 616 LINE",
"190 624 LINE",
"379 624 LINE",
"387 632 LINE",
"387 696 LINE",
"379 704 LINE",
"118 704 LINE",
"110 696 LINE",
"110 411 LINE",
"118 403 LINE",
"249 403 LINE SMOOTH",
"322 403 OFFCURVE",
"368 353 OFFCURVE",
"368 286 CURVE SMOOTH",
"368 187 LINE SMOOTH",
"368 103 OFFCURVE",
"341 64 OFFCURVE",
"249 64 CURVE SMOOTH",
"192 64 OFFCURVE",
"144 87 OFFCURVE",
"144 192 CURVE SMOOTH",
"144 216 LINE",
"136 224 LINE",
"80 224 LINE",
"72 216 LINE",
"72 186 LINE SMOOTH",
"72 71 OFFCURVE",
"106 -16 OFFCURVE",
"249 -16 CURVE SMOOTH"
);
}
);
width = 512;
}
);
unicode = 0035;
},
{
color = 5;
glyphname = six;
layers = (
{
layerId = m01;
paths = (
{
closed = 1;
nodes = (
"393 -16 OFFCURVE",
"440 53 OFFCURVE",
"440 224 CURVE SMOOTH",
"440 278 LINE SMOOTH",
"440 377 OFFCURVE",
"406 458 OFFCURVE",
"278 458 CURVE SMOOTH",
"231 458 OFFCURVE",
"173 434 OFFCURVE",
"154 405 CURVE",
"142 405 LINE",
"142 435 LINE SMOOTH",
"142 545 OFFCURVE",
"173 640 OFFCURVE",
"256 640 CURVE SMOOTH",
"325 640 OFFCURVE",
"351 602 OFFCURVE",
"351 536 CURVE SMOOTH",
"351 520 LINE",
"359 512 LINE",
"415 512 LINE",
"423 520 LINE",
"423 544 LINE SMOOTH",
"423 653 OFFCURVE",
"379 720 OFFCURVE",
"256 720 CURVE SMOOTH",
"117 720 OFFCURVE",
"72 590 OFFCURVE",
"72 435 CURVE SMOOTH",
"72 244 LINE SMOOTH",
"72 49 OFFCURVE",
"119 -16 OFFCURVE",
"256 -16 CURVE SMOOTH"
);
},
{
closed = 1;
nodes = (
"176 64 OFFCURVE",
"142 116 OFFCURVE",
"142 237 CURVE SMOOTH",
"142 266 LINE SMOOTH",
"142 325 OFFCURVE",
"183 374 OFFCURVE",
"256 374 CURVE SMOOTH",
"336 374 OFFCURVE",
"379 325 OFFCURVE",
"379 266 CURVE SMOOTH",
"379 205 LINE SMOOTH",
"379 84 OFFCURVE",
"336 64 OFFCURVE",
"256 64 CURVE SMOOTH"
);
}
);
width = 512;
},
{
layerId = "4FBB1917-F682-4041-B654-F2E0D2EF1242";
paths = (
{
closed = 1;
nodes = (
"393 -16 OFFCURVE",
"440 53 OFFCURVE",
"440 224 CURVE SMOOTH",
"440 278 LINE SMOOTH",
"440 377 OFFCURVE",
"406 458 OFFCURVE",
"278 458 CURVE SMOOTH",
"231 458 OFFCURVE",
"173 434 OFFCURVE",
"154 405 CURVE",
"142 405 LINE",
"142 435 LINE SMOOTH",
"142 545 OFFCURVE",
"173 640 OFFCURVE",
"256 640 CURVE SMOOTH",
"325 640 OFFCURVE",
"351 602 OFFCURVE",
"351 536 CURVE SMOOTH",
"351 520 LINE",
"359 512 LINE",
"415 512 LINE",
"423 520 LINE",
"423 544 LINE SMOOTH",
"423 653 OFFCURVE",
"379 720 OFFCURVE",
"256 720 CURVE SMOOTH",
"117 720 OFFCURVE",
"72 590 OFFCURVE",
"72 435 CURVE SMOOTH",
"72 244 LINE SMOOTH",
"72 49 OFFCURVE",
"119 -16 OFFCURVE",
"256 -16 CURVE SMOOTH"
);
},
{
closed = 1;
nodes = (
"176 64 OFFCURVE",
"142 116 OFFCURVE",
"142 237 CURVE SMOOTH",
"142 266 LINE SMOOTH",
"142 325 OFFCURVE",
"183 374 OFFCURVE",
"256 374 CURVE SMOOTH",
"336 374 OFFCURVE",
"379 325 OFFCURVE",
"379 266 CURVE SMOOTH",
"379 205 LINE SMOOTH",
"379 84 OFFCURVE",
"336 64 OFFCURVE",
"256 64 CURVE SMOOTH"
);
}
);
width = 512;
}
);
unicode = 0036;
},
{
color = 5;
glyphname = seven;
layers = (
{
layerId = m01;
paths = (
{
closed = 1;
nodes = (
"237 0 LINE",
"245 8 LINE",
"245 47 LINE SMOOTH",
"245 287 OFFCURVE",
"322 431 OFFCURVE",
"440 624 CURVE",
"440 704 LINE",
"428 704 LINE",
"72 704 LINE",
"72 695 LINE",
"72 636 LINE",
"72 624 LINE",
"365 624 LINE",
"269 468 OFFCURVE",
"173 312 OFFCURVE",
"173 39 CURVE SMOOTH",
"173 8 LINE",
"181 0 LINE"
);
}
);
width = 512;
},
{
layerId = "4FBB1917-F682-4041-B654-F2E0D2EF1242";
paths = (
{
closed = 1;
nodes = (
"237 0 LINE",
"245 8 LINE",
"245 47 LINE SMOOTH",
"245 287 OFFCURVE",
"322 431 OFFCURVE",
"440 624 CURVE",
"440 704 LINE",
"428 704 LINE",
"72 704 LINE",
"72 695 LINE",
"72 636 LINE",
"72 624 LINE",
"365 624 LINE",
"269 468 OFFCURVE",
"173 312 OFFCURVE",
"173 39 CURVE SMOOTH",
"173 8 LINE",
"181 0 LINE"
);
}
);
width = 512;
}
);
unicode = 0037;
},
{
color = 5;
glyphname = eight;
layers = (
{
layerId = m01;
paths = (
{
closed = 1;
nodes = (
"402 -16 OFFCURVE",
"440 48.333 OFFCURVE",
"440 135 CURVE SMOOTH",
"440 219 LINE SMOOTH",
"440 319 OFFCURVE",
"421 357.667 OFFCURVE",
"345 367 CURVE",
"345 396 LINE",
"405 402.667 OFFCURVE",
"425 428 OFFCURVE",
"425 516 CURVE SMOOTH",
"425 562 LINE SMOOTH",
"425 651.333 OFFCURVE",
"392.667 720 OFFCURVE",
"258 720 CURVE SMOOTH",
"123.333 720 OFFCURVE",
"87 651.333 OFFCURVE",
"87 562 CURVE SMOOTH",
"87 516 LINE SMOOTH",
"87 428 OFFCURVE",
"110 402.667 OFFCURVE",
"170 396 CURVE",
"170 367 LINE",
"94 357.667 OFFCURVE",
"72 320 OFFCURVE",
"72 219 CURVE SMOOTH",
"72 135 LINE SMOOTH",
"72 49 OFFCURVE",
"112.667 -16 OFFCURVE",
"258 -16 CURVE SMOOTH"
);
},
{
closed = 1;
nodes = (
"182 421 OFFCURVE",
"178 452.333 OFFCURVE",
"178 511 CURVE SMOOTH",
"178 553 LINE SMOOTH",
"178 601 OFFCURVE",
"182 642 OFFCURVE",
"258 642 CURVE SMOOTH",
"334 642 OFFCURVE",
"334 601 OFFCURVE",
"334 553 CURVE SMOOTH",
"334 511 LINE SMOOTH",
"334 452.333 OFFCURVE",
"334 421 OFFCURVE",
"258 421 CURVE SMOOTH"
);
},
{
closed = 1;
nodes = (
"170 62 OFFCURVE",
"163 100 OFFCURVE",
"163 144 CURVE SMOOTH",
"163 224 LINE SMOOTH",
"163 301.333 OFFCURVE",
"170 339 OFFCURVE",
"258 339 CURVE SMOOTH",
"344.667 339 OFFCURVE",
"349 301.333 OFFCURVE",
"349 224 CURVE SMOOTH",
"349 144 LINE SMOOTH",
"349 100 OFFCURVE",
"344.667 62 OFFCURVE",
"258 62 CURVE SMOOTH"
);
}
);
width = 512;
},
{
layerId = "4FBB1917-F682-4041-B654-F2E0D2EF1242";
paths = (
{
closed = 1;
nodes = (
"402 -16 OFFCURVE",
"440 48.333 OFFCURVE",
"440 135 CURVE SMOOTH",
"440 219 LINE SMOOTH",
"440 319 OFFCURVE",
"421 357.667 OFFCURVE",
"345 367 CURVE",
"345 396 LINE",
"405 402.667 OFFCURVE",
"425 428 OFFCURVE",
"425 516 CURVE SMOOTH",
"425 562 LINE SMOOTH",
"425 651.333 OFFCURVE",
"392.667 720 OFFCURVE",
"258 720 CURVE SMOOTH",
"123.333 720 OFFCURVE",
"87 651.333 OFFCURVE",
"87 562 CURVE SMOOTH",
"87 516 LINE SMOOTH",
"87 428 OFFCURVE",
"110 402.667 OFFCURVE",
"170 396 CURVE",
"170 367 LINE",
"94 357.667 OFFCURVE",
"72 320 OFFCURVE",
"72 219 CURVE SMOOTH",
"72 135 LINE SMOOTH",
"72 49 OFFCURVE",
"112.667 -16 OFFCURVE",
"258 -16 CURVE SMOOTH"
);
},
{
closed = 1;
nodes = (
"182 421 OFFCURVE",
"178 452.333 OFFCURVE",
"178 511 CURVE SMOOTH",
"178 553 LINE SMOOTH",
"178 601 OFFCURVE",
"182 642 OFFCURVE",
"258 642 CURVE SMOOTH",
"334 642 OFFCURVE",
"334 601 OFFCURVE",
"334 553 CURVE SMOOTH",
"334 511 LINE SMOOTH",
"334 452.333 OFFCURVE",
"334 421 OFFCURVE",
"258 421 CURVE SMOOTH"
);
},
{
closed = 1;
nodes = (
"170 62 OFFCURVE",
"163 100 OFFCURVE",
"163 144 CURVE SMOOTH",
"163 224 LINE SMOOTH",
"163 301.333 OFFCURVE",
"170 339 OFFCURVE",
"258 339 CURVE SMOOTH",
"344.667 339 OFFCURVE",
"349 301.333 OFFCURVE",
"349 224 CURVE SMOOTH",
"349 144 LINE SMOOTH",
"349 100 OFFCURVE",
"344.667 62 OFFCURVE",
"258 62 CURVE SMOOTH"
);
}
);
width = 512;
}
);
unicode = 0038;
},
{
color = 5;
glyphname = nine;
layers = (
{
layerId = m01;
paths = (
{
closed = 1;
nodes = (
"395 -16 OFFCURVE",
"440 114 OFFCURVE",
"440 269 CURVE SMOOTH",
"440 460 LINE SMOOTH",
"440 655 OFFCURVE",
"393 720 OFFCURVE",
"256 720 CURVE SMOOTH",
"119 720 OFFCURVE",
"72 651 OFFCURVE",
"72 480 CURVE SMOOTH",
"72 426 LINE SMOOTH",
"72 327 OFFCURVE",
"106 246 OFFCURVE",
"234 246 CURVE SMOOTH",
"281 246 OFFCURVE",
"339 270 OFFCURVE",
"358 299 CURVE",
"370 299 LINE",
"370 269 LINE SMOOTH",
"370 159 OFFCURVE",
"339 64 OFFCURVE",
"256 64 CURVE SMOOTH",
"187 64 OFFCURVE",
"161 102 OFFCURVE",
"161 168 CURVE SMOOTH",
"161 184 LINE",
"153 192 LINE",
"97 192 LINE",
"89 184 LINE",
"89 160 LINE SMOOTH",
"89 51 OFFCURVE",
"133 -16 OFFCURVE",
"256 -16 CURVE SMOOTH"
);
},
{
closed = 1;
nodes = (
"336 640 OFFCURVE",
"370 588 OFFCURVE",
"370 467 CURVE SMOOTH",
"370 438 LINE SMOOTH",
"370 379 OFFCURVE",
"329 330 OFFCURVE",
"256 330 CURVE SMOOTH",
"176 330 OFFCURVE",
"133 379 OFFCURVE",
"133 438 CURVE SMOOTH",
"133 499 LINE SMOOTH",
"133 620 OFFCURVE",
"176 640 OFFCURVE",
"256 640 CURVE SMOOTH"
);
}
);
width = 512;
},
{
layerId = "4FBB1917-F682-4041-B654-F2E0D2EF1242";
paths = (
{
closed = 1;
nodes = (
"395 -16 OFFCURVE",
"440 114 OFFCURVE",
"440 269 CURVE SMOOTH",
"440 460 LINE SMOOTH",
"440 655 OFFCURVE",
"393 720 OFFCURVE",
"256 720 CURVE SMOOTH",
"119 720 OFFCURVE",
"72 651 OFFCURVE",
"72 480 CURVE SMOOTH",
"72 426 LINE SMOOTH",
"72 327 OFFCURVE",
"106 246 OFFCURVE",
"234 246 CURVE SMOOTH",
"281 246 OFFCURVE",
"339 270 OFFCURVE",
"358 299 CURVE",
"370 299 LINE",
"370 269 LINE SMOOTH",
"370 159 OFFCURVE",
"339 64 OFFCURVE",
"256 64 CURVE SMOOTH",
"187 64 OFFCURVE",
"161 102 OFFCURVE",
"161 168 CURVE SMOOTH",
"161 184 LINE",
"153 192 LINE",
"97 192 LINE",
"89 184 LINE",
"89 160 LINE SMOOTH",
"89 51 OFFCURVE",
"133 -16 OFFCURVE",
"256 -16 CURVE SMOOTH"
);
},
{
closed = 1;
nodes = (
"336 640 OFFCURVE",
"370 588 OFFCURVE",
"370 467 CURVE SMOOTH",
"370 438 LINE SMOOTH",
"370 379 OFFCURVE",
"329 330 OFFCURVE",
"256 330 CURVE SMOOTH",
"176 330 OFFCURVE",
"133 379 OFFCURVE",
"133 438 CURVE SMOOTH",
"133 499 LINE SMOOTH",
"133 620 OFFCURVE",
"176 640 OFFCURVE",
"256 640 CURVE SMOOTH"
);
}
);
width = 512;
}
);
unicode = 0039;
},
{
color = 5;
glyphname = period;
layers = (
{
layerId = m01;
paths = (
{
closed = 1;
nodes = (
"292 -16 OFFCURVE",
"320 12 OFFCURVE",
"320 49 CURVE SMOOTH",
"320 85 OFFCURVE",
"292 112 OFFCURVE",
"256 112 CURVE SMOOTH",
"220 112 OFFCURVE",
"192 85 OFFCURVE",
"192 49 CURVE SMOOTH",
"192 12 OFFCURVE",
"220 -16 OFFCURVE",
"256 -16 CURVE SMOOTH"
);
}
);
width = 512;
},
{
layerId = "4FBB1917-F682-4041-B654-F2E0D2EF1242";
paths = (
{
closed = 1;
nodes = (
"310 -16 OFFCURVE",
"352 26 OFFCURVE",
"352 81 CURVE SMOOTH",
"352 135 OFFCURVE",
"310 176 OFFCURVE",
"256 176 CURVE SMOOTH",
"202 176 OFFCURVE",
"160 135 OFFCURVE",
"160 81 CURVE SMOOTH",
"160 26 OFFCURVE",
"202 -16 OFFCURVE",
"256 -16 CURVE SMOOTH"
);
}
);
width = 512;
}
);
unicode = 002E;
},
{
color = 5;
glyphname = comma;
layers = (
{
layerId = m01;
paths = (
{
closed = 1;
nodes = (
"284 -208 LINE",
"292 -200 LINE",
"292 144 LINE",
"284 152 LINE",
"228 152 LINE",
"220 144 LINE",
"220 -200 LINE",
"228 -208 LINE"
);
}
);
width = 512;
},
{
layerId = "4FBB1917-F682-4041-B654-F2E0D2EF1242";
paths = (
{
closed = 1;
nodes = (
"284 -208 LINE",
"292 -200 LINE",
"292 144 LINE",
"284 152 LINE",
"228 152 LINE",
"220 144 LINE",
"220 -200 LINE",
"228 -208 LINE"
);
}
);
width = 512;
}
);
unicode = 002C;
},
{
color = 5;
glyphname = colon;
layers = (
{
layerId = m01;
paths = (
{
closed = 1;
nodes = (
"292 -16 OFFCURVE",
"320 12 OFFCURVE",
"320 49 CURVE SMOOTH",
"320 85 OFFCURVE",
"292 112 OFFCURVE",
"256 112 CURVE SMOOTH",
"220 112 OFFCURVE",
"192 85 OFFCURVE",
"192 49 CURVE SMOOTH",
"192 12 OFFCURVE",
"220 -16 OFFCURVE",
"256 -16 CURVE SMOOTH"
);
},
{
closed = 1;
nodes = (
"292 368 OFFCURVE",
"320 396 OFFCURVE",
"320 433 CURVE SMOOTH",
"320 469 OFFCURVE",
"292 496 OFFCURVE",
"256 496 CURVE SMOOTH",
"220 496 OFFCURVE",
"192 469 OFFCURVE",
"192 433 CURVE SMOOTH",
"192 396 OFFCURVE",
"220 368 OFFCURVE",
"256 368 CURVE SMOOTH"
);
}
);
width = 512;
},
{
layerId = "4FBB1917-F682-4041-B654-F2E0D2EF1242";
paths = (
{
closed = 1;
nodes = (
"310 -16 OFFCURVE",
"352 26 OFFCURVE",
"352 81 CURVE SMOOTH",
"352 135 OFFCURVE",
"310 176 OFFCURVE",
"256 176 CURVE SMOOTH",
"202 176 OFFCURVE",
"160 135 OFFCURVE",
"160 81 CURVE SMOOTH",
"160 26 OFFCURVE",
"202 -16 OFFCURVE",
"256 -16 CURVE SMOOTH"
);
},
{
closed = 1;
nodes = (
"310 336 OFFCURVE",
"352 378 OFFCURVE",
"352 433 CURVE SMOOTH",
"352 487 OFFCURVE",
"310 528 OFFCURVE",
"256 528 CURVE SMOOTH",
"202 528 OFFCURVE",
"160 487 OFFCURVE",
"160 433 CURVE SMOOTH",
"160 378 OFFCURVE",
"202 336 OFFCURVE",
"256 336 CURVE SMOOTH"
);
}
);
width = 512;
}
);
unicode = 003A;
},
{
color = 5;
glyphname = semicolon;
layers = (
{
layerId = m01;
paths = (
{
closed = 1;
nodes = (
"310 -144 OFFCURVE",
"352 26 OFFCURVE",
"352 81 CURVE SMOOTH",
"352 135 OFFCURVE",
"310 176 OFFCURVE",
"256 176 CURVE SMOOTH",
"202 176 OFFCURVE",
"160 135 OFFCURVE",
"160 81 CURVE SMOOTH",
"160 0 OFFCURVE",
"215 0 OFFCURVE",
"215 -40 CURVE SMOOTH",
"215 -127 OFFCURVE",
"233 -144 OFFCURVE",
"256 -144 CURVE SMOOTH"
);
},
{
closed = 1;
nodes = (
"310 336 OFFCURVE",
"352 378 OFFCURVE",
"352 433 CURVE SMOOTH",
"352 487 OFFCURVE",
"310 528 OFFCURVE",
"256 528 CURVE SMOOTH",
"202 528 OFFCURVE",
"160 487 OFFCURVE",
"160 433 CURVE SMOOTH",
"160 378 OFFCURVE",
"202 336 OFFCURVE",
"256 336 CURVE SMOOTH"
);
}
);
width = 512;
},
{
layerId = "4FBB1917-F682-4041-B654-F2E0D2EF1242";
paths = (
{
closed = 1;
nodes = (
"310 -144 OFFCURVE",
"352 26 OFFCURVE",
"352 81 CURVE SMOOTH",
"352 135 OFFCURVE",
"310 176 OFFCURVE",
"256 176 CURVE SMOOTH",
"202 176 OFFCURVE",
"160 135 OFFCURVE",
"160 81 CURVE SMOOTH",
"160 0 OFFCURVE",
"215 0 OFFCURVE",
"215 -40 CURVE SMOOTH",
"215 -127 OFFCURVE",
"233 -144 OFFCURVE",
"256 -144 CURVE SMOOTH"
);
},
{
closed = 1;
nodes = (
"310 336 OFFCURVE",
"352 378 OFFCURVE",
"352 433 CURVE SMOOTH",
"352 487 OFFCURVE",
"310 528 OFFCURVE",
"256 528 CURVE SMOOTH",
"202 528 OFFCURVE",
"160 487 OFFCURVE",
"160 433 CURVE SMOOTH",
"160 378 OFFCURVE",
"202 336 OFFCURVE",
"256 336 CURVE SMOOTH"
);
}
);
width = 512;
}
);
unicode = 003B;
},
{
color = 5;
glyphname = exclam;
layers = (
{
layerId = m01;
paths = (
{
closed = 1;
nodes = (
"284 192 LINE",
"292 200 LINE",
"292 696 LINE",
"284 704 LINE",
"228 704 LINE",
"220 696 LINE",
"220 200 LINE",
"228 192 LINE"
);
},
{
closed = 1;
nodes = (
"292 -16 OFFCURVE",
"320 12 OFFCURVE",
"320 49 CURVE SMOOTH",
"320 85 OFFCURVE",
"292 112 OFFCURVE",
"256 112 CURVE SMOOTH",
"220 112 OFFCURVE",
"192 85 OFFCURVE",
"192 49 CURVE SMOOTH",
"192 12 OFFCURVE",
"220 -16 OFFCURVE",
"256 -16 CURVE SMOOTH"
);
}
);
width = 512;
},
{
layerId = "4FBB1917-F682-4041-B654-F2E0D2EF1242";
paths = (
{
closed = 1;
nodes = (
"284 192 LINE",
"292 200 LINE",
"292 696 LINE",
"284 704 LINE",
"228 704 LINE",
"220 696 LINE",
"220 200 LINE",
"228 192 LINE"
);
},
{
closed = 1;
nodes = (
"292 -16 OFFCURVE",
"320 12 OFFCURVE",
"320 49 CURVE SMOOTH",
"320 85 OFFCURVE",
"292 112 OFFCURVE",
"256 112 CURVE SMOOTH",
"220 112 OFFCURVE",
"192 85 OFFCURVE",
"192 49 CURVE SMOOTH",
"192 12 OFFCURVE",
"220 -16 OFFCURVE",
"256 -16 CURVE SMOOTH"
);
}
);
width = 512;
}
);
unicode = 0021;
},
{
color = 5;
glyphname = exclamdown;
layers = (
{
layerId = m01;
paths = (
{
closed = 1;
nodes = (
"284 0 LINE",
"292 8 LINE",
"292 504 LINE",
"284 512 LINE",
"228 512 LINE",
"220 504 LINE",
"220 8 LINE",
"228 0 LINE"
);
},
{
closed = 1;
nodes = (
"292 592 OFFCURVE",
"320 619 OFFCURVE",
"320 655 CURVE SMOOTH",
"320 692 OFFCURVE",
"292 720 OFFCURVE",
"256 720 CURVE SMOOTH",
"220 720 OFFCURVE",
"192 692 OFFCURVE",
"192 655 CURVE SMOOTH",
"192 619 OFFCURVE",
"220 592 OFFCURVE",
"256 592 CURVE SMOOTH"
);
}
);
width = 512;
},
{
layerId = "4FBB1917-F682-4041-B654-F2E0D2EF1242";
paths = (
{
closed = 1;
nodes = (
"284 0 LINE",
"292 8 LINE",
"292 504 LINE",
"284 512 LINE",
"228 512 LINE",
"220 504 LINE",
"220 8 LINE",
"228 0 LINE"
);
},
{
closed = 1;
nodes = (
"292 592 OFFCURVE",
"320 619 OFFCURVE",
"320 655 CURVE SMOOTH",
"320 692 OFFCURVE",
"292 720 OFFCURVE",
"256 720 CURVE SMOOTH",
"220 720 OFFCURVE",
"192 692 OFFCURVE",
"192 655 CURVE SMOOTH",
"192 619 OFFCURVE",
"220 592 OFFCURVE",
"256 592 CURVE SMOOTH"
);
}
);
width = 512;
}
);
unicode = 00A1;
},
{
color = 5;
glyphname = question;
layers = (
{
layerId = m01;
paths = (
{
closed = 1;
nodes = (
"292 -16 OFFCURVE",
"320 12 OFFCURVE",
"320 49 CURVE SMOOTH",
"320 85 OFFCURVE",
"292 112 OFFCURVE",
"256 112 CURVE SMOOTH",
"220 112 OFFCURVE",
"192 85 OFFCURVE",
"192 49 CURVE SMOOTH",
"192 12 OFFCURVE",
"220 -16 OFFCURVE",
"256 -16 CURVE SMOOTH"
);
},
{
closed = 1;
nodes = (
"237 178 OFFCURVE",
"263 179 OFFCURVE",
"287 182 CURVE SMOOTH",
"296 183 OFFCURVE",
"274 327 OFFCURVE",
"313 330 CURVE SMOOTH",
"385 336 OFFCURVE",
"432 378 OFFCURVE",
"432 454 CURVE SMOOTH",
"432 548 LINE SMOOTH",
"432 667 OFFCURVE",
"364 720 OFFCURVE",
"255 720 CURVE SMOOTH",
"138 720 OFFCURVE",
"80 655 OFFCURVE",
"80 552 CURVE SMOOTH",
"80 520 LINE",
"88 512 LINE",
"144 512 LINE",
"152 520 LINE",
"152 552 LINE SMOOTH",
"152 615 OFFCURVE",
"195 640 OFFCURVE",
"256 640 CURVE SMOOTH",
"316 640 OFFCURVE",
"360 613 OFFCURVE",
"360 536 CURVE SMOOTH",
"360 467 LINE SMOOTH",
"360 424 OFFCURVE",
"340 402 OFFCURVE",
"281 402 CURVE SMOOTH",
"209 402 LINE",
"201 394 LINE",
"201 186 LINE",
"209 178 LINE"
);
}
);
width = 512;
},
{
layerId = "4FBB1917-F682-4041-B654-F2E0D2EF1242";
paths = (
{
closed = 1;
nodes = (
"292 -16 OFFCURVE",
"320 12 OFFCURVE",
"320 49 CURVE SMOOTH",
"320 85 OFFCURVE",
"292 112 OFFCURVE",
"256 112 CURVE SMOOTH",
"220 112 OFFCURVE",
"192 85 OFFCURVE",
"192 49 CURVE SMOOTH",
"192 12 OFFCURVE",
"220 -16 OFFCURVE",
"256 -16 CURVE SMOOTH"
);
},
{
closed = 1;
nodes = (
"237 178 OFFCURVE",
"263 179 OFFCURVE",
"287 182 CURVE SMOOTH",
"296 183 OFFCURVE",
"274 327 OFFCURVE",
"313 330 CURVE SMOOTH",
"385 336 OFFCURVE",
"432 378 OFFCURVE",
"432 454 CURVE SMOOTH",
"432 548 LINE SMOOTH",
"432 667 OFFCURVE",
"364 720 OFFCURVE",
"255 720 CURVE SMOOTH",
"138 720 OFFCURVE",
"80 655 OFFCURVE",
"80 552 CURVE SMOOTH",
"80 520 LINE",
"88 512 LINE",
"144 512 LINE",
"152 520 LINE",
"152 552 LINE SMOOTH",
"152 615 OFFCURVE",
"195 640 OFFCURVE",
"256 640 CURVE SMOOTH",
"316 640 OFFCURVE",
"360 613 OFFCURVE",
"360 536 CURVE SMOOTH",
"360 467 LINE SMOOTH",
"360 424 OFFCURVE",
"340 402 OFFCURVE",
"281 402 CURVE SMOOTH",
"209 402 LINE",
"201 394 LINE",
"201 186 LINE",
"209 178 LINE"
);
}
);
width = 512;
}
);
unicode = 003F;
},
{
color = 5;
glyphname = asterisk;
layers = (
{
layerId = m01;
paths = (
{
closed = 1;
nodes = (
"283 334 LINE",
"289 341 LINE",
"272 471 LINE",
"279 473 LINE",
"358 370 LINE",
"367 370 LINE",
"405 407 LINE",
"405 416 LINE",
"301 497 LINE",
"305 504 LINE",
"434 486 LINE",
"441 492 LINE",
"441 546 LINE",
"434 553 LINE",
"304 536 LINE",
"302 542 LINE",
"405 621 LINE",
"405 631 LINE",
"368 668 LINE",
"359 668 LINE",
"278 565 LINE",
"272 569 LINE",
"289 697 LINE",
"283 704 LINE",
"229 704 LINE",
"222 697 LINE",
"240 569 LINE",
"232 566 LINE",
"153 668 LINE",
"144 668 LINE",
"106 631 LINE",
"106 622 LINE",
"209 543 LINE",
"206 536 LINE",
"78 553 LINE",
"71 546 LINE",
"71 492 LINE",
"78 486 LINE",
"206 504 LINE",
"209 495 LINE",
"107 416 LINE",
"107 407 LINE",
"144 369 LINE",
"153 369 LINE",
"232 472 LINE",
"240 470 LINE",
"222 341 LINE",
"229 334 LINE"
);
}
);
width = 512;
},
{
layerId = "4FBB1917-F682-4041-B654-F2E0D2EF1242";
paths = (
{
closed = 1;
nodes = (
"283 334 LINE",
"289 341 LINE",
"272 471 LINE",
"279 473 LINE",
"358 370 LINE",
"367 370 LINE",
"405 407 LINE",
"405 416 LINE",
"301 497 LINE",
"305 504 LINE",
"434 486 LINE",
"441 492 LINE",
"441 546 LINE",
"434 553 LINE",
"304 536 LINE",
"302 542 LINE",
"405 621 LINE",
"405 631 LINE",
"368 668 LINE",
"359 668 LINE",
"278 565 LINE",
"272 569 LINE",
"289 697 LINE",
"283 704 LINE",
"229 704 LINE",
"222 697 LINE",
"240 569 LINE",
"232 566 LINE",
"153 668 LINE",
"144 668 LINE",
"106 631 LINE",
"106 622 LINE",
"209 543 LINE",
"206 536 LINE",
"78 553 LINE",
"71 546 LINE",
"71 492 LINE",
"78 486 LINE",
"206 504 LINE",
"209 495 LINE",
"107 416 LINE",
"107 407 LINE",
"144 369 LINE",
"153 369 LINE",
"232 472 LINE",
"240 470 LINE",
"222 341 LINE",
"229 334 LINE"
);
}
);
width = 512;
}
);
unicode = 002A;
},
{
color = 5;
glyphname = numbersign;
layers = (
{
layerId = m01;
paths = (
{
closed = 1;
nodes = (
"204 40 LINE",
"212 48 LINE",
"212 196 LINE",
"300 196 LINE",
"300 48 LINE",
"308 40 LINE",
"364 40 LINE",
"372 48 LINE",
"372 196 LINE",
"464 196 LINE",
"472 204 LINE",
"472 260 LINE",
"464 268 LINE",
"372 268 LINE",
"372 436 LINE",
"464 436 LINE",
"472 444 LINE",
"472 500 LINE",
"464 508 LINE",
"372 508 LINE",
"372 656 LINE",
"364 664 LINE",
"308 664 LINE",
"300 656 LINE",
"300 508 LINE",
"212 508 LINE",
"212 656 LINE",
"204 664 LINE",
"148 664 LINE",
"140 656 LINE",
"140 508 LINE",
"48 508 LINE",
"40 500 LINE",
"40 444 LINE",
"48 436 LINE",
"140 436 LINE",
"140 268 LINE",
"48 268 LINE",
"40 260 LINE",
"40 204 LINE",
"48 196 LINE",
"140 196 LINE",
"140 48 LINE",
"148 40 LINE"
);
},
{
closed = 1;
nodes = (
"212 436 LINE",
"300 436 LINE",
"300 268 LINE",
"212 268 LINE"
);
}
);
width = 512;
},
{
layerId = "4FBB1917-F682-4041-B654-F2E0D2EF1242";
paths = (
{
closed = 1;
nodes = (
"204 40 LINE",
"212 48 LINE",
"212 196 LINE",
"300 196 LINE",
"300 48 LINE",
"308 40 LINE",
"364 40 LINE",
"372 48 LINE",
"372 196 LINE",
"464 196 LINE",
"472 204 LINE",
"472 260 LINE",
"464 268 LINE",
"372 268 LINE",
"372 436 LINE",
"464 436 LINE",
"472 444 LINE",
"472 500 LINE",
"464 508 LINE",
"372 508 LINE",
"372 656 LINE",
"364 664 LINE",
"308 664 LINE",
"300 656 LINE",
"300 508 LINE",
"212 508 LINE",
"212 656 LINE",
"204 664 LINE",
"148 664 LINE",
"140 656 LINE",
"140 508 LINE",
"48 508 LINE",
"40 500 LINE",
"40 444 LINE",
"48 436 LINE",
"140 436 LINE",
"140 268 LINE",
"48 268 LINE",
"40 260 LINE",
"40 204 LINE",
"48 196 LINE",
"140 196 LINE",
"140 48 LINE",
"148 40 LINE"
);
},
{
closed = 1;
nodes = (
"212 436 LINE",
"300 436 LINE",
"300 268 LINE",
"212 268 LINE"
);
}
);
width = 512;
}
);
unicode = 0023;
},
{
color = 5;
glyphname = slash;
layers = (
{
layerId = m01;
paths = (
{
closed = 1;
nodes = (
"143 -208 LINE",
"151 -200 LINE",
"432 752 LINE",
"432 760 LINE",
"424 768 LINE",
"369 768 LINE",
"361 760 LINE",
"80 -192 LINE",
"80 -200 LINE",
"88 -208 LINE"
);
}
);
width = 512;
},
{
layerId = "4FBB1917-F682-4041-B654-F2E0D2EF1242";
paths = (
{
closed = 1;
nodes = (
"143 -208 LINE",
"151 -200 LINE",
"432 752 LINE",
"432 760 LINE",
"424 768 LINE",
"369 768 LINE",
"361 760 LINE",
"80 -192 LINE",
"80 -200 LINE",
"88 -208 LINE"
);
}
);
width = 512;
}
);
unicode = 002F;
},
{
color = 5;
glyphname = backslash;
layers = (
{
layerId = m01;
paths = (
{
closed = 1;
nodes = (
"440 -208 LINE",
"448 -200 LINE",
"149 696 LINE",
"141 704 LINE",
"72 704 LINE",
"64 696 LINE",
"363 -200 LINE",
"371 -208 LINE"
);
}
);
width = 512;
},
{
layerId = "4FBB1917-F682-4041-B654-F2E0D2EF1242";
paths = (
{
closed = 1;
nodes = (
"448 -200 LINE",
"149 696 LINE",
"141 704 LINE",
"72 704 LINE",
"64 696 LINE",
"363 -200 LINE",
"371 -208 LINE",
"440 -208 LINE"
);
}
);
width = 512;
}
);
unicode = 005C;
},
{
color = 5;
glyphname = hyphen;
layers = (
{
layerId = m01;
paths = (
{
closed = 1;
nodes = (
"432 305 LINE",
"440 313 LINE",
"440 377 LINE",
"432 385 LINE",
"80 385 LINE",
"72 377 LINE",
"73 313 LINE",
"81 305 LINE"
);
}
);
width = 512;
},
{
layerId = "4FBB1917-F682-4041-B654-F2E0D2EF1242";
paths = (
{
closed = 1;
nodes = (
"432 305 LINE",
"440 313 LINE",
"440 377 LINE",
"432 385 LINE",
"80 385 LINE",
"72 377 LINE",
"73 313 LINE",
"81 305 LINE"
);
}
);
width = 512;
}
);
unicode = 002D;
},
{
color = 5;
glyphname = underscore;
layers = (
{
layerId = m01;
paths = (
{
closed = 1;
nodes = (
"468 -208 LINE",
"468 -135 LINE",
"44 -135 LINE",
"44 -208 LINE"
);
}
);
width = 512;
},
{
layerId = "4FBB1917-F682-4041-B654-F2E0D2EF1242";
paths = (
{
closed = 1;
nodes = (
"468 -208 LINE",
"468 -135 LINE",
"44 -135 LINE",
"44 -208 LINE"
);
}
);
width = 512;
}
);
unicode = 005F;
},
{
color = 5;
glyphname = parenleft;
layers = (
{
layerId = m01;
paths = (
{
closed = 1;
nodes = (
"208 -208 OFFCURVE",
"152 -128 OFFCURVE",
"152 -15 CURVE SMOOTH",
"152 575 LINE SMOOTH",
"152 688 OFFCURVE",
"208 768 OFFCURVE",
"336 768 CURVE",
"360 768 LINE",
"368 760 LINE",
"368 696 LINE",
"360 688 LINE",
"336 688 LINE",
"256 688 OFFCURVE",
"224 632 OFFCURVE",
"224 559 CURVE SMOOTH",
"224 1 LINE SMOOTH",
"224 -72 OFFCURVE",
"256 -128 OFFCURVE",
"336 -128 CURVE",
"360 -128 LINE",
"368 -136 LINE",
"368 -200 LINE",
"360 -208 LINE",
"336 -208 LINE"
);
}
);
width = 512;
},
{
layerId = "4FBB1917-F682-4041-B654-F2E0D2EF1242";
paths = (
{
closed = 1;
nodes = (
"208 -208 OFFCURVE",
"152 -128 OFFCURVE",
"152 -15 CURVE SMOOTH",
"152 575 LINE SMOOTH",
"152 688 OFFCURVE",
"208 768 OFFCURVE",
"336 768 CURVE",
"360 768 LINE",
"368 760 LINE",
"368 696 LINE",
"360 688 LINE",
"336 688 LINE",
"256 688 OFFCURVE",
"224 632 OFFCURVE",
"224 559 CURVE SMOOTH",
"224 1 LINE SMOOTH",
"224 -72 OFFCURVE",
"256 -128 OFFCURVE",
"336 -128 CURVE",
"360 -128 LINE",
"368 -136 LINE",
"368 -200 LINE",
"360 -208 LINE",
"336 -208 LINE"
);
}
);
width = 512;
}
);
unicode = 0028;
},
{
color = 5;
glyphname = parenright;
layers = (
{
layerId = m01;
paths = (
{
closed = 1;
nodes = (
"160 -208 LINE",
"152 -200 LINE",
"152 -136 LINE",
"160 -128 LINE",
"184 -128 LINE",
"264 -128 OFFCURVE",
"296 -72 OFFCURVE",
"296 1 CURVE SMOOTH",
"296 559 LINE SMOOTH",
"296 632 OFFCURVE",
"264 688 OFFCURVE",
"184 688 CURVE",
"160 688 LINE",
"152 696 LINE",
"152 760 LINE",
"160 768 LINE",
"184 768 LINE",
"312 768 OFFCURVE",
"368 688 OFFCURVE",
"368 575 CURVE SMOOTH",
"368 -15 LINE SMOOTH",
"368 -128 OFFCURVE",
"312 -208 OFFCURVE",
"184 -208 CURVE"
);
}
);
width = 512;
},
{
layerId = "4FBB1917-F682-4041-B654-F2E0D2EF1242";
paths = (
{
closed = 1;
nodes = (
"160 -208 LINE",
"152 -200 LINE",
"152 -136 LINE",
"160 -128 LINE",
"184 -128 LINE",
"264 -128 OFFCURVE",
"296 -72 OFFCURVE",
"296 1 CURVE SMOOTH",
"296 559 LINE SMOOTH",
"296 632 OFFCURVE",
"264 688 OFFCURVE",
"184 688 CURVE",
"160 688 LINE",
"152 696 LINE",
"152 760 LINE",
"160 768 LINE",
"184 768 LINE",
"312 768 OFFCURVE",
"368 688 OFFCURVE",
"368 575 CURVE SMOOTH",
"368 -15 LINE SMOOTH",
"368 -128 OFFCURVE",
"312 -208 OFFCURVE",
"184 -208 CURVE"
);
}
);
width = 512;
}
);
unicode = 0029;
},
{
color = 5;
glyphname = braceleft;
layers = (
{
layerId = m01;
paths = (
{
closed = 1;
nodes = (
"418 -208 LINE",
"426 -200 LINE",
"426 -138 LINE",
"418 -130 LINE",
"394 -130 LINE SMOOTH",
"355 -130 OFFCURVE",
"201 -115 OFFCURVE",
"201 -44 CURVE SMOOTH",
"201 36 OFFCURVE",
"323 42 OFFCURVE",
"323 152 CURVE SMOOTH",
"323 229 OFFCURVE",
"248 271 OFFCURVE",
"179 284 CURVE",
"179 289 LINE",
"248 294 OFFCURVE",
"323 332 OFFCURVE",
"323 404 CURVE SMOOTH",
"323 503 OFFCURVE",
"205 529 OFFCURVE",
"205 606 CURVE SMOOTH",
"205 696 OFFCURVE",
"320 688 OFFCURVE",
"410 688 CURVE SMOOTH",
"450 688 LINE",
"458 696 LINE",
"458 760 LINE",
"450 768 LINE",
"410 768 LINE SMOOTH",
"183 768 OFFCURVE",
"135 718 OFFCURVE",
"135 606 CURVE SMOOTH",
"135 538 OFFCURVE",
"251 453 OFFCURVE",
"251 404 CURVE SMOOTH",
"251 328 OFFCURVE",
"151 331 OFFCURVE",
"75 331 CURVE SMOOTH",
"60 331 LINE",
"52 323 LINE",
"52 253 LINE",
"60 245 LINE",
"78 245 LINE SMOOTH",
"152 245 OFFCURVE",
"256 212 OFFCURVE",
"256 152 CURVE SMOOTH",
"256 71 OFFCURVE",
"135 63 OFFCURVE",
"135 -44 CURVE SMOOTH",
"135 -152 OFFCURVE",
"207 -208 OFFCURVE",
"394 -208 CURVE SMOOTH"
);
}
);
width = 512;
},
{
layerId = "4FBB1917-F682-4041-B654-F2E0D2EF1242";
paths = (
{
closed = 1;
nodes = (
"418 -208 LINE",
"426 -200 LINE",
"426 -138 LINE",
"418 -130 LINE",
"394 -130 LINE SMOOTH",
"355 -130 OFFCURVE",
"201 -115 OFFCURVE",
"201 -44 CURVE SMOOTH",
"201 36 OFFCURVE",
"323 42 OFFCURVE",
"323 152 CURVE SMOOTH",
"323 229 OFFCURVE",
"248 271 OFFCURVE",
"179 284 CURVE",
"179 289 LINE",
"248 294 OFFCURVE",
"323 332 OFFCURVE",
"323 404 CURVE SMOOTH",
"323 503 OFFCURVE",
"205 529 OFFCURVE",
"205 606 CURVE SMOOTH",
"205 696 OFFCURVE",
"320 688 OFFCURVE",
"410 688 CURVE SMOOTH",
"450 688 LINE",
"458 696 LINE",
"458 760 LINE",
"450 768 LINE",
"410 768 LINE SMOOTH",
"183 768 OFFCURVE",
"135 718 OFFCURVE",
"135 606 CURVE SMOOTH",
"135 538 OFFCURVE",
"251 453 OFFCURVE",
"251 404 CURVE SMOOTH",
"251 328 OFFCURVE",
"151 331 OFFCURVE",
"75 331 CURVE SMOOTH",
"60 331 LINE",
"52 323 LINE",
"52 253 LINE",
"60 245 LINE",
"78 245 LINE SMOOTH",
"152 245 OFFCURVE",
"256 212 OFFCURVE",
"256 152 CURVE SMOOTH",
"256 71 OFFCURVE",
"135 63 OFFCURVE",
"135 -44 CURVE SMOOTH",
"135 -152 OFFCURVE",
"207 -208 OFFCURVE",
"394 -208 CURVE SMOOTH"
);
}
);
width = 512;
}
);
unicode = 007B;
},
{
color = 5;
glyphname = braceright;
layers = (
{
layerId = m01;
paths = (
{
closed = 1;
nodes = (
"303 -208 OFFCURVE",
"375 -152 OFFCURVE",
"375 -44 CURVE SMOOTH",
"375 63 OFFCURVE",
"254 71 OFFCURVE",
"254 152 CURVE SMOOTH",
"254 212 OFFCURVE",
"358 245 OFFCURVE",
"432 245 CURVE SMOOTH",
"450 245 LINE",
"458 253 LINE",
"458 323 LINE",
"450 331 LINE",
"435 331 LINE SMOOTH",
"359 331 OFFCURVE",
"259 328 OFFCURVE",
"259 404 CURVE SMOOTH",
"259 453 OFFCURVE",
"375 538 OFFCURVE",
"375 606 CURVE SMOOTH",
"375 718 OFFCURVE",
"327 768 OFFCURVE",
"100 768 CURVE SMOOTH",
"60 768 LINE",
"52 760 LINE",
"52 696 LINE",
"60 688 LINE",
"100 688 LINE SMOOTH",
"190 688 OFFCURVE",
"305 696 OFFCURVE",
"305 606 CURVE SMOOTH",
"305 529 OFFCURVE",
"187 503 OFFCURVE",
"187 404 CURVE SMOOTH",
"187 332 OFFCURVE",
"262 294 OFFCURVE",
"331 289 CURVE",
"331 284 LINE",
"262 271 OFFCURVE",
"187 229 OFFCURVE",
"187 152 CURVE SMOOTH",
"187 42 OFFCURVE",
"309 36 OFFCURVE",
"309 -44 CURVE SMOOTH",
"309 -115 OFFCURVE",
"155 -130 OFFCURVE",
"116 -130 CURVE SMOOTH",
"92 -130 LINE",
"84 -138 LINE",
"84 -200 LINE",
"92 -208 LINE",
"116 -208 LINE SMOOTH"
);
}
);
width = 512;
},
{
layerId = "4FBB1917-F682-4041-B654-F2E0D2EF1242";
paths = (
{
closed = 1;
nodes = (
"303 -208 OFFCURVE",
"375 -152 OFFCURVE",
"375 -44 CURVE SMOOTH",
"375 63 OFFCURVE",
"254 71 OFFCURVE",
"254 152 CURVE SMOOTH",
"254 212 OFFCURVE",
"358 245 OFFCURVE",
"432 245 CURVE SMOOTH",
"450 245 LINE",
"458 253 LINE",
"458 323 LINE",
"450 331 LINE",
"435 331 LINE SMOOTH",
"359 331 OFFCURVE",
"259 328 OFFCURVE",
"259 404 CURVE SMOOTH",
"259 453 OFFCURVE",
"375 538 OFFCURVE",
"375 606 CURVE SMOOTH",
"375 718 OFFCURVE",
"327 768 OFFCURVE",
"100 768 CURVE SMOOTH",
"60 768 LINE",
"52 760 LINE",
"52 696 LINE",
"60 688 LINE",
"100 688 LINE SMOOTH",
"190 688 OFFCURVE",
"305 696 OFFCURVE",
"305 606 CURVE SMOOTH",
"305 529 OFFCURVE",
"187 503 OFFCURVE",
"187 404 CURVE SMOOTH",
"187 332 OFFCURVE",
"262 294 OFFCURVE",
"331 289 CURVE",
"331 284 LINE",
"262 271 OFFCURVE",
"187 229 OFFCURVE",
"187 152 CURVE SMOOTH",
"187 42 OFFCURVE",
"309 36 OFFCURVE",
"309 -44 CURVE SMOOTH",
"309 -115 OFFCURVE",
"155 -130 OFFCURVE",
"116 -130 CURVE SMOOTH",
"92 -130 LINE",
"84 -138 LINE",
"84 -200 LINE",
"92 -208 LINE",
"116 -208 LINE SMOOTH"
);
}
);
width = 512;
}
);
unicode = 007D;
},
{
color = 5;
glyphname = bracketleft;
layers = (
{
layerId = m01;
paths = (
{
closed = 1;
nodes = (
"410 -208 LINE",
"410 -128 LINE",
"204 -128 LINE",
"204 624 LINE",
"410 624 LINE",
"410 704 LINE",
"132 704 LINE",
"132 -208 LINE"
);
}
);
width = 512;
},
{
layerId = "4FBB1917-F682-4041-B654-F2E0D2EF1242";
paths = (
{
closed = 1;
nodes = (
"410 -208 LINE",
"410 -128 LINE",
"204 -128 LINE",
"204 624 LINE",
"410 624 LINE",
"410 704 LINE",
"132 704 LINE",
"132 -208 LINE"
);
}
);
width = 512;
}
);
unicode = 005B;
},
{
color = 5;
glyphname = bracketright;
layers = (
{
layerId = m01;
paths = (
{
closed = 1;
nodes = (
"394 -208 LINE",
"394 704 LINE",
"116 704 LINE",
"116 624 LINE",
"322 624 LINE",
"322 -128 LINE",
"116 -128 LINE",
"116 -208 LINE"
);
}
);
width = 512;
},
{
layerId = "4FBB1917-F682-4041-B654-F2E0D2EF1242";
paths = (
{
closed = 1;
nodes = (
"394 704 LINE",
"116 704 LINE",
"116 624 LINE",
"322 624 LINE",
"322 -128 LINE",
"116 -128 LINE",
"116 -208 LINE",
"394 -208 LINE"
);
}
);
width = 512;
}
);
unicode = 005D;
},
{
color = 5;
glyphname = guillemetleft;
layers = (
{
layerId = m01;
paths = (
{
closed = 1;
nodes = (
"478 194 LINE",
"318 349 LINE",
"478 504 LINE",
"478 586 LINE",
"277 391 LINE",
"277 307 LINE",
"478 112 LINE"
);
},
{
closed = 1;
nodes = (
"245 194 LINE",
"85 349 LINE",
"245 504 LINE",
"245 586 LINE",
"44 391 LINE",
"44 307 LINE",
"245 112 LINE"
);
}
);
width = 512;
},
{
layerId = "4FBB1917-F682-4041-B654-F2E0D2EF1242";
paths = (
{
closed = 1;
nodes = (
"503 210 LINE",
"351 349 LINE",
"503 488 LINE",
"503 586 LINE",
"302 391 LINE",
"302 307 LINE",
"503 112 LINE"
);
},
{
closed = 1;
nodes = (
"270 210 LINE",
"118 349 LINE",
"270 488 LINE",
"270 586 LINE",
"69 391 LINE",
"69 307 LINE",
"270 112 LINE"
);
}
);
width = 600;
}
);
unicode = 00AB;
},
{
color = 5;
glyphname = quotedbl;
layers = (
{
layerId = m01;
paths = (
{
closed = 1;
nodes = (
"212 512 LINE",
"220 520 LINE",
"220 696 LINE",
"212 704 LINE",
"156 704 LINE",
"148 696 LINE",
"148 520 LINE",
"156 512 LINE"
);
},
{
closed = 1;
nodes = (
"356 512 LINE",
"364 520 LINE",
"364 696 LINE",
"356 704 LINE",
"300 704 LINE",
"292 696 LINE",
"292 520 LINE",
"300 512 LINE"
);
}
);
width = 512;
},
{
layerId = "4FBB1917-F682-4041-B654-F2E0D2EF1242";
paths = (
{
closed = 1;
nodes = (
"212 512 LINE",
"220 520 LINE",
"220 696 LINE",
"212 704 LINE",
"156 704 LINE",
"148 696 LINE",
"148 520 LINE",
"156 512 LINE"
);
},
{
closed = 1;
nodes = (
"356 512 LINE",
"364 520 LINE",
"364 696 LINE",
"356 704 LINE",
"300 704 LINE",
"292 696 LINE",
"292 520 LINE",
"300 512 LINE"
);
}
);
width = 512;
}
);
unicode = 0022;
},
{
color = 5;
glyphname = quotesingle;
layers = (
{
layerId = m01;
paths = (
{
closed = 1;
nodes = (
"284 512 LINE",
"292 520 LINE",
"292 696 LINE",
"284 704 LINE",
"228 704 LINE",
"220 696 LINE",
"220 520 LINE",
"228 512 LINE"
);
}
);
width = 512;
},
{
layerId = "4FBB1917-F682-4041-B654-F2E0D2EF1242";
paths = (
{
closed = 1;
nodes = (
"284 512 LINE",
"292 520 LINE",
"292 696 LINE",
"284 704 LINE",
"228 704 LINE",
"220 696 LINE",
"220 520 LINE",
"228 512 LINE"
);
}
);
width = 512;
}
);
unicode = 0027;
},
{
color = 5;
glyphname = at;
layers = (
{
layerId = m01;
paths = (
{
closed = 1;
nodes = (
"316 -208 LINE",
"316 -128 LINE",
"239 -128 LINE SMOOTH",
"102 -128 OFFCURVE",
"88 -18 OFFCURVE",
"88 119 CURVE SMOOTH",
"88 397 LINE SMOOTH",
"88 562 OFFCURVE",
"163 660 OFFCURVE",
"255 660 CURVE SMOOTH",
"371 660 OFFCURVE",
"431 553 OFFCURVE",
"431 397 CURVE SMOOTH",
"431 198 LINE SMOOTH",
"431 114 OFFCURVE",
"409 78 OFFCURVE",
"394 78 CURVE SMOOTH",
"376 78 OFFCURVE",
"371 101 OFFCURVE",
"371 126 CURVE SMOOTH",
"371 426 LINE SMOOTH",
"371 496 OFFCURVE",
"323 528 OFFCURVE",
"256 528 CURVE SMOOTH",
"178 528 OFFCURVE",
"142 485 OFFCURVE",
"142 373 CURVE SMOOTH",
"142 170 LINE SMOOTH",
"142 29 OFFCURVE",
"175 0 OFFCURVE",
"219 0 CURVE SMOOTH",
"257 0 OFFCURVE",
"278 39 OFFCURVE",
"289 76 CURVE",
"307 76 LINE",
"307 31 OFFCURVE",
"359 10 OFFCURVE",
"396 10 CURVE SMOOTH",
"469 10 OFFCURVE",
"497 94 OFFCURVE",
"497 198 CURVE SMOOTH",
"497 397 LINE SMOOTH",
"497 654 OFFCURVE",
"388 720 OFFCURVE",
"256 720 CURVE SMOOTH",
"97 720 OFFCURVE",
"16 576 OFFCURVE",
"16 397 CURVE SMOOTH",
"16 119 LINE SMOOTH",
"16 -56 OFFCURVE",
"65 -208 OFFCURVE",
"239 -208 CURVE SMOOTH"
);
},
{
closed = 1;
nodes = (
"223 77 OFFCURVE",
"214 96 OFFCURVE",
"214 161 CURVE SMOOTH",
"214 374 LINE SMOOTH",
"214 424 OFFCURVE",
"220 454 OFFCURVE",
"254 454 CURVE SMOOTH",
"283 454 OFFCURVE",
"298 440 OFFCURVE",
"298 411 CURVE SMOOTH",
"298 149 LINE SMOOTH",
"298 110 OFFCURVE",
"274 77 OFFCURVE",
"239 77 CURVE SMOOTH"
);
}
);
width = 512;
},
{
layerId = "4FBB1917-F682-4041-B654-F2E0D2EF1242";
paths = (
{
closed = 1;
nodes = (
"316 -208 LINE",
"316 -128 LINE",
"239 -128 LINE SMOOTH",
"102 -128 OFFCURVE",
"88 -18 OFFCURVE",
"88 119 CURVE SMOOTH",
"88 397 LINE SMOOTH",
"88 562 OFFCURVE",
"163 660 OFFCURVE",
"255 660 CURVE SMOOTH",
"371 660 OFFCURVE",
"431 553 OFFCURVE",
"431 397 CURVE SMOOTH",
"431 198 LINE SMOOTH",
"431 114 OFFCURVE",
"409 78 OFFCURVE",
"394 78 CURVE SMOOTH",
"376 78 OFFCURVE",
"371 101 OFFCURVE",
"371 126 CURVE SMOOTH",
"371 426 LINE SMOOTH",
"371 496 OFFCURVE",
"323 528 OFFCURVE",
"256 528 CURVE SMOOTH",
"178 528 OFFCURVE",
"142 485 OFFCURVE",
"142 373 CURVE SMOOTH",
"142 170 LINE SMOOTH",
"142 29 OFFCURVE",
"175 0 OFFCURVE",
"219 0 CURVE SMOOTH",
"257 0 OFFCURVE",
"278 39 OFFCURVE",
"289 76 CURVE",
"307 76 LINE",
"307 31 OFFCURVE",
"359 10 OFFCURVE",
"396 10 CURVE SMOOTH",
"469 10 OFFCURVE",
"497 94 OFFCURVE",
"497 198 CURVE SMOOTH",
"497 397 LINE SMOOTH",
"497 654 OFFCURVE",
"388 720 OFFCURVE",
"256 720 CURVE SMOOTH",
"97 720 OFFCURVE",
"16 576 OFFCURVE",
"16 397 CURVE SMOOTH",
"16 119 LINE SMOOTH",
"16 -56 OFFCURVE",
"65 -208 OFFCURVE",
"239 -208 CURVE SMOOTH"
);
},
{
closed = 1;
nodes = (
"223 77 OFFCURVE",
"214 96 OFFCURVE",
"214 161 CURVE SMOOTH",
"214 374 LINE SMOOTH",
"214 424 OFFCURVE",
"220 454 OFFCURVE",
"254 454 CURVE SMOOTH",
"283 454 OFFCURVE",
"298 440 OFFCURVE",
"298 411 CURVE SMOOTH",
"298 149 LINE SMOOTH",
"298 110 OFFCURVE",
"274 77 OFFCURVE",
"239 77 CURVE SMOOTH"
);
}
);
width = 512;
}
);
unicode = 0040;
},
{
color = 5;
glyphname = ampersand;
layers = (
{
layerId = m01;
paths = (
{
closed = 1;
nodes = (
"232 -15 OFFCURVE",
"310 40 OFFCURVE",
"351 100 CURVE",
"443 0 LINE",
"495 46 LINE",
"378 155 LINE",
"460 270 LINE",
"391 306 LINE",
"340 204 LINE",
"196 357 LINE",
"285 439 OFFCURVE",
"357 477 OFFCURVE",
"357 574 CURVE SMOOTH",
"357 650 OFFCURVE",
"309 721 OFFCURVE",
"221 721 CURVE SMOOTH",
"128 721 OFFCURVE",
"62 659 OFFCURVE",
"62 539 CURVE SMOOTH",
"62 488 OFFCURVE",
"83 431 OFFCURVE",
"106 374 CURVE",
"46 330 OFFCURVE",
"18 264 OFFCURVE",
"18 166 CURVE SMOOTH",
"18 46 OFFCURVE",
"72 -15 OFFCURVE",
"164 -15 CURVE SMOOTH"
);
},
{
closed = 1;
nodes = (
"157 437 OFFCURVE",
"142 497 OFFCURVE",
"142 534 CURVE SMOOTH",
"142 613 OFFCURVE",
"178 650 OFFCURVE",
"223 650 CURVE SMOOTH",
"260 650 OFFCURVE",
"284 602 OFFCURVE",
"284 551 CURVE SMOOTH",
"284 487 OFFCURVE",
"232 446 OFFCURVE",
"175 401 CURVE"
);
},
{
closed = 1;
nodes = (
"123 57 OFFCURVE",
"100 99 OFFCURVE",
"100 173 CURVE SMOOTH",
"100 229 OFFCURVE",
"117 263 OFFCURVE",
"150 300 CURVE",
"305 144 LINE",
"281 97 OFFCURVE",
"214 57 OFFCURVE",
"178 57 CURVE SMOOTH"
);
}
);
width = 512;
},
{
layerId = "4FBB1917-F682-4041-B654-F2E0D2EF1242";
paths = (
{
closed = 1;
nodes = (
"232 -15 OFFCURVE",
"310 40 OFFCURVE",
"351 100 CURVE",
"443 0 LINE",
"495 46 LINE",
"378 155 LINE",
"460 270 LINE",
"391 306 LINE",
"340 204 LINE",
"196 357 LINE",
"285 439 OFFCURVE",
"357 477 OFFCURVE",
"357 574 CURVE SMOOTH",
"357 650 OFFCURVE",
"309 721 OFFCURVE",
"221 721 CURVE SMOOTH",
"128 721 OFFCURVE",
"62 659 OFFCURVE",
"62 539 CURVE SMOOTH",
"62 488 OFFCURVE",
"83 431 OFFCURVE",
"106 374 CURVE",
"46 330 OFFCURVE",
"18 264 OFFCURVE",
"18 166 CURVE SMOOTH",
"18 46 OFFCURVE",
"72 -15 OFFCURVE",
"164 -15 CURVE SMOOTH"
);
},
{
closed = 1;
nodes = (
"157 437 OFFCURVE",
"142 497 OFFCURVE",
"142 534 CURVE SMOOTH",
"142 613 OFFCURVE",
"178 650 OFFCURVE",
"223 650 CURVE SMOOTH",
"260 650 OFFCURVE",
"284 602 OFFCURVE",
"284 551 CURVE SMOOTH",
"284 487 OFFCURVE",
"232 446 OFFCURVE",
"175 401 CURVE"
);
},
{
closed = 1;
nodes = (
"123 57 OFFCURVE",
"100 99 OFFCURVE",
"100 173 CURVE SMOOTH",
"100 229 OFFCURVE",
"117 263 OFFCURVE",
"150 300 CURVE",
"305 144 LINE",
"281 97 OFFCURVE",
"214 57 OFFCURVE",
"178 57 CURVE SMOOTH"
);
}
);
width = 512;
}
);
unicode = 0026;
},
{
color = 5;
glyphname = paragraph;
layers = (
{
layerId = m01;
paths = (
{
closed = 1;
nodes = (
"317 -208 LINE",
"317 332 LINE",
"397 332 LINE",
"397 -208 LINE",
"469 -208 LINE",
"469 768 LINE",
"211 768 LINE SMOOTH",
"106 768 OFFCURVE",
"40 688 OFFCURVE",
"40 557 CURVE SMOOTH",
"40 392 OFFCURVE",
"138 332 OFFCURVE",
"245 332 CURVE",
"245 -208 LINE"
);
}
);
width = 512;
},
{
layerId = "4FBB1917-F682-4041-B654-F2E0D2EF1242";
paths = (
{
closed = 1;
nodes = (
"317 -208 LINE",
"317 332 LINE",
"397 332 LINE",
"397 -208 LINE",
"469 -208 LINE",
"469 768 LINE",
"211 768 LINE SMOOTH",
"106 768 OFFCURVE",
"40 688 OFFCURVE",
"40 557 CURVE SMOOTH",
"40 392 OFFCURVE",
"138 332 OFFCURVE",
"245 332 CURVE",
"245 -208 LINE"
);
}
);
width = 512;
}
);
unicode = 00B6;
},
{
color = 5;
glyphname = section;
layers = (
{
layerId = m01;
paths = (
{
closed = 1;
nodes = (
"168 148 OFFCURVE",
"133 196 OFFCURVE",
"133 252 CURVE SMOOTH",
"133 328 OFFCURVE",
"185 358 OFFCURVE",
"234 359 CURVE",
"279 346 OFFCURVE",
"369 334 OFFCURVE",
"369 247 CURVE SMOOTH",
"369 163 OFFCURVE",
"303 148 OFFCURVE",
"245 148 CURVE SMOOTH"
);
},
{
closed = 1;
nodes = (
"389 -224 OFFCURVE",
"459 -139 OFFCURVE",
"459 -16 CURVE SMOOTH",
"459 31 OFFCURVE",
"420 77 OFFCURVE",
"349 112 CURVE",
"412 132 OFFCURVE",
"451 178 OFFCURVE",
"451 266 CURVE SMOOTH",
"451 350 OFFCURVE",
"420 372 OFFCURVE",
"281 426 CURVE SMOOTH",
"178 466 OFFCURVE",
"135 476 OFFCURVE",
"135 528 CURVE SMOOTH",
"135 589 OFFCURVE",
"170 640 OFFCURVE",
"239 640 CURVE SMOOTH",
"327 640 OFFCURVE",
"346 612 OFFCURVE",
"393 555 CURVE",
"444 610 LINE",
"400 671 OFFCURVE",
"343 720 OFFCURVE",
"243 720 CURVE SMOOTH",
"112 720 OFFCURVE",
"49 635 OFFCURVE",
"49 512 CURVE SMOOTH",
"49 452 OFFCURVE",
"86 424 OFFCURVE",
"154 389 CURVE",
"93 368 OFFCURVE",
"54 321 OFFCURVE",
"54 225 CURVE SMOOTH",
"54 149 OFFCURVE",
"102 94 OFFCURVE",
"236 61 CURVE SMOOTH",
"337 37 OFFCURVE",
"373 4 OFFCURVE",
"373 -28 CURVE SMOOTH",
"373 -100 OFFCURVE",
"329 -152 OFFCURVE",
"274 -152 CURVE SMOOTH",
"209 -152 OFFCURVE",
"167 -116 OFFCURVE",
"120 -59 CURVE",
"65 -114 LINE",
"114 -175 OFFCURVE",
"190 -224 OFFCURVE",
"266 -224 CURVE SMOOTH"
);
}
);
width = 512;
},
{
layerId = "4FBB1917-F682-4041-B654-F2E0D2EF1242";
paths = (
{
closed = 1;
nodes = (
"168 148 OFFCURVE",
"133 196 OFFCURVE",
"133 252 CURVE SMOOTH",
"133 328 OFFCURVE",
"185 358 OFFCURVE",
"234 359 CURVE",
"279 346 OFFCURVE",
"369 334 OFFCURVE",
"369 247 CURVE SMOOTH",
"369 163 OFFCURVE",
"303 148 OFFCURVE",
"245 148 CURVE SMOOTH"
);
},
{
closed = 1;
nodes = (
"389 -224 OFFCURVE",
"459 -139 OFFCURVE",
"459 -16 CURVE SMOOTH",
"459 31 OFFCURVE",
"420 77 OFFCURVE",
"349 112 CURVE",
"412 132 OFFCURVE",
"451 178 OFFCURVE",
"451 266 CURVE SMOOTH",
"451 350 OFFCURVE",
"420 372 OFFCURVE",
"281 426 CURVE SMOOTH",
"178 466 OFFCURVE",
"135 476 OFFCURVE",
"135 528 CURVE SMOOTH",
"135 589 OFFCURVE",
"170 640 OFFCURVE",
"239 640 CURVE SMOOTH",
"327 640 OFFCURVE",
"346 612 OFFCURVE",
"393 555 CURVE",
"444 610 LINE",
"400 671 OFFCURVE",
"343 720 OFFCURVE",
"243 720 CURVE SMOOTH",
"112 720 OFFCURVE",
"49 635 OFFCURVE",
"49 512 CURVE SMOOTH",
"49 452 OFFCURVE",
"86 424 OFFCURVE",
"154 389 CURVE",
"93 368 OFFCURVE",
"54 321 OFFCURVE",
"54 225 CURVE SMOOTH",
"54 149 OFFCURVE",
"102 94 OFFCURVE",
"236 61 CURVE SMOOTH",
"337 37 OFFCURVE",
"373 4 OFFCURVE",
"373 -28 CURVE SMOOTH",
"373 -100 OFFCURVE",
"329 -152 OFFCURVE",
"274 -152 CURVE SMOOTH",
"209 -152 OFFCURVE",
"167 -116 OFFCURVE",
"120 -59 CURVE",
"65 -114 LINE",
"114 -175 OFFCURVE",
"190 -224 OFFCURVE",
"266 -224 CURVE SMOOTH"
);
}
);
width = 512;
}
);
unicode = 00A7;
},
{
color = 5;
glyphname = copyright;
layers = (
{
layerId = m01;
paths = (
{
closed = 1;
nodes = (
"428 -110 OFFCURVE",
"503 22.333 OFFCURVE",
"503 257 CURVE SMOOTH",
"503 397 LINE SMOOTH",
"503 634.333 OFFCURVE",
"428 768 OFFCURVE",
"256 768 CURVE SMOOTH",
"84 768 OFFCURVE",
"8 634.333 OFFCURVE",
"8 397 CURVE SMOOTH",
"8 257 LINE SMOOTH",
"8 22.333 OFFCURVE",
"82.667 -110 OFFCURVE",
"256 -110 CURVE SMOOTH"
);
},
{
closed = 1;
nodes = (
"109 -36 OFFCURVE",
"71 71.667 OFFCURVE",
"71 277 CURVE SMOOTH",
"71 377 LINE SMOOTH",
"71 578.333 OFFCURVE",
"109 688 OFFCURVE",
"256 688 CURVE SMOOTH",
"403 688 OFFCURVE",
"441 578.333 OFFCURVE",
"441 377 CURVE SMOOTH",
"441 277 LINE SMOOTH",
"441 71.667 OFFCURVE",
"403 -36 OFFCURVE",
"256 -36 CURVE SMOOTH"
);
},
{
closed = 1;
nodes = (
"337 113 OFFCURVE",
"368 168 OFFCURVE",
"366 280 CURVE",
"320 280 LINE",
"320 241 OFFCURVE",
"303 197 OFFCURVE",
"262 197 CURVE SMOOTH",
"229 197 OFFCURVE",
"199 216 OFFCURVE",
"199 283 CURVE SMOOTH",
"199 358 LINE SMOOTH",
"199 400 OFFCURVE",
"219 444 OFFCURVE",
"261 444 CURVE SMOOTH",
"301 444 OFFCURVE",
"320 393 OFFCURVE",
"320 353 CURVE",
"366 353 LINE",
"366 468 OFFCURVE",
"337 528 OFFCURVE",
"262 528 CURVE SMOOTH",
"175 528 OFFCURVE",
"139 464 OFFCURVE",
"139 348 CURVE SMOOTH",
"139 295 LINE SMOOTH",
"139 178 OFFCURVE",
"174 113 OFFCURVE",
"262 113 CURVE SMOOTH"
);
}
);
width = 512;
},
{
layerId = "4FBB1917-F682-4041-B654-F2E0D2EF1242";
paths = (
{
closed = 1;
nodes = (
"428 -110 OFFCURVE",
"503 22.333 OFFCURVE",
"503 257 CURVE SMOOTH",
"503 397 LINE SMOOTH",
"503 634.333 OFFCURVE",
"428 768 OFFCURVE",
"256 768 CURVE SMOOTH",
"84 768 OFFCURVE",
"8 634.333 OFFCURVE",
"8 397 CURVE SMOOTH",
"8 257 LINE SMOOTH",
"8 22.333 OFFCURVE",
"82.667 -110 OFFCURVE",
"256 -110 CURVE SMOOTH"
);
},
{
closed = 1;
nodes = (
"109 -36 OFFCURVE",
"71 71.667 OFFCURVE",
"71 277 CURVE SMOOTH",
"71 377 LINE SMOOTH",
"71 578.333 OFFCURVE",
"109 688 OFFCURVE",
"256 688 CURVE SMOOTH",
"403 688 OFFCURVE",
"441 578.333 OFFCURVE",
"441 377 CURVE SMOOTH",
"441 277 LINE SMOOTH",
"441 71.667 OFFCURVE",
"403 -36 OFFCURVE",
"256 -36 CURVE SMOOTH"
);
},
{
closed = 1;
nodes = (
"337 113 OFFCURVE",
"368 168 OFFCURVE",
"366 280 CURVE",
"320 280 LINE",
"320 241 OFFCURVE",
"303 197 OFFCURVE",
"262 197 CURVE SMOOTH",
"229 197 OFFCURVE",
"199 216 OFFCURVE",
"199 283 CURVE SMOOTH",
"199 358 LINE SMOOTH",
"199 400 OFFCURVE",
"219 444 OFFCURVE",
"261 444 CURVE SMOOTH",
"301 444 OFFCURVE",
"320 393 OFFCURVE",
"320 353 CURVE",
"366 353 LINE",
"366 468 OFFCURVE",
"337 528 OFFCURVE",
"262 528 CURVE SMOOTH",
"175 528 OFFCURVE",
"139 464 OFFCURVE",
"139 348 CURVE SMOOTH",
"139 295 LINE SMOOTH",
"139 178 OFFCURVE",
"174 113 OFFCURVE",
"262 113 CURVE SMOOTH"
);
}
);
width = 512;
}
);
unicode = 00A9;
},
{
color = 5;
glyphname = registered;
layers = (
{
layerId = m01;
paths = (
{
closed = 1;
nodes = (
"404 97 OFFCURVE",
"478 189 OFFCURVE",
"478 353 CURVE SMOOTH",
"478 494 LINE SMOOTH",
"478 661 OFFCURVE",
"404 768 OFFCURVE",
"256 768 CURVE SMOOTH",
"107 768 OFFCURVE",
"34 661 OFFCURVE",
"34 494 CURVE SMOOTH",
"34 353 LINE SMOOTH",
"34 189 OFFCURVE",
"107 97 OFFCURVE",
"256 97 CURVE SMOOTH"
);
},
{
closed = 1;
nodes = (
"131 147 OFFCURVE",
"98 217 OFFCURVE",
"98 364 CURVE SMOOTH",
"98 482 LINE SMOOTH",
"98 625 OFFCURVE",
"131 719 OFFCURVE",
"256 719 CURVE SMOOTH",
"380 719 OFFCURVE",
"414 625 OFFCURVE",
"414 482 CURVE SMOOTH",
"414 364 LINE SMOOTH",
"414 217 OFFCURVE",
"380 147 OFFCURVE",
"256 147 CURVE SMOOTH"
);
},
{
closed = 1;
nodes = (
"254 531 LINE SMOOTH",
"271 531 OFFCURVE",
"298 520 OFFCURVE",
"298 479 CURVE SMOOTH",
"298 446 OFFCURVE",
"279 443 OFFCURVE",
"262 440 CURVE SMOOTH",
"220 432 LINE",
"220 531 LINE"
);
},
{
closed = 1;
nodes = (
"249 384 LINE",
"291 269 LINE",
"365 269 LINE",
"307 392 LINE",
"339 404 OFFCURVE",
"358 438 OFFCURVE",
"358 479 CURVE SMOOTH",
"358 546 OFFCURVE",
"314 586 OFFCURVE",
"257 586 CURVE SMOOTH",
"160 586 LINE",
"152 269 LINE",
"220 269 LINE",
"220 384 LINE"
);
}
);
width = 512;
},
{
layerId = "4FBB1917-F682-4041-B654-F2E0D2EF1242";
paths = (
{
closed = 1;
nodes = (
"404 97 OFFCURVE",
"478 189 OFFCURVE",
"478 353 CURVE SMOOTH",
"478 494 LINE SMOOTH",
"478 661 OFFCURVE",
"404 768 OFFCURVE",
"256 768 CURVE SMOOTH",
"107 768 OFFCURVE",
"34 661 OFFCURVE",
"34 494 CURVE SMOOTH",
"34 353 LINE SMOOTH",
"34 189 OFFCURVE",
"107 97 OFFCURVE",
"256 97 CURVE SMOOTH"
);
},
{
closed = 1;
nodes = (
"131 147 OFFCURVE",
"98 217 OFFCURVE",
"98 364 CURVE SMOOTH",
"98 482 LINE SMOOTH",
"98 625 OFFCURVE",
"131 719 OFFCURVE",
"256 719 CURVE SMOOTH",
"380 719 OFFCURVE",
"414 625 OFFCURVE",
"414 482 CURVE SMOOTH",
"414 364 LINE SMOOTH",
"414 217 OFFCURVE",
"380 147 OFFCURVE",
"256 147 CURVE SMOOTH"
);
},
{
closed = 1;
nodes = (
"254 531 LINE SMOOTH",
"271 531 OFFCURVE",
"298 520 OFFCURVE",
"298 479 CURVE SMOOTH",
"298 446 OFFCURVE",
"279 443 OFFCURVE",
"262 440 CURVE SMOOTH",
"220 432 LINE",
"220 531 LINE"
);
},
{
closed = 1;
nodes = (
"249 384 LINE",
"291 269 LINE",
"365 269 LINE",
"307 392 LINE",
"339 404 OFFCURVE",
"358 438 OFFCURVE",
"358 479 CURVE SMOOTH",
"358 546 OFFCURVE",
"314 586 OFFCURVE",
"257 586 CURVE SMOOTH",
"160 586 LINE",
"152 269 LINE",
"220 269 LINE",
"220 384 LINE"
);
}
);
width = 512;
}
);
unicode = 00AE;
},
{
color = 5;
glyphname = degree;
layers = (
{
layerId = m01;
paths = (
{
closed = 1;
nodes = (
"348 313 OFFCURVE",
"412 369 OFFCURVE",
"412 485 CURVE SMOOTH",
"412 593 LINE SMOOTH",
"412 710 OFFCURVE",
"349 768 OFFCURVE",
"256 768 CURVE SMOOTH",
"164 768 OFFCURVE",
"100 710 OFFCURVE",
"100 593 CURVE SMOOTH",
"100 485 LINE SMOOTH",
"100 369 OFFCURVE",
"164 313 OFFCURVE",
"256 313 CURVE SMOOTH"
);
},
{
closed = 1;
nodes = (
"207 409 OFFCURVE",
"166 417 OFFCURVE",
"166 482 CURVE SMOOTH",
"166 596 LINE SMOOTH",
"166 657 OFFCURVE",
"207 671 OFFCURVE",
"256 671 CURVE SMOOTH",
"305 671 OFFCURVE",
"346 657 OFFCURVE",
"346 596 CURVE SMOOTH",
"346 482 LINE SMOOTH",
"346 417 OFFCURVE",
"305 409 OFFCURVE",
"256 409 CURVE SMOOTH"
);
}
);
width = 512;
},
{
layerId = "4FBB1917-F682-4041-B654-F2E0D2EF1242";
paths = (
{
closed = 1;
nodes = (
"348 313 OFFCURVE",
"412 369 OFFCURVE",
"412 485 CURVE SMOOTH",
"412 593 LINE SMOOTH",
"412 710 OFFCURVE",
"349 768 OFFCURVE",
"256 768 CURVE SMOOTH",
"164 768 OFFCURVE",
"100 710 OFFCURVE",
"100 593 CURVE SMOOTH",
"100 485 LINE SMOOTH",
"100 369 OFFCURVE",
"164 313 OFFCURVE",
"256 313 CURVE SMOOTH"
);
},
{
closed = 1;
nodes = (
"207 409 OFFCURVE",
"166 417 OFFCURVE",
"166 482 CURVE SMOOTH",
"166 596 LINE SMOOTH",
"166 657 OFFCURVE",
"207 671 OFFCURVE",
"256 671 CURVE SMOOTH",
"305 671 OFFCURVE",
"346 657 OFFCURVE",
"346 596 CURVE SMOOTH",
"346 482 LINE SMOOTH",
"346 417 OFFCURVE",
"305 409 OFFCURVE",
"256 409 CURVE SMOOTH"
);
}
);
width = 512;
}
);
unicode = 00B0;
},
{
color = 5;
glyphname = bar;
layers = (
{
layerId = m01;
paths = (
{
closed = 1;
nodes = (
"296 -208 LINE",
"296 704 LINE",
"217 704 LINE",
"217 -208 LINE"
);
}
);
width = 512;
},
{
layerId = "4FBB1917-F682-4041-B654-F2E0D2EF1242";
paths = (
{
closed = 1;
nodes = (
"296 -208 LINE",
"296 704 LINE",
"217 704 LINE",
"217 -208 LINE"
);
}
);
width = 512;
}
);
unicode = 007C;
},
{
color = 5;
glyphname = brokenbar;
layers = (
{
layerId = m01;
paths = (
{
closed = 1;
nodes = (
"332 368 LINE",
"332 768 LINE",
"253 768 LINE",
"253 368 LINE"
);
},
{
closed = 1;
nodes = (
"332 -208 LINE",
"332 192 LINE",
"253 192 LINE",
"253 -208 LINE"
);
}
);
width = 512;
},
{
layerId = "4FBB1917-F682-4041-B654-F2E0D2EF1242";
paths = (
{
closed = 1;
nodes = (
"300 368 LINE",
"300 768 LINE",
"221 768 LINE",
"221 368 LINE"
);
},
{
closed = 1;
nodes = (
"300 -208 LINE",
"300 192 LINE",
"221 192 LINE",
"221 -208 LINE"
);
}
);
width = 512;
}
);
unicode = 00A6;
},
{
color = 5;
glyphname = cent;
layers = (
{
layerId = m01;
paths = (
{
closed = 1;
nodes = (
"172 198 OFFCURVE",
"138 225 OFFCURVE",
"138 314 CURVE SMOOTH",
"138 486 LINE SMOOTH",
"138 577 OFFCURVE",
"172 604 OFFCURVE",
"233 612 CURVE",
"233 189 LINE"
);
},
{
closed = 1;
nodes = (
"291 -16 LINE",
"291 91 LINE",
"399 100.333 OFFCURVE",
"453 167 OFFCURVE",
"453 299 CURVE",
"385 299 LINE",
"385 204 OFFCURVE",
"342 192 OFFCURVE",
"283 188 CURVE",
"283 613 LINE",
"340 610 OFFCURVE",
"385 590 OFFCURVE",
"385 491 CURVE",
"453 491 LINE",
"445 626 OFFCURVE",
"396.333 699.667 OFFCURVE",
"291 709 CURVE",
"291 802 LINE",
"225 802 LINE",
"225 708 LINE",
"110.333 694.667 OFFCURVE",
"65 613 OFFCURVE",
"65 477 CURVE SMOOTH",
"65 327 LINE SMOOTH",
"65 187 OFFCURVE",
"109 105.333 OFFCURVE",
"225 92 CURVE",
"225 -16 LINE"
);
}
);
width = 512;
},
{
layerId = "4FBB1917-F682-4041-B654-F2E0D2EF1242";
paths = (
{
closed = 1;
nodes = (
"172 198 OFFCURVE",
"138 225 OFFCURVE",
"138 314 CURVE SMOOTH",
"138 486 LINE SMOOTH",
"138 577 OFFCURVE",
"172 604 OFFCURVE",
"233 612 CURVE",
"233 189 LINE"
);
},
{
closed = 1;
nodes = (
"291 -16 LINE",
"291 91 LINE",
"399 100.333 OFFCURVE",
"453 167 OFFCURVE",
"453 299 CURVE",
"385 299 LINE",
"385 204 OFFCURVE",
"342 192 OFFCURVE",
"283 188 CURVE",
"283 613 LINE",
"340 610 OFFCURVE",
"385 590 OFFCURVE",
"385 491 CURVE",
"453 491 LINE",
"445 626 OFFCURVE",
"396.333 699.667 OFFCURVE",
"291 709 CURVE",
"291 802 LINE",
"225 802 LINE",
"225 708 LINE",
"110.333 694.667 OFFCURVE",
"65 613 OFFCURVE",
"65 477 CURVE SMOOTH",
"65 327 LINE SMOOTH",
"65 187 OFFCURVE",
"109 105.333 OFFCURVE",
"225 92 CURVE",
"225 -16 LINE"
);
}
);
width = 512;
}
);
unicode = 00A2;
},
{
color = 5;
glyphname = dollar;
layers = (
{
layerId = m01;
paths = (
{
closed = 1;
nodes = (
"155 488 OFFCURVE",
"129 519 OFFCURVE",
"129 580 CURVE SMOOTH",
"129 643 OFFCURVE",
"162 661 OFFCURVE",
"227 665 CURVE",
"227 456 LINE"
);
},
{
closed = 1;
nodes = (
"294 346 LINE",
"370 313 OFFCURVE",
"397 283 OFFCURVE",
"397 224 CURVE SMOOTH",
"397 156 OFFCURVE",
"355 130 OFFCURVE",
"294 127 CURVE"
);
},
{
closed = 1;
nodes = (
"294 -50 LINE",
"294 46 LINE",
"402 55 OFFCURVE",
"463 123 OFFCURVE",
"463 236 CURVE SMOOTH",
"463 335 OFFCURVE",
"426 388 OFFCURVE",
"294 437 CURVE",
"294 663 LINE",
"374 657 OFFCURVE",
"402 657 OFFCURVE",
"402 596 CURVE",
"461 596 LINE",
"461 710 OFFCURVE",
"393 737 OFFCURVE",
"294 751 CURVE",
"294 850 LINE",
"227 850 LINE",
"227 752 LINE",
"123 743 OFFCURVE",
"64 685 OFFCURVE",
"64 569 CURVE SMOOTH",
"64 465 OFFCURVE",
"99 410 OFFCURVE",
"227 365 CURVE",
"227 130 LINE",
"174 135 OFFCURVE",
"133 130 OFFCURVE",
"133 187 CURVE",
"64 187 LINE",
"64 65 OFFCURVE",
"162 54 OFFCURVE",
"227 47 CURVE",
"227 -50 LINE"
);
}
);
width = 512;
},
{
layerId = "4FBB1917-F682-4041-B654-F2E0D2EF1242";
paths = (
{
closed = 1;
nodes = (
"155 488 OFFCURVE",
"129 519 OFFCURVE",
"129 580 CURVE SMOOTH",
"129 643 OFFCURVE",
"162 661 OFFCURVE",
"227 665 CURVE",
"227 456 LINE"
);
},
{
closed = 1;
nodes = (
"294 346 LINE",
"370 313 OFFCURVE",
"397 283 OFFCURVE",
"397 224 CURVE SMOOTH",
"397 156 OFFCURVE",
"355 130 OFFCURVE",
"294 127 CURVE"
);
},
{
closed = 1;
nodes = (
"294 -50 LINE",
"294 46 LINE",
"402 55 OFFCURVE",
"463 123 OFFCURVE",
"463 236 CURVE SMOOTH",
"463 335 OFFCURVE",
"426 388 OFFCURVE",
"294 437 CURVE",
"294 663 LINE",
"374 657 OFFCURVE",
"402 657 OFFCURVE",
"402 596 CURVE",
"461 596 LINE",
"461 710 OFFCURVE",
"393 737 OFFCURVE",
"294 751 CURVE",
"294 850 LINE",
"227 850 LINE",
"227 752 LINE",
"123 743 OFFCURVE",
"64 685 OFFCURVE",
"64 569 CURVE SMOOTH",
"64 465 OFFCURVE",
"99 410 OFFCURVE",
"227 365 CURVE",
"227 130 LINE",
"174 135 OFFCURVE",
"133 130 OFFCURVE",
"133 187 CURVE",
"64 187 LINE",
"64 65 OFFCURVE",
"162 54 OFFCURVE",
"227 47 CURVE",
"227 -50 LINE"
);
}
);
width = 512;
}
);
unicode = 0024;
},
{
color = 5;
glyphname = sterling;
layers = (
{
layerId = m01;
paths = (
{
closed = 1;
nodes = (
"134 53 OFFCURVE",
"159 57 OFFCURVE",
"170 58 CURVE SMOOTH",
"217 59 OFFCURVE",
"299 -16 OFFCURVE",
"346 -16 CURVE SMOOTH",
"430 -16 OFFCURVE",
"485 36 OFFCURVE",
"492 177 CURVE",
"427 177 LINE",
"423 111 OFFCURVE",
"404 51 OFFCURVE",
"344 51 CURVE SMOOTH",
"307 51 OFFCURVE",
"258 110 OFFCURVE",
"227 110 CURVE SMOOTH",
"214 110 OFFCURVE",
"193 118 OFFCURVE",
"181 108 CURVE",
"166 121 LINE",
"211 166 OFFCURVE",
"240 195 OFFCURVE",
"240 254 CURVE SMOOTH",
"240 293 OFFCURVE",
"227 347 OFFCURVE",
"220 374 CURVE",
"342 374 LINE",
"342 446 LINE",
"188 446 LINE",
"175 481 OFFCURVE",
"154 517 OFFCURVE",
"154 569 CURVE SMOOTH",
"154 652 OFFCURVE",
"205 690 OFFCURVE",
"266 690 CURVE SMOOTH",
"345 690 OFFCURVE",
"376 705 OFFCURVE",
"376 597 CURVE",
"448 597 LINE",
"448 744 OFFCURVE",
"396 786 OFFCURVE",
"265 786 CURVE SMOOTH",
"146 786 OFFCURVE",
"79 695 OFFCURVE",
"79 571 CURVE SMOOTH",
"79 516 OFFCURVE",
"88 478 OFFCURVE",
"100 446 CURVE",
"34 446 LINE",
"34 374 LINE",
"137 374 LINE",
"146 346 OFFCURVE",
"163 291 OFFCURVE",
"163 246 CURVE SMOOTH",
"163 178 OFFCURVE",
"126 126 OFFCURVE",
"89 99 CURVE SMOOTH",
"24 52 LINE",
"55 -15 LINE"
);
}
);
width = 512;
},
{
layerId = "4FBB1917-F682-4041-B654-F2E0D2EF1242";
paths = (
{
closed = 1;
nodes = (
"134 53 OFFCURVE",
"159 57 OFFCURVE",
"170 58 CURVE SMOOTH",
"217 59 OFFCURVE",
"299 -16 OFFCURVE",
"346 -16 CURVE SMOOTH",
"430 -16 OFFCURVE",
"485 36 OFFCURVE",
"492 177 CURVE",
"427 177 LINE",
"423 111 OFFCURVE",
"404 51 OFFCURVE",
"344 51 CURVE SMOOTH",
"307 51 OFFCURVE",
"258 110 OFFCURVE",
"227 110 CURVE SMOOTH",
"214 110 OFFCURVE",
"193 118 OFFCURVE",
"181 108 CURVE",
"166 121 LINE",
"211 166 OFFCURVE",
"240 195 OFFCURVE",
"240 254 CURVE SMOOTH",
"240 293 OFFCURVE",
"227 347 OFFCURVE",
"220 374 CURVE",
"342 374 LINE",
"342 446 LINE",
"188 446 LINE",
"175 481 OFFCURVE",
"154 517 OFFCURVE",
"154 569 CURVE SMOOTH",
"154 652 OFFCURVE",
"205 690 OFFCURVE",
"266 690 CURVE SMOOTH",
"345 690 OFFCURVE",
"376 705 OFFCURVE",
"376 597 CURVE",
"448 597 LINE",
"448 744 OFFCURVE",
"396 786 OFFCURVE",
"265 786 CURVE SMOOTH",
"146 786 OFFCURVE",
"79 695 OFFCURVE",
"79 571 CURVE SMOOTH",
"79 516 OFFCURVE",
"88 478 OFFCURVE",
"100 446 CURVE",
"34 446 LINE",
"34 374 LINE",
"137 374 LINE",
"146 346 OFFCURVE",
"163 291 OFFCURVE",
"163 246 CURVE SMOOTH",
"163 178 OFFCURVE",
"126 126 OFFCURVE",
"89 99 CURVE SMOOTH",
"24 52 LINE",
"55 -15 LINE"
);
}
);
width = 512;
}
);
unicode = 00A3;
},
{
color = 5;
glyphname = yen;
layers = (
{
layerId = m01;
paths = (
{
closed = 1;
nodes = (
"302 0 LINE",
"302 172 LINE",
"452 172 LINE",
"452 236 LINE",
"302 236 LINE",
"302 348 LINE",
"452 348 LINE",
"452 412 LINE",
"340 412 LINE",
"480 768 LINE",
"385 768 LINE",
"259 424 LINE",
"130 768 LINE",
"32 768 LINE",
"174 412 LINE",
"62 412 LINE",
"62 348 LINE",
"212 348 LINE",
"212 236 LINE",
"62 236 LINE",
"62 172 LINE",
"212 172 LINE",
"212 0 LINE"
);
}
);
width = 512;
},
{
layerId = "4FBB1917-F682-4041-B654-F2E0D2EF1242";
paths = (
{
closed = 1;
nodes = (
"302 0 LINE",
"302 172 LINE",
"452 172 LINE",
"452 236 LINE",
"302 236 LINE",
"302 348 LINE",
"452 348 LINE",
"452 412 LINE",
"340 412 LINE",
"480 768 LINE",
"385 768 LINE",
"259 424 LINE",
"130 768 LINE",
"32 768 LINE",
"174 412 LINE",
"62 412 LINE",
"62 348 LINE",
"212 348 LINE",
"212 236 LINE",
"62 236 LINE",
"62 172 LINE",
"212 172 LINE",
"212 0 LINE"
);
}
);
width = 512;
}
);
unicode = 00A5;
},
{
color = 5;
glyphname = plus;
layers = (
{
layerId = m01;
paths = (
{
closed = 1;
nodes = (
"284 200 LINE",
"292 208 LINE",
"292 320 LINE",
"404 320 LINE",
"412 328 LINE",
"412 384 LINE",
"404 392 LINE",
"292 392 LINE",
"292 504 LINE",
"284 512 LINE",
"228 512 LINE",
"220 504 LINE",
"220 392 LINE",
"108 392 LINE",
"100 384 LINE",
"100 328 LINE",
"108 320 LINE",
"220 320 LINE",
"220 208 LINE",
"228 200 LINE"
);
}
);
width = 512;
},
{
layerId = "4FBB1917-F682-4041-B654-F2E0D2EF1242";
paths = (
{
closed = 1;
nodes = (
"284 200 LINE",
"292 208 LINE",
"292 320 LINE",
"404 320 LINE",
"412 328 LINE",
"412 384 LINE",
"404 392 LINE",
"292 392 LINE",
"292 504 LINE",
"284 512 LINE",
"228 512 LINE",
"220 504 LINE",
"220 392 LINE",
"108 392 LINE",
"100 384 LINE",
"100 328 LINE",
"108 320 LINE",
"220 320 LINE",
"220 208 LINE",
"228 200 LINE"
);
}
);
width = 512;
}
);
unicode = 002B;
},
{
color = 5;
glyphname = minus;
layers = (
{
layerId = m01;
paths = (
{
closed = 1;
nodes = (
"404 320 LINE",
"412 328 LINE",
"412 384 LINE",
"404 392 LINE",
"108 392 LINE",
"100 384 LINE",
"100 328 LINE",
"108 320 LINE"
);
}
);
width = 512;
},
{
layerId = "4FBB1917-F682-4041-B654-F2E0D2EF1242";
paths = (
{
closed = 1;
nodes = (
"404 176 LINE",
"412 184 LINE",
"412 240 LINE",
"404 248 LINE",
"108 248 LINE",
"100 240 LINE",
"100 184 LINE",
"108 176 LINE"
);
}
);
width = 512;
}
);
unicode = 2212;
},
{
color = 5;
glyphname = equal;
layers = (
{
layerId = m01;
paths = (
{
closed = 1;
nodes = (
"404 392 LINE",
"412 400 LINE",
"412 456 LINE",
"404 464 LINE",
"108 464 LINE",
"100 456 LINE",
"100 400 LINE",
"108 392 LINE"
);
},
{
closed = 1;
nodes = (
"404 248 LINE",
"412 256 LINE",
"412 312 LINE",
"404 320 LINE",
"108 320 LINE",
"100 312 LINE",
"100 256 LINE",
"108 248 LINE"
);
}
);
width = 512;
},
{
layerId = "4FBB1917-F682-4041-B654-F2E0D2EF1242";
paths = (
{
closed = 1;
nodes = (
"404 320 LINE",
"412 328 LINE",
"412 384 LINE",
"404 392 LINE",
"108 392 LINE",
"100 384 LINE",
"100 328 LINE",
"108 320 LINE"
);
},
{
closed = 1;
nodes = (
"404 176 LINE",
"412 184 LINE",
"412 240 LINE",
"404 248 LINE",
"108 248 LINE",
"100 240 LINE",
"100 184 LINE",
"108 176 LINE"
);
}
);
width = 512;
}
);
unicode = 003D;
},
{
color = 5;
glyphname = greater;
layers = (
{
layerId = m01;
paths = (
{
closed = 1;
nodes = (
"450 257 LINE",
"450 363 LINE",
"95 613 LINE",
"95 526 LINE",
"390 310 LINE",
"95 94 LINE",
"95 7 LINE"
);
}
);
width = 512;
},
{
layerId = "4FBB1917-F682-4041-B654-F2E0D2EF1242";
paths = (
{
closed = 1;
nodes = (
"450 257 LINE",
"450 363 LINE",
"95 613 LINE",
"95 526 LINE",
"390 310 LINE",
"95 94 LINE",
"95 7 LINE"
);
}
);
width = 512;
}
);
unicode = 003E;
},
{
color = 5;
glyphname = less;
layers = (
{
layerId = m01;
paths = (
{
closed = 1;
nodes = (
"442 94 LINE",
"147 310 LINE",
"442 526 LINE",
"442 613 LINE",
"87 363 LINE",
"87 257 LINE",
"442 7 LINE"
);
}
);
width = 512;
},
{
layerId = "4FBB1917-F682-4041-B654-F2E0D2EF1242";
paths = (
{
closed = 1;
nodes = (
"458 94 LINE",
"139 310 LINE",
"458 526 LINE",
"458 613 LINE",
"79 355 LINE",
"79 265 LINE",
"458 7 LINE"
);
}
);
width = 512;
}
);
unicode = 003C;
},
{
color = 5;
glyphname = plusminus;
layers = (
{
layerId = m01;
paths = (
{
closed = 1;
nodes = (
"298 232 LINE",
"298 422 LINE",
"466 422 LINE",
"466 512 LINE",
"298 512 LINE",
"298 704 LINE",
"213 704 LINE",
"213 512 LINE",
"44 512 LINE",
"44 422 LINE",
"213 422 LINE",
"213 232 LINE"
);
},
{
closed = 1;
nodes = (
"466 0 LINE",
"466 82 LINE",
"44 82 LINE",
"44 0 LINE"
);
}
);
width = 512;
},
{
layerId = "4FBB1917-F682-4041-B654-F2E0D2EF1242";
paths = (
{
closed = 1;
nodes = (
"298 232 LINE",
"298 422 LINE",
"466 422 LINE",
"466 512 LINE",
"298 512 LINE",
"298 704 LINE",
"213 704 LINE",
"213 512 LINE",
"44 512 LINE",
"44 422 LINE",
"213 422 LINE",
"213 232 LINE"
);
},
{
closed = 1;
nodes = (
"466 0 LINE",
"466 82 LINE",
"44 82 LINE",
"44 0 LINE"
);
}
);
width = 512;
}
);
unicode = 00B1;
},
{
color = 5;
glyphname = asciitilde;
layers = (
{
layerId = m01;
paths = (
{
closed = 1;
nodes = (
"419 302 OFFCURVE",
"466 370 OFFCURVE",
"466 471 CURVE SMOOTH",
"466 606 LINE",
"395 606 LINE",
"395 476 LINE SMOOTH",
"395 440 OFFCURVE",
"391 376 OFFCURVE",
"352 376 CURVE SMOOTH",
"327 376 OFFCURVE",
"299 447 OFFCURVE",
"281 498 CURVE SMOOTH",
"249 582 OFFCURVE",
"216 612 OFFCURVE",
"161 612 CURVE SMOOTH",
"95 612 OFFCURVE",
"47 544 OFFCURVE",
"47 450 CURVE SMOOTH",
"47 310 LINE",
"118 310 LINE",
"118 444 LINE SMOOTH",
"118 485 OFFCURVE",
"119 538 OFFCURVE",
"162 538 CURVE SMOOTH",
"175 538 OFFCURVE",
"215 467 OFFCURVE",
"233 416 CURVE SMOOTH",
"264 332 OFFCURVE",
"296 302 OFFCURVE",
"353 302 CURVE SMOOTH"
);
}
);
width = 512;
},
{
layerId = "4FBB1917-F682-4041-B654-F2E0D2EF1242";
paths = (
{
closed = 1;
nodes = (
"419 302 OFFCURVE",
"466 370 OFFCURVE",
"466 471 CURVE SMOOTH",
"466 606 LINE",
"395 606 LINE",
"395 476 LINE SMOOTH",
"395 440 OFFCURVE",
"391 376 OFFCURVE",
"352 376 CURVE SMOOTH",
"327 376 OFFCURVE",
"299 447 OFFCURVE",
"281 498 CURVE SMOOTH",
"249 582 OFFCURVE",
"216 612 OFFCURVE",
"161 612 CURVE SMOOTH",
"95 612 OFFCURVE",
"47 544 OFFCURVE",
"47 450 CURVE SMOOTH",
"47 310 LINE",
"118 310 LINE",
"118 444 LINE SMOOTH",
"118 485 OFFCURVE",
"119 538 OFFCURVE",
"162 538 CURVE SMOOTH",
"175 538 OFFCURVE",
"215 467 OFFCURVE",
"233 416 CURVE SMOOTH",
"264 332 OFFCURVE",
"296 302 OFFCURVE",
"353 302 CURVE SMOOTH"
);
}
);
width = 512;
}
);
unicode = 007E;
},
{
color = 5;
glyphname = logicalnot;
layers = (
{
layerId = m01;
paths = (
{
closed = 1;
nodes = (
"504 112 LINE",
"504 395 LINE",
"81 395 LINE",
"81 305 LINE",
"420 305 LINE",
"420 112 LINE"
);
}
);
width = 600;
},
{
layerId = "4FBB1917-F682-4041-B654-F2E0D2EF1242";
paths = (
{
closed = 1;
nodes = (
"504 112 LINE",
"504 395 LINE",
"81 395 LINE",
"81 305 LINE",
"420 305 LINE",
"420 112 LINE"
);
}
);
width = 600;
}
);
unicode = 00AC;
},
{
color = 5;
glyphname = asciicircum;
layers = (
{
layerId = m01;
paths = (
{
closed = 1;
nodes = (
"111 256 LINE",
"256 600 LINE",
"401 256 LINE",
"488 256 LINE",
"302 704 LINE",
"209 704 LINE",
"24 256 LINE"
);
}
);
width = 512;
},
{
layerId = "4FBB1917-F682-4041-B654-F2E0D2EF1242";
paths = (
{
closed = 1;
nodes = (
"111 256 LINE",
"256 600 LINE",
"401 256 LINE",
"488 256 LINE",
"302 704 LINE",
"209 704 LINE",
"24 256 LINE"
);
}
);
width = 512;
}
);
unicode = 005E;
},
{
color = 5;
glyphname = newGlyph;
layers = (
{
layerId = m01;
paths = (
{
closed = 1;
nodes = (
"149 -208 LINE",
"149 36 LINE",
"169 5.333 OFFCURVE",
"196 -16 OFFCURVE",
"228 -16 CURVE SMOOTH",
"279 -16 OFFCURVE",
"317.333 27 OFFCURVE",
"348 103 CURVE",
"364 103 LINE",
"373.333 15 OFFCURVE",
"391 0 OFFCURVE",
"485 0 CURVE",
"485 81 LINE",
"444 80 OFFCURVE",
"416 84 OFFCURVE",
"416 152 CURVE SMOOTH",
"416 513 LINE",
"333 513 LINE",
"333 179 LINE SMOOTH",
"333 123 OFFCURVE",
"269.333 75 OFFCURVE",
"228 75 CURVE SMOOTH",
"184 75 OFFCURVE",
"141 108 OFFCURVE",
"141 191 CURVE SMOOTH",
"141 513 LINE",
"58 513 LINE",
"59 -208 LINE"
);
}
);
width = 512;
},
{
layerId = "4FBB1917-F682-4041-B654-F2E0D2EF1242";
paths = (
{
closed = 1;
nodes = (
"149 -208 LINE",
"149 36 LINE",
"169 5.333 OFFCURVE",
"196 -16 OFFCURVE",
"228 -16 CURVE SMOOTH",
"279 -16 OFFCURVE",
"317.333 27 OFFCURVE",
"348 103 CURVE",
"364 103 LINE",
"373.333 15 OFFCURVE",
"391 0 OFFCURVE",
"485 0 CURVE",
"485 81 LINE",
"444 80 OFFCURVE",
"416 84 OFFCURVE",
"416 152 CURVE SMOOTH",
"416 513 LINE",
"333 513 LINE",
"333 179 LINE SMOOTH",
"333 123 OFFCURVE",
"269.333 75 OFFCURVE",
"228 75 CURVE SMOOTH",
"184 75 OFFCURVE",
"141 108 OFFCURVE",
"141 191 CURVE SMOOTH",
"141 513 LINE",
"58 513 LINE",
"59 -208 LINE"
);
}
);
width = 512;
}
);
unicode = 00B5;
},
